<?xml version="1.0" encoding="UTF-8" ?>
<!DOCTYPE svg PUBLIC "-//W3C//DTD SVG 1.1//EN" "http://www.w3.org/Graphics/SVG/1.1/DTD/svg11.dtd">
<svg width="711pt" height="705pt" viewBox="0 0 711 705" version="1.1" xmlns="http://www.w3.org/2000/svg">
<g id="#ffffffff">
</g>
<g id="#6e7ab4ff">
<path fill="#6e7ab4" opacity="1.00" d=" M 349.36 129.21 C 351.56 128.64 353.76 128.13 355.99 127.66 C 356.03 148.18 356.07 168.70 355.97 189.23 L 354.94 189.33 C 353.64 189.18 352.35 188.99 351.06 188.76 L 351.05 187.96 C 350.94 170.29 351.00 152.61 351.07 134.94 C 351.19 132.87 350.33 130.98 349.36 129.21 Z" />
</g>
<g id="#6d8bbdff">
<path fill="#6d8bbd" opacity="1.00" d=" M 355.99 127.66 C 357.65 127.60 359.33 127.54 361.01 127.48 C 361.02 141.32 361.02 155.16 361.01 169.00 C 360.94 175.50 361.41 182.02 360.61 188.50 C 359.06 188.75 357.51 189.01 355.97 189.23 C 356.07 168.70 356.03 148.18 355.99 127.66 Z" />
</g>
<g id="#6b9cc7ff">
<path fill="#6b9cc7" opacity="1.00" d=" M 361.01 127.48 C 362.99 127.58 364.98 127.73 366.97 127.90 C 366.92 148.32 366.87 168.74 367.00 189.17 C 363.03 189.94 358.92 190.19 354.94 189.33 L 355.97 189.23 C 357.51 189.01 359.06 188.75 360.61 188.50 C 361.41 182.02 360.94 175.50 361.01 169.00 C 361.02 155.16 361.02 141.32 361.01 127.48 Z" />
</g>
<g id="#69afd3ff">
<path fill="#69afd3" opacity="1.00" d=" M 366.97 127.90 C 368.99 128.47 370.98 129.16 372.93 129.97 C 372.01 137.00 372.43 144.10 372.36 151.17 C 372.38 160.50 372.28 169.84 372.44 179.17 C 372.50 182.18 372.01 185.15 371.42 188.09 C 369.94 188.43 368.47 188.79 367.00 189.17 C 366.87 168.74 366.92 148.32 366.97 127.90 Z" />
</g>
<g id="#7069aaff">
<path fill="#7069aa" opacity="1.00" d=" M 345.22 131.40 C 346.60 130.67 347.98 129.94 349.36 129.21 C 350.33 130.98 351.19 132.87 351.07 134.94 C 351.00 152.61 350.94 170.29 351.05 187.96 C 348.72 187.62 346.55 186.73 344.50 185.62 C 345.61 183.61 346.21 181.37 346.09 179.06 C 345.96 166.37 345.93 153.69 346.08 141.00 C 346.10 137.78 345.73 134.58 345.22 131.40 Z" />
</g>
<g id="#67c4dfff">
<path fill="#67c4df" opacity="1.00" d=" M 372.93 129.97 C 374.75 130.77 376.51 131.70 378.18 132.79 C 377.87 149.89 377.94 167.00 378.16 184.10 C 376.48 186.20 373.73 186.94 371.42 188.09 C 372.01 185.15 372.50 182.18 372.44 179.17 C 372.28 169.84 372.38 160.50 372.36 151.17 C 372.43 144.10 372.01 137.00 372.93 129.97 Z" />
</g>
<g id="#7258a0ff">
<path fill="#7258a0" opacity="1.00" d=" M 339.47 135.74 C 340.57 133.58 343.30 132.74 345.22 131.40 C 345.73 134.58 346.10 137.78 346.08 141.00 C 345.93 153.69 345.96 166.37 346.09 179.06 C 346.21 181.37 345.61 183.61 344.50 185.62 C 342.85 184.21 340.40 183.32 339.43 181.32 C 340.37 171.57 339.71 161.77 339.92 152.00 C 340.06 146.57 339.89 141.15 339.47 135.74 Z" />
</g>
<g id="#66d4e9ff">
<path fill="#66d4e9" opacity="1.00" d=" M 378.18 132.79 C 380.38 134.23 382.39 135.93 384.05 137.98 C 383.96 143.98 384.02 149.99 383.99 156.00 C 384.06 163.43 383.47 170.93 384.78 178.30 C 383.06 180.73 380.88 182.83 378.16 184.10 C 377.94 167.00 377.87 149.89 378.18 132.79 Z" />
</g>
<g id="#743d90ff">
<path fill="#743d90" opacity="1.00" d=" M 339.43 181.32 C 325.67 170.32 325.89 146.80 339.47 135.74 C 339.89 141.15 340.06 146.57 339.92 152.00 C 339.71 161.77 340.37 171.57 339.43 181.32 Z" />
</g>
<g id="#64ecf6ff">
<path fill="#64ecf6" opacity="1.00" d=" M 384.05 137.98 C 394.30 148.65 394.64 167.27 384.78 178.30 C 383.47 170.93 384.06 163.43 383.99 156.00 C 384.02 149.99 383.96 143.98 384.05 137.98 Z" />
</g>
<g id="#6e81b8ff">
<path fill="#6e81b8" opacity="1.00" d=" M 324.26 178.52 C 325.36 178.04 326.46 177.57 327.58 177.12 C 330.45 181.64 333.91 185.75 338.12 189.09 C 339.42 195.42 338.56 201.94 339.74 208.29 C 334.81 208.44 329.89 208.77 324.98 209.13 C 324.61 198.93 325.80 188.65 324.26 178.52 Z" />
</g>
<g id="#6f70aeff">
<path fill="#6f70ae" opacity="1.00" d=" M 310.89 184.95 C 314.62 181.58 319.67 180.31 324.26 178.52 C 325.80 188.65 324.61 198.93 324.98 209.13 C 320.42 210.12 315.83 210.98 311.29 212.04 C 310.97 203.01 310.97 193.98 310.89 184.95 Z" />
</g>
<g id="#65d8ebff">
<path fill="#65d8eb" opacity="1.00" d=" M 392.15 179.16 C 394.92 180.14 397.58 181.42 400.09 182.96 C 399.97 191.64 400.05 200.32 400.02 209.00 C 399.93 216.11 400.50 223.27 399.39 230.34 C 395.93 228.16 392.47 225.95 389.30 223.37 C 390.18 220.41 390.73 217.34 390.57 214.25 C 390.23 203.83 390.99 193.38 390.01 182.99 C 390.31 181.52 391.41 180.41 392.15 179.16 Z" />
</g>
<g id="#67cbe3ff">
<path fill="#67cbe3" opacity="1.00" d=" M 379.43 191.22 C 383.34 188.98 386.56 185.83 390.01 182.99 C 390.99 193.38 390.23 203.83 390.57 214.25 C 390.73 217.34 390.18 220.41 389.30 223.37 C 386.12 221.64 382.90 219.96 379.88 217.96 C 379.91 209.26 380.48 200.51 379.49 191.84 L 379.43 191.22 Z" />
</g>
<g id="#64e6f3ff">
<path fill="#64e6f3" opacity="1.00" d=" M 400.09 182.96 C 403.59 184.57 407.54 186.00 410.07 188.99 C 409.65 206.07 410.64 223.19 409.52 240.24 C 405.95 237.34 402.83 233.93 399.31 230.97 L 399.39 230.34 C 400.50 223.27 399.93 216.11 400.02 209.00 C 400.05 200.32 399.97 191.64 400.09 182.96 Z" />
</g>
<g id="#715ca2ff">
<path fill="#715ca2" opacity="1.00" d=" M 294.85 195.82 C 299.66 191.53 304.85 187.36 310.89 184.95 C 310.97 193.98 310.97 203.01 311.29 212.04 C 305.77 213.73 300.58 216.30 295.10 218.11 C 294.88 210.68 295.01 203.25 294.85 195.82 Z" />
</g>
<g id="#6c96c4ff">
<path fill="#6c96c4" opacity="1.00" d=" M 338.12 189.09 C 343.01 192.25 348.43 194.43 354.01 196.04 C 353.82 200.54 355.11 205.57 352.40 209.55 C 348.20 208.92 343.95 208.76 339.74 208.29 C 338.56 201.94 339.42 195.42 338.12 189.09 Z" />
</g>
<g id="#63f2faff">
<path fill="#63f2fa" opacity="1.00" d=" M 410.07 188.99 C 414.24 189.85 414.87 194.52 416.13 197.86 C 421.97 215.07 422.63 233.96 418.10 251.55 C 415.18 247.85 411.87 244.28 409.52 240.24 C 410.64 223.19 409.65 206.07 410.07 188.99 Z" />
</g>
<g id="#68bcdaff">
<path fill="#68bcda" opacity="1.00" d=" M 367.96 196.00 C 371.78 194.54 375.62 193.16 379.49 191.84 C 380.48 200.51 379.91 209.26 379.88 217.96 C 375.92 216.21 371.74 214.99 367.83 213.12 C 368.06 207.42 368.01 201.71 367.96 196.00 Z" />
</g>
<g id="#734394ff">
<path fill="#734394" opacity="1.00" d=" M 265.13 241.96 C 270.47 224.22 280.56 207.75 294.85 195.82 C 295.01 203.25 294.88 210.68 295.10 218.11 C 292.39 220.49 288.77 221.61 285.92 223.86 C 278.09 228.79 271.39 235.21 265.13 241.96 Z" />
</g>
<g id="#6aaad0ff">
<path fill="#6aaad0" opacity="1.00" d=" M 354.01 196.04 C 358.66 196.18 363.31 196.18 367.96 196.00 C 368.01 201.71 368.06 207.42 367.83 213.12 C 362.74 211.71 357.58 210.55 352.40 209.55 C 355.11 205.57 353.82 200.54 354.01 196.04 Z" />
</g>
<g id="#762884ff">
<path fill="#762884" opacity="1.00" d=" M 425.94 202.01 C 447.88 224.02 456.78 257.41 450.41 287.63 C 446.54 288.65 442.51 289.15 438.84 290.81 C 426.00 296.12 416.65 309.05 415.94 322.96 C 415.47 328.79 416.73 334.55 418.69 340.01 C 412.09 345.65 404.76 350.43 396.84 354.00 C 395.32 354.77 393.58 354.13 392.00 354.00 C 380.37 352.09 369.05 348.10 358.89 342.13 C 352.44 337.99 345.82 333.85 340.73 328.04 C 353.37 326.97 365.95 324.06 377.34 318.36 C 393.60 310.70 407.40 298.09 416.76 282.77 C 427.67 265.24 432.46 244.00 430.39 223.47 C 429.92 216.13 427.57 209.13 425.94 202.01 Z" />
<path fill="#762884" opacity="1.00" d=" M 448.39 294.58 C 462.89 291.86 478.30 300.84 483.16 314.74 C 487.36 326.15 484.25 339.98 475.15 348.15 C 465.72 357.31 450.38 359.36 438.86 353.03 C 428.03 347.48 421.18 335.09 422.33 322.95 C 423.21 308.98 434.59 296.72 448.39 294.58 Z" />
<path fill="#762884" opacity="1.00" d=" M 312.81 506.99 C 315.75 506.90 318.70 506.92 321.63 507.15 C 321.52 511.42 321.48 515.70 321.65 519.98 C 324.83 519.99 328.01 520.00 331.20 520.04 C 331.30 522.94 331.29 525.86 331.12 528.77 C 327.97 528.77 324.81 528.78 321.66 528.86 C 321.46 533.42 321.55 537.98 321.58 542.55 C 318.74 542.54 315.90 542.55 313.06 542.59 C 312.49 538.06 312.81 533.49 312.76 528.95 C 309.58 528.78 306.40 528.74 303.23 528.75 C 303.19 525.86 303.18 522.97 303.19 520.09 C 306.38 520.01 309.58 519.98 312.78 519.90 C 312.74 515.60 312.70 511.29 312.81 506.99 Z" />
<path fill="#762884" opacity="1.00" d=" M 353.81 517.79 C 356.82 512.61 363.60 509.51 369.35 511.74 C 373.37 513.14 375.83 516.83 378.23 520.11 C 380.73 517.02 382.96 513.28 386.90 511.88 C 392.10 509.64 398.40 511.88 401.70 516.30 C 405.31 520.67 406.06 526.60 405.76 532.08 C 405.62 537.40 403.46 542.85 399.21 546.20 C 395.77 548.80 390.95 549.89 386.89 548.12 C 382.91 546.60 380.72 542.70 378.17 539.55 C 375.89 543.00 373.48 546.85 369.36 548.27 C 363.09 550.69 355.82 546.86 353.11 540.97 C 349.83 533.74 349.69 524.72 353.81 517.79 M 364.38 519.33 C 361.35 520.52 360.35 524.05 359.88 526.96 C 359.34 531.20 359.59 536.08 362.50 539.47 C 364.49 541.71 368.24 541.29 369.89 538.86 C 372.44 535.29 374.79 530.55 372.81 526.19 C 371.63 522.70 368.71 517.97 364.38 519.33 M 389.33 519.28 C 384.36 521.85 381.52 528.86 383.99 534.04 C 385.16 536.88 386.80 540.28 390.14 540.93 C 393.67 541.32 395.83 537.62 396.41 534.62 C 396.95 530.43 397.33 525.76 395.10 521.97 C 394.00 519.98 391.64 518.40 389.33 519.28 Z" />
</g>
<g id="#31b5b8ff">
<path fill="#31b5b8" opacity="1.00" d=" M 262.41 257.32 C 274.54 240.32 293.00 228.30 313.02 222.73 C 307.49 234.43 303.50 247.01 302.87 260.01 C 301.37 281.45 307.59 303.36 320.08 320.85 C 334.01 340.91 356.07 355.01 380.08 359.45 C 348.82 368.06 313.45 358.17 290.53 335.38 C 289.27 334.40 290.47 332.88 290.80 331.76 C 296.63 319.53 294.75 304.24 286.58 293.51 C 280.82 285.61 271.82 280.67 262.37 278.68 C 261.81 271.59 261.38 264.38 262.41 257.32 Z" />
<path fill="#31b5b8" opacity="1.00" d=" M 250.31 285.36 C 263.12 282.64 277.18 288.99 283.59 300.41 C 289.71 310.65 289.05 324.38 282.07 334.04 C 275.15 344.11 261.93 349.19 250.02 346.68 C 240.91 344.85 232.73 338.72 228.53 330.42 C 223.55 321.16 223.78 309.26 229.28 300.28 C 233.66 292.52 241.63 287.10 250.31 285.36 Z" />
<path fill="#31b5b8" opacity="1.00" d=" M 222.35 426.46 C 227.96 425.20 234.51 426.06 238.74 430.27 C 243.26 434.51 244.89 440.94 244.80 446.97 C 244.70 454.54 245.81 462.83 241.57 469.59 C 235.69 479.51 219.19 479.62 212.97 469.99 C 208.03 462.62 209.38 453.33 209.42 444.95 C 209.61 437.04 214.08 428.31 222.35 426.46 M 225.43 434.46 C 222.68 435.05 220.88 437.60 220.19 440.19 C 219.06 444.36 219.42 448.74 219.34 453.01 C 219.40 457.26 219.14 461.83 221.32 465.66 C 223.63 469.74 230.48 469.84 232.83 465.74 C 235.36 461.63 234.59 456.59 234.74 452.00 C 234.60 447.31 235.29 442.29 233.11 437.95 C 231.83 435.10 228.38 433.70 225.43 434.46 Z" />
<path fill="#31b5b8" opacity="1.00" d=" M 434.32 426.40 C 440.16 425.13 446.97 426.28 451.09 430.91 C 455.43 435.44 456.55 441.97 456.52 448.02 C 456.48 455.40 457.28 463.51 452.97 469.97 C 446.66 479.92 429.59 479.38 423.98 469.00 C 419.91 461.36 420.80 452.29 421.23 443.96 C 421.56 436.23 426.25 427.98 434.32 426.40 M 437.40 434.40 C 435.38 434.70 433.65 436.08 432.79 437.92 C 430.58 442.26 431.26 447.30 431.10 452.00 C 431.24 456.42 430.67 461.16 432.74 465.25 C 434.69 469.21 440.79 470.02 443.72 466.71 C 446.59 463.56 446.34 458.96 446.44 454.99 C 446.27 449.60 447.02 443.99 445.19 438.80 C 444.13 435.66 440.61 433.75 437.40 434.40 Z" />
<path fill="#31b5b8" opacity="1.00" d=" M 167.82 427.06 C 171.14 426.92 174.46 426.92 177.78 427.16 C 182.72 437.10 186.40 447.68 191.91 457.32 C 192.54 447.26 192.01 437.17 192.18 427.10 C 195.46 426.94 198.75 426.94 202.04 427.08 C 202.19 443.36 202.19 459.64 202.04 475.92 C 198.73 476.06 195.41 476.06 192.10 475.92 C 187.23 465.92 183.38 455.40 178.01 445.66 C 177.33 455.71 177.88 465.81 177.74 475.88 C 174.44 476.05 171.13 476.06 167.82 475.94 C 167.64 459.65 167.63 443.35 167.82 427.06 Z" />
<path fill="#31b5b8" opacity="1.00" d=" M 251.96 427.08 C 255.27 426.93 258.60 426.93 261.91 427.08 C 266.80 437.06 270.62 447.57 275.99 457.30 C 276.67 447.26 276.12 437.18 276.26 427.12 C 279.56 426.94 282.87 426.94 286.18 427.06 C 286.36 443.35 286.37 459.65 286.17 475.94 C 282.86 476.07 279.54 476.07 276.23 475.83 C 271.31 465.86 267.60 455.28 262.09 445.63 C 261.46 455.70 261.98 465.81 261.82 475.91 C 258.53 476.05 255.24 476.05 251.95 475.92 C 251.81 459.64 251.80 443.36 251.96 427.08 Z" />
<path fill="#31b5b8" opacity="1.00" d=" M 294.34 427.17 C 303.77 426.88 313.23 426.88 322.66 427.17 C 322.64 429.73 322.63 432.30 322.64 434.88 C 316.56 435.45 310.44 434.95 304.35 435.24 C 304.35 439.10 304.35 442.97 304.33 446.85 C 309.49 447.14 314.67 446.89 319.83 447.09 C 319.85 449.69 319.85 452.30 319.83 454.91 C 314.66 455.11 309.49 454.85 304.33 455.15 C 304.36 459.35 304.36 463.56 304.35 467.76 C 310.47 468.03 316.61 467.59 322.73 468.07 C 322.75 470.66 322.76 473.27 322.75 475.87 C 313.28 476.06 303.80 476.15 294.34 475.83 C 294.46 459.61 294.46 443.39 294.34 427.17 Z" />
<path fill="#31b5b8" opacity="1.00" d=" M 344.26 427.12 C 350.83 426.98 357.42 426.79 363.99 427.17 C 371.27 427.90 376.87 434.80 376.86 441.98 C 377.39 447.49 375.60 453.65 370.66 456.69 C 365.87 460.07 359.76 458.91 354.27 459.22 C 354.23 464.79 354.43 470.37 354.17 475.94 C 350.87 476.06 347.56 476.05 344.26 475.88 C 344.31 459.62 344.31 443.37 344.26 427.12 M 354.27 435.20 C 354.27 440.43 354.28 445.65 354.26 450.89 C 358.20 450.85 363.70 452.27 366.02 448.03 C 367.30 444.37 367.32 439.52 364.44 436.58 C 361.59 434.29 357.64 435.32 354.27 435.20 Z" />
<path fill="#31b5b8" opacity="1.00" d=" M 383.83 427.06 C 389.57 426.97 395.33 426.93 401.08 427.02 C 405.91 427.04 410.89 429.37 413.34 433.65 C 415.67 437.88 415.75 443.05 414.50 447.63 C 413.61 451.11 410.80 453.54 408.42 456.04 C 411.01 462.75 414.18 469.22 416.84 475.91 C 413.23 476.06 409.63 476.05 406.03 475.95 C 403.31 470.18 401.10 464.19 398.62 458.33 C 397.04 458.22 395.46 458.12 393.89 458.04 C 393.50 463.98 393.79 469.93 393.74 475.88 C 390.44 476.05 387.13 476.06 383.83 475.95 C 383.63 459.66 383.63 443.35 383.83 427.06 M 393.86 435.11 C 393.59 440.06 393.62 445.03 393.82 449.99 C 397.16 449.81 401.51 450.99 403.87 447.89 C 405.79 444.71 405.81 440.26 403.84 437.12 C 401.31 434.38 397.17 435.30 393.86 435.11 Z" />
<path fill="#31b5b8" opacity="1.00" d=" M 463.83 427.06 C 472.91 426.96 482.00 426.93 491.08 427.08 C 491.16 429.72 491.14 432.36 491.04 435.00 C 485.32 435.31 479.59 435.05 473.87 435.16 C 473.60 439.42 473.61 443.69 473.83 447.95 C 478.95 448.07 484.08 447.92 489.21 448.06 C 489.31 450.72 489.31 453.39 489.20 456.05 C 484.09 456.24 478.98 456.09 473.87 456.16 C 473.50 462.73 473.80 469.30 473.74 475.88 C 470.43 476.05 467.13 476.06 463.82 475.95 C 463.63 459.66 463.63 443.35 463.83 427.06 Z" />
<path fill="#31b5b8" opacity="1.00" d=" M 497.18 427.09 C 500.51 426.94 503.84 426.94 507.18 427.06 C 507.37 443.35 507.37 459.65 507.18 475.94 C 503.84 476.06 500.50 476.05 497.18 475.90 C 497.19 459.63 497.19 443.36 497.18 427.09 Z" />
<path fill="#31b5b8" opacity="1.00" d=" M 513.16 427.10 C 524.51 426.91 535.86 426.97 547.21 427.06 C 547.31 429.72 547.31 432.39 547.20 435.05 C 543.18 435.16 539.17 435.15 535.16 435.17 C 535.02 448.75 535.28 462.34 535.04 475.92 C 531.75 476.05 528.46 476.05 525.18 475.91 C 525.08 462.33 525.39 448.75 525.04 435.17 C 521.09 435.16 517.13 435.18 513.19 434.99 C 513.15 432.35 513.14 429.72 513.16 427.10 Z" />
</g>
</svg>
