<?xml version="1.0" encoding="UTF-8" ?>
<!DOCTYPE svg PUBLIC "-//W3C//DTD SVG 1.1//EN" "http://www.w3.org/Graphics/SVG/1.1/DTD/svg11.dtd">
<svg width="1200pt" height="627pt" viewBox="0 0 1200 627" version="1.1" xmlns="http://www.w3.org/2000/svg">
<g id="#ffffffff">
</g>
<g id="#4ba5c4ff">
<path fill="#4ba5c4" opacity="1.00" d=" M 676.01 116.82 C 683.99 115.83 692.08 115.73 700.09 116.60 C 700.30 133.04 700.17 149.49 700.11 165.94 C 692.24 164.10 683.92 164.26 676.15 166.50 C 675.90 149.94 676.12 133.38 676.01 116.82 Z" />
<path fill="#4ba5c4" opacity="1.00" d=" M 676.01 283.00 C 676.28 274.45 675.20 265.85 676.70 257.37 C 684.33 259.44 692.46 259.57 700.16 257.76 C 700.39 273.97 700.37 290.18 700.19 306.39 C 692.18 307.27 684.08 307.17 676.08 306.19 C 675.88 298.46 675.82 290.73 676.01 283.00 Z" />
</g>
<g id="#50a0c1ff">
<path fill="#50a0c1" opacity="1.00" d=" M 656.74 121.56 C 663.00 119.40 669.45 117.77 676.01 116.82 C 676.12 133.38 675.90 149.94 676.15 166.50 C 669.35 168.55 663.06 172.16 657.78 176.91 C 656.12 169.71 656.90 162.31 656.80 155.00 C 656.76 143.85 656.84 132.71 656.74 121.56 Z" />
</g>
<g id="#3cabc7ff">
<path fill="#3cabc7" opacity="1.00" d=" M 700.09 116.60 C 707.98 117.61 715.76 119.49 723.20 122.33 C 722.78 124.53 722.38 126.75 722.26 129.00 C 722.14 145.41 722.71 161.84 721.99 178.25 C 715.93 172.34 708.37 167.92 700.11 165.94 C 700.17 149.49 700.30 133.04 700.09 116.60 Z" />
</g>
<g id="#5c97bdff">
<path fill="#5c97bd" opacity="1.00" d=" M 613.84 152.82 C 624.91 138.70 639.88 127.69 656.74 121.56 C 656.84 132.71 656.76 143.85 656.80 155.00 C 656.90 162.31 656.12 169.71 657.78 176.91 C 647.64 186.29 641.81 200.17 642.56 214.00 C 642.74 220.06 644.41 225.94 646.64 231.54 C 644.96 253.18 646.97 274.93 645.66 296.60 C 633.33 290.20 622.45 281.12 613.86 270.20 C 614.29 242.47 613.94 214.74 614.00 187.02 C 614.24 175.62 613.79 164.22 613.84 152.82 Z" />
</g>
<g id="#2bb4cbff">
<path fill="#2bb4cb" opacity="1.00" d=" M 722.26 129.00 C 722.38 126.75 722.78 124.53 723.20 122.33 C 740.11 128.95 755.07 140.43 765.74 155.14 C 765.24 158.41 764.81 161.71 764.80 165.02 C 765.01 190.36 764.79 215.71 764.86 241.05 C 764.99 249.98 764.36 258.94 765.64 267.81 C 757.13 279.97 745.36 289.69 732.27 296.60 C 731.46 284.06 732.16 271.51 732.11 258.96 C 731.88 249.86 732.18 240.74 731.68 231.64 C 739.76 214.04 735.92 191.80 721.99 178.25 C 722.71 161.84 722.14 145.41 722.26 129.00 Z" />
</g>
<g id="#648eb8ff">
<path fill="#648eb8" opacity="1.00" d=" M 568.90 189.12 C 587.13 181.84 601.40 167.57 613.84 152.82 C 613.79 164.22 614.24 175.62 614.00 187.02 C 613.94 214.74 614.29 242.47 613.86 270.20 C 601.48 255.30 587.01 241.47 569.02 233.66 L 568.75 233.00 C 569.56 218.46 569.20 203.86 568.91 189.30 L 568.90 189.12 Z" />
</g>
<g id="#20bacfff">
<path fill="#20bacf" opacity="1.00" d=" M 764.80 165.02 C 764.81 161.71 765.24 158.41 765.74 155.14 C 777.08 170.72 783.59 189.78 783.99 209.06 C 784.56 229.93 778.18 251.06 765.64 267.81 C 764.36 258.94 764.99 249.98 764.86 241.05 C 764.79 215.71 765.01 190.36 764.80 165.02 Z" />
</g>
<g id="#7870aaff">
<path fill="#7870aa" opacity="1.00" d=" M 460.72 160.26 C 472.69 158.57 485.26 160.96 495.52 167.43 C 499.57 169.96 503.13 173.15 506.92 176.04 C 506.79 191.37 506.85 206.69 506.85 222.01 C 506.91 229.98 506.57 237.97 507.32 245.92 L 507.03 246.63 C 501.53 251.46 495.74 256.17 488.93 259.03 C 480.14 262.92 470.29 263.97 460.79 262.80 L 460.80 262.62 C 461.10 228.51 461.27 194.37 460.72 160.26 Z" />
</g>
<g id="#7c66a5ff">
<path fill="#7c66a5" opacity="1.00" d=" M 420.25 193.25 C 426.52 176.02 442.60 162.99 460.72 160.26 C 461.27 194.37 461.10 228.51 460.80 262.62 C 444.88 260.47 430.51 250.07 423.04 235.92 C 416.06 222.97 415.05 207.01 420.25 193.25 Z" />
</g>
<g id="#727aaeff">
<path fill="#727aae" opacity="1.00" d=" M 506.92 176.04 C 516.55 183.21 527.19 189.38 539.04 191.96 C 538.89 204.99 538.90 218.03 538.93 231.07 C 527.36 233.46 517.24 239.74 507.57 246.21 L 507.32 245.92 C 506.57 237.97 506.91 229.98 506.85 222.01 C 506.85 206.69 506.79 191.37 506.92 176.04 Z" />
</g>
<g id="#6c84b3ff">
<path fill="#6c84b3" opacity="1.00" d=" M 539.04 191.96 C 549.02 193.97 559.39 192.80 568.91 189.30 C 569.20 203.86 569.56 218.46 568.75 233.00 L 568.35 233.29 C 558.85 230.39 548.76 228.93 538.93 231.07 C 538.90 218.03 538.89 204.99 539.04 191.96 Z" />
</g>
<g id="#529ec0ff">
<path fill="#529ec0" opacity="1.00" d=" M 645.66 296.60 C 646.97 274.93 644.96 253.18 646.64 231.54 C 652.42 243.89 663.49 253.70 676.70 257.37 C 675.20 265.85 676.28 274.45 676.01 283.00 C 675.82 290.73 675.88 298.46 676.08 306.19 C 665.50 304.69 655.19 301.43 645.66 296.60 Z" />
</g>
<g id="#39adc8ff">
<path fill="#39adc8" opacity="1.00" d=" M 700.16 257.76 C 713.97 254.46 725.67 244.41 731.68 231.64 C 732.18 240.74 731.88 249.86 732.11 258.96 C 732.16 271.51 731.46 284.06 732.27 296.60 C 722.26 301.73 711.34 304.97 700.19 306.39 C 700.37 290.18 700.39 273.97 700.16 257.76 Z" />
</g>
<g id="#704790ff">
<path fill="#704790" opacity="1.00" d=" M 224.45 343.64 C 235.59 342.03 247.37 343.25 257.49 348.41 C 270.59 355.15 280.81 367.72 283.77 382.25 C 286.53 395.73 284.79 410.53 277.18 422.20 C 269.55 433.95 257.02 442.57 243.09 444.69 C 226.95 447.46 209.26 443.20 197.49 431.45 C 177.56 413.27 176.65 378.65 195.26 359.24 C 202.85 350.92 213.28 345.26 224.45 343.64 M 228.47 358.69 C 216.83 360.09 206.82 368.47 202.07 378.99 C 198.77 386.52 198.17 395.13 199.98 403.13 C 201.94 411.98 207.66 419.80 215.16 424.81 C 223.00 430.04 233.08 431.21 242.14 429.04 C 250.50 427.06 257.58 421.30 262.28 414.24 C 267.89 405.72 269.21 394.82 266.91 384.99 C 264.92 376.37 259.35 368.79 252.10 363.81 C 245.26 359.13 236.60 357.60 228.47 358.69 Z" />
<path fill="#704790" opacity="1.00" d=" M 315.92 382.03 C 320.82 374.51 328.69 368.36 337.95 367.99 C 352.54 366.73 367.23 375.53 373.05 388.94 C 376.72 397.43 377.08 407.08 375.45 416.09 C 373.44 427.13 365.99 436.91 356.07 442.07 C 347.12 446.64 335.88 446.90 326.98 442.06 C 322.76 439.88 319.22 436.66 315.93 433.30 C 315.95 446.18 315.93 459.06 315.94 471.94 C 310.71 471.94 305.48 471.95 300.25 471.93 C 300.24 437.64 300.24 403.36 300.25 369.07 C 305.48 369.05 310.71 369.06 315.94 369.06 C 315.94 373.38 315.95 377.71 315.92 382.03 M 332.39 382.55 C 326.71 384.02 321.98 388.17 319.09 393.19 C 315.63 399.26 314.99 406.64 316.36 413.40 C 317.81 420.46 322.73 426.76 329.34 429.67 C 336.79 432.87 345.96 431.44 352.09 426.13 C 363.82 416.71 363.37 396.58 351.94 387.10 C 346.71 382.42 339.14 380.79 332.39 382.55 Z" />
<path fill="#704790" opacity="1.00" d=" M 414.91 368.89 C 429.85 365.45 447.41 370.86 455.62 384.34 C 461.10 393.12 460.25 403.85 460.24 413.75 C 440.75 413.77 421.27 413.73 401.78 413.77 C 402.40 418.90 404.89 423.82 409.19 426.81 C 420.10 434.90 437.33 433.42 446.31 423.06 C 449.29 426.39 452.29 429.69 455.27 433.02 C 442.86 446.06 421.65 449.35 405.70 441.29 C 396.90 436.63 389.98 428.35 387.61 418.62 C 385.67 410.53 385.63 401.91 387.88 393.88 C 391.37 381.41 402.40 371.72 414.91 368.89 M 407.24 388.21 C 403.56 391.48 402.06 396.40 401.78 401.17 C 416.06 401.19 430.33 401.19 444.61 401.17 C 444.32 396.25 443.20 391.02 439.48 387.49 C 430.88 378.95 415.72 380.03 407.24 388.21 Z" />
<path fill="#704790" opacity="1.00" d=" M 508.44 368.55 C 517.78 366.67 528.38 368.85 535.13 375.91 C 540.79 381.71 542.66 390.11 542.67 397.99 C 542.71 413.49 542.70 429.00 542.67 444.51 C 537.43 444.49 532.19 444.50 526.95 444.50 C 526.91 430.31 526.99 416.13 526.92 401.95 C 526.84 395.58 525.21 388.20 519.40 384.62 C 510.52 379.61 497.93 382.81 492.68 391.62 C 490.25 395.61 489.78 400.39 489.80 404.97 C 489.83 418.14 489.81 431.31 489.82 444.49 C 484.56 444.51 479.31 444.50 474.06 444.49 C 474.05 419.35 474.06 394.20 474.06 369.06 C 479.31 369.06 484.56 369.05 489.82 369.06 C 489.81 373.53 489.83 378.00 489.79 382.47 C 493.84 375.59 500.57 370.25 508.44 368.55 Z" />
</g>
<g id="#15b0c4ff">
<path fill="#15b0c4" opacity="1.00" d=" M 568.48 350.41 C 576.53 344.25 587.07 342.38 597.00 343.12 C 608.02 343.96 618.93 347.83 627.56 354.83 C 624.64 359.06 621.67 363.26 618.75 367.50 C 611.76 361.87 602.83 359.03 593.94 358.53 C 588.90 358.30 583.44 359.02 579.40 362.28 C 573.81 366.91 575.04 377.12 581.62 380.27 C 593.94 386.51 608.79 386.53 620.23 394.80 C 626.40 398.71 629.86 405.85 630.28 413.02 C 631.26 421.69 628.42 430.98 621.68 436.76 C 612.67 444.93 599.69 446.56 588.04 445.17 C 575.57 443.82 563.93 437.94 554.65 429.62 C 558.09 425.37 561.58 421.16 565.05 416.93 C 572.64 423.46 581.77 428.77 591.91 429.74 C 597.96 430.34 604.83 429.85 609.57 425.58 C 614.23 421.56 614.46 413.37 609.79 409.27 C 606.00 406.06 601.07 404.73 596.40 403.36 C 585.87 400.46 574.34 398.57 565.98 390.94 C 559.34 385.06 557.88 375.43 558.94 367.03 C 559.67 360.48 563.13 354.29 568.48 350.41 Z" />
<path fill="#15b0c4" opacity="1.00" d=" M 671.44 368.61 C 680.56 367.11 690.35 367.93 698.57 372.40 C 708.51 377.83 716.12 387.72 718.06 398.96 C 719.38 406.62 718.85 414.72 715.91 421.96 C 711.22 433.21 700.94 442.13 688.95 444.64 C 682.05 446.02 674.80 445.95 668.00 444.09 C 658.28 441.45 649.99 434.50 645.07 425.78 C 640.50 417.69 639.50 407.94 641.08 398.88 C 643.72 383.86 656.41 371.21 671.44 368.61 M 674.45 382.62 C 665.86 384.19 658.78 391.31 656.89 399.78 C 655.11 407.76 656.19 416.88 661.65 423.27 C 669.19 432.66 684.31 434.00 693.77 426.81 C 706.29 417.42 706.20 395.72 693.52 386.50 C 688.14 382.45 680.96 381.40 674.45 382.62 Z" />
<path fill="#15b0c4" opacity="1.00" d=" M 835.92 383.96 C 840.84 375.24 849.68 368.21 859.99 367.78 C 860.07 373.14 860.11 378.51 860.13 383.88 C 854.01 383.95 847.45 385.40 843.15 390.08 C 837.73 395.93 835.97 404.21 835.96 411.97 C 835.91 422.81 835.96 433.66 835.94 444.50 C 830.71 444.50 825.47 444.50 820.24 444.49 C 820.26 419.35 820.24 394.21 820.25 369.07 C 825.48 369.05 830.71 369.05 835.94 369.06 C 835.94 374.03 835.96 378.99 835.92 383.96 Z" />
<path fill="#15b0c4" opacity="1.00" d=" M 877.04 380.96 C 890.39 365.95 915.46 363.43 931.49 375.55 C 932.99 376.88 935.12 378.00 935.87 379.88 C 933.16 383.85 929.85 387.37 926.94 391.19 C 922.06 387.13 916.41 383.52 909.95 382.87 C 899.29 381.51 887.97 388.10 884.52 398.39 C 880.93 408.87 885.14 421.40 894.61 427.28 C 901.57 431.83 911.00 432.35 918.38 428.49 C 921.89 426.76 924.81 424.12 927.63 421.46 C 930.74 424.87 933.83 428.30 936.93 431.72 C 930.87 437.80 923.38 442.72 914.91 444.57 C 904.65 446.84 893.33 445.43 884.51 439.51 C 876.94 434.58 871.04 426.93 868.90 418.09 C 865.80 405.41 867.80 390.71 877.04 380.96 Z" />
<path fill="#15b0c4" opacity="1.00" d=" M 972.96 369.07 C 988.10 365.26 1006.10 370.66 1014.46 384.40 C 1019.94 393.18 1018.97 403.87 1018.99 413.75 C 999.51 413.76 980.04 413.73 960.56 413.77 C 961.21 418.44 963.20 423.04 966.99 426.01 C 977.79 435.02 995.85 433.73 1005.10 423.06 C 1008.07 426.38 1011.06 429.69 1014.06 432.99 C 1002.41 445.37 982.96 448.80 967.36 442.66 C 957.39 438.44 949.28 429.68 946.54 419.13 C 944.42 410.83 944.38 401.91 946.74 393.66 C 950.22 381.53 960.84 372.09 972.96 369.07 M 965.63 388.61 C 962.20 391.86 960.88 396.58 960.58 401.17 C 974.85 401.19 989.12 401.19 1003.40 401.18 C 1003.13 396.28 1002.01 391.12 998.37 387.58 C 989.64 378.82 974.06 380.02 965.63 388.61 Z" />
<path fill="#15b0c4" opacity="1.00" d=" M 732.31 369.06 C 737.56 369.05 742.81 369.05 748.06 369.06 C 748.09 383.39 747.99 397.72 748.10 412.04 C 748.22 418.40 750.04 425.76 756.00 429.11 C 764.59 433.64 776.35 430.78 781.80 422.71 C 784.55 418.72 785.21 413.73 785.20 408.99 C 785.17 395.68 785.19 382.37 785.18 369.06 C 790.43 369.05 795.68 369.05 800.94 369.06 C 800.94 394.21 800.95 419.36 800.94 444.50 C 795.69 444.49 790.44 444.50 785.19 444.50 C 785.18 440.00 785.15 435.50 785.24 431.01 C 781.33 437.62 775.00 442.84 767.50 444.73 C 757.82 447.06 746.60 444.81 739.64 437.37 C 734.28 431.68 732.41 423.63 732.34 416.02 C 732.26 400.37 732.33 384.72 732.31 369.06 Z" />
</g>
<g id="#97999bff">
</g>
</svg>
