<svg height="512pt" viewBox="0 0 512 512" width="512pt" xmlns="http://www.w3.org/2000/svg" xmlns:xlink="http://www.w3.org/1999/xlink"><path d="m512 256c0 141.386719-114.613281 256-256 256s-256-114.613281-256-256 114.613281-256 256-256 256 114.613281 256 256zm0 0" fill="url(#a)"/><g fill="#3282B8"><path d="m256 56c-34.207031 0-62.035156 27.828125-62.035156 62.035156 0 29.03125 20.054687 53.460938 47.035156 60.1875v262.777344c0 8.285156 6.714844 15 15 15s15-6.714844 15-15v-262.777344c26.980469-6.726562 47.035156-31.15625 47.035156-60.1875 0-34.207031-27.828125-62.035156-62.035156-62.035156zm0 94.066406c-17.664062 0-32.035156-14.371094-32.035156-32.03125 0-17.664062 14.371094-32.035156 32.035156-32.035156s32.035156 14.371094 32.035156 32.035156c0 17.660156-14.371094 32.03125-32.035156 32.03125zm0 0"/><path d="m133.035156 315.765625v-46.609375c26.980469-6.726562 47.03125-31.15625 47.03125-60.191406 0-34.203125-27.828125-62.03125-62.03125-62.03125-34.207031 0-62.035156 27.828125-62.035156 62.03125 0 29.035156 20.054688 53.464844 47.035156 60.191406v52.824219c0 3.976562 1.578125 7.792969 4.394532 10.605469l59.445312 59.445312c2.929688 2.929688 6.765625 4.394531 10.605469 4.394531 3.835937 0 7.675781-1.464843 10.605469-4.394531 5.859374-5.859375 5.859374-15.355469 0-21.214844zm-47.035156-106.800781c0-17.660156 14.371094-32.03125 32.035156-32.03125 17.664063 0 32.03125 14.371094 32.03125 32.03125 0 17.664062-14.371094 32.035156-32.03125 32.035156-17.664062 0-32.035156-14.371094-32.035156-32.035156zm0 0"/><path d="m456 208.964844c0-34.203125-27.828125-62.03125-62.035156-62.03125-34.203125 0-62.03125 27.828125-62.03125 62.03125 0 29.035156 20.050781 53.464844 47.03125 60.191406v46.609375l-55.050782 55.050781c-5.859374 5.859375-5.859374 15.355469 0 21.214844 2.929688 2.929688 6.769532 4.394531 10.605469 4.394531 3.839844 0 7.679688-1.464843 10.605469-4.394531l59.445312-59.445312c2.8125-2.8125 4.394532-6.628907 4.394532-10.605469v-52.824219c26.980468-6.726562 47.035156-31.15625 47.035156-60.191406zm-62.035156 32.035156c-17.660156 0-32.03125-14.371094-32.03125-32.035156 0-17.660156 14.371094-32.03125 32.03125-32.03125 17.664062 0 32.035156 14.371094 32.035156 32.03125 0 17.664062-14.371094 32.035156-32.035156 32.035156zm0 0"/></g></svg>