<svg id="eaefd485-b620-4355-9dab-fd73c3d9a8c1" data-name="Layer 4" xmlns="http://www.w3.org/2000/svg" xmlns:xlink="http://www.w3.org/1999/xlink" viewBox="0 0 817.49 272.58"><defs><style>.f1fb0a7d-5f7d-48de-afdd-279e6e091f23{fill:url(#b843efe3-b6cb-44ac-b4a1-286bcc340c3d);}.be5e4d4c-a190-4495-b559-346d76750034{fill:#bbe1fa;}</style><linearGradient id="b843efe3-b6cb-44ac-b4a1-286bcc340c3d" x1="312.36" y1="197.38" x2="535.47" y2="346.28" gradientUnits="userSpaceOnUse"><stop offset="0" stop-color="#bbe1fa"/><stop offset="0.21" stop-color="#81b9de"/><stop offset="0.4" stop-color="#5198c7"/><stop offset="0.5" stop-color="#3f8bbe"/><stop offset="0.71" stop-color="#79b3da"/><stop offset="0.9" stop-color="#a9d4f1"/><stop offset="1" stop-color="#bbe1fa"/></linearGradient></defs><path class="f1fb0a7d-5f7d-48de-afdd-279e6e091f23" d="M554.79,269a137.85,137.85,0,0,1-1.85,22.57,135.93,135.93,0,0,1-80.65,103.23,131,131,0,0,1-51.61,10.49,17.94,17.94,0,0,1-1.8-.06,130,130,0,0,1-47.1-9.3,5.71,5.71,0,0,1-3.1-7.47l14.81-35.74a5.7,5.7,0,0,1,7.08-3.23A90,90,0,0,0,419,354.37a10.7,10.7,0,0,0,1.38.06,91.69,91.69,0,0,0,32.49-5.88,87.15,87.15,0,0,0,50.57-49.18,5.72,5.72,0,0,0-5.33-7.79h-1.59a5.74,5.74,0,0,0-5.37,3.77,76.38,76.38,0,0,1-36.74,41.22,5.64,5.64,0,0,1-7.81-2.91l-11.42-27.25a5.72,5.72,0,0,1,2.41-7.15,35.37,35.37,0,0,0,9.18-7.68A35,35,0,0,0,455.07,269a15,15,0,0,0-.06-1.64,34.93,34.93,0,0,0-8.21-21,34.44,34.44,0,0,0-15-10.33A33.82,33.82,0,0,0,420,233.88a2.76,2.76,0,0,0-.64.05A35,35,0,0,0,385,267.31c0,.53,0,1.11,0,1.64a35,35,0,0,0,8.27,22.63,35.85,35.85,0,0,0,7.82,6.83,5.67,5.67,0,0,1,2.1,6.93L391.74,332.8a5.61,5.61,0,0,1-8.06,2.81,76.21,76.21,0,0,1-34.89-40.24,5.75,5.75,0,0,0-5.37-3.79H293.35a5.69,5.69,0,0,1-5.66-4.95A136.75,136.75,0,0,1,286.56,269c0-.59,0-1.11.05-1.7a130.61,130.61,0,0,1,1.86-21c10.6-64.44,65.76-113.61,132.21-113.61a131.37,131.37,0,0,1,44.17,7.59,5.72,5.72,0,0,1,3.39,7.58L453.1,184.52a5.69,5.69,0,0,1-6.84,3.3,93,93,0,0,0-25.85-3.65h-1c-37.25.39-69,22.78-81.8,54.31a5.73,5.73,0,0,0,5.31,7.85h.45a5.75,5.75,0,0,0,5.37-3.79,76,76,0,0,1,70.67-49.47H420a75,75,0,0,1,27.45,5.14,76.09,76.09,0,0,1,43.74,44.35,5.75,5.75,0,0,0,5.37,3.77H548a5.7,5.7,0,0,1,5.67,5,133.94,133.94,0,0,1,1.08,16C554.79,267.9,554.79,268.42,554.79,269Z" transform="translate(-11.93 -132.72)"/><path class="be5e4d4c-a190-4495-b559-346d76750034" d="M145.93,132.85c-74,0-134,61-134,136.17s60,136.18,134,136.18,134-61,134-136.18S219.94,132.85,145.93,132.85Zm0,216.44c-43.62,0-79-35.94-79-80.27s35.37-80.27,79-80.27,79,35.94,79,80.27S189.56,349.29,145.93,349.29Z" transform="translate(-11.93 -132.72)"/><path class="be5e4d4c-a190-4495-b559-346d76750034" d="M829.42,269.23a137.15,137.15,0,0,1-1.85,22.52,135.64,135.64,0,0,1-80.63,103l-.61.25a131,131,0,0,1-51,10.22,17.84,17.84,0,0,1-1.79-.06h-.06a130.23,130.23,0,0,1-52.29-11.52,136.57,136.57,0,0,1-79.74-116.88c0-.12,0-.24,0-.37V138.58a5.74,5.74,0,0,1,5.75-5.73h33.38a5.74,5.74,0,0,1,5.75,5.73v129h.07q0,1,0,2a81,81,0,0,0,3.09,22.23c7.11,25.22,26.08,45.77,50.83,55.88a91.53,91.53,0,0,0,33.21,6.78c.54,0,1.08,0,1.62,0a92,92,0,0,0,32-5.71c26.1-9.67,46.23-30.82,53.61-57a81,81,0,0,0,3.09-22.23q0-1,0-2a81.51,81.51,0,0,0-1.57-14.15,5.71,5.71,0,0,1,5.65-6.78h34.7a5.74,5.74,0,0,1,5.71,5,137,137,0,0,1,1.08,15.94C829.42,268.12,829.42,268.65,829.42,269.23Z" transform="translate(-11.93 -132.72)"/></svg>