<svg xmlns="http://www.w3.org/2000/svg" version="1.1" xmlnsXlink="http://www.w3.org/1999/xlink" xmlnssvgjs="http://svgjs.com/svgjs" width="512" height="512" x="0" y="0" viewBox="0 0 512 512" style="enable-background:new 0 0 512 512" xml:space="preserve" class=""><g><path fill="url(#a)" d="M512 256c0 141.387-114.613 256-256 256S0 397.387 0 256 114.613 0 256 0s256 114.613 256 256zm0 0" data-original="url(#a)" class=""></path><g fill="#fff"><path d="M167.133 440.98c-10.028 0-20.059-3.816-27.696-11.453l-56.964-56.964C75.074 365.163 71 355.327 71 344.866c0-10.465 4.074-20.3 11.473-27.695l119.629-119.629c15.27-15.273 40.12-15.273 55.39 0l39.875 39.875c5.86 5.86 5.86 15.355 0 21.215-5.855 5.855-15.351 5.855-21.21 0l-39.876-39.88c-3.574-3.573-9.394-3.573-12.969 0l-119.625 119.63a9.1 9.1 0 0 0-2.687 6.484c0 2.45.953 4.75 2.688 6.48l56.964 56.965c3.575 3.575 9.391 3.579 12.965 0l68.36-68.355c5.855-5.86 15.355-5.86 21.21 0 5.86 5.856 5.86 15.356 0 21.211l-68.355 68.36c-7.637 7.636-17.668 11.452-27.7 11.452zm0 0" fill="#3282B8" data-original="#ffffff" class=""></path><path d="M282.203 325.91c-10.027 0-20.058-3.816-27.695-11.453l-39.875-39.875c-5.86-5.86-5.86-15.355 0-21.215 5.855-5.855 15.355-5.855 21.21 0l39.88 39.88c3.574 3.573 9.39 3.573 12.965 0l119.628-119.63c1.73-1.73 2.684-4.031 2.684-6.48s-.953-4.754-2.684-6.485l-56.964-56.965c-3.575-3.574-9.391-3.574-12.97 0l-68.359 68.36c-5.855 5.855-15.351 5.855-21.21 0-5.86-5.86-5.86-15.356 0-21.215l68.359-68.36c15.27-15.269 40.117-15.269 55.39 0l56.965 56.965c7.399 7.399 11.473 17.235 11.473 27.7 0 10.46-4.074 20.297-11.473 27.695L309.898 314.457c-7.632 7.637-17.664 11.453-27.695 11.453zm0 0" fill="#3282B8" data-original="#ffffff" class=""></path></g></g></svg>