<svg xmlns="http://www.w3.org/2000/svg" version="1.1" xmlns:xlink="http://www.w3.org/1999/xlink" xmlns:svgjs="http://svgjs.com/svgjs" width="1440" height="560" preserveAspectRatio="none" viewBox="0 0 1440 560"><g mask="url(&quot;#SvgjsMask1020&quot;)" fill="none"><path d="M -1393.312690504902,324 C -1249.31,292.4 -961.31,153.2 -673.3126905049022,166 C -385.31,178.8 -241.31,407.6 46.68730949509779,388 C 334.69,368.4 488.02,61.2 766.6873094950978,68 C 1045.35,74.8 1305.34,351.2 1440,422" stroke="rgba(50, 130, 184, 0.15)" stroke-width="2"></path><path d="M -249.87149000198423,269 C -105.87,273 182.13,315.4 470.1285099980158,289 C 758.13,262.6 902.13,124 1190.1285099980157,137 C 1478.13,150 1860.15,334.8 1910.1285099980157,354 C 1960.1,373.2 1534.03,257.2 1440,233" stroke="rgba(50, 130, 184, 0.15)" stroke-width="2"></path><path d="M -1248.6376003303849,423 C -1104.64,388.8 -816.64,236.4 -528.6376003303848,252 C -240.64,267.6 -96.64,504.8 191.36239966961523,501 C 479.36,497.2 661.63,251.2 911.3623996696152,233 C 1161.09,214.8 1334.27,374.6 1440,410" stroke="rgba(50, 130, 184, 0.15)" stroke-width="2"></path></g><defs><mask id="SvgjsMask1020"><rect width="1440" height="560" fill="#ffffff"></rect></mask></defs></svg>