<?xml version="1.0" encoding="UTF-8"?>
<svg xmlns="http://www.w3.org/2000/svg" style="display: none;">
  <symbol id="b-discord" viewBox="0 0 640 512">
    <path d="M524.5 69.84a1.5 1.5 0 0 0 -.764-.7A485.1 485.1 0 0 0 404.1 32.03a1.816 1.816 0 0 0 -1.923 .91 337.5 337.5 0 0 0 -14.9 30.6 447.8 447.8 0 0 0 -134.4 0 309.5 309.5 0 0 0 -15.14-30.6 1.89 1.89 0 0 0 -1.924-.91A483.7 483.7 0 0 0 116.1 69.14a1.712 1.712 0 0 0 -.788 .676C39.07 183.7 18.19 294.7 28.43 404.4a2.016 2.016 0 0 0 .765 1.375A487.7 487.7 0 0 0 176 479.9a1.9 1.9 0 0 0 2.063-.676A348.2 348.2 0 0 0 208.1 430.4a1.86 1.86 0 0 0 -1.019-2.588 321.2 321.2 0 0 1 -45.87-21.85 1.885 1.885 0 0 1 -.185-3.126c3.082-2.309 6.166-4.711 9.109-7.137a1.819 1.819 0 0 1 1.9-.256c96.23 43.92 200.4 43.92 295.5 0a1.812 1.812 0 0 1 1.924 .233c2.944 2.426 6.027 4.851 9.132 7.16a1.884 1.884 0 0 1 -.162 3.126 301.4 301.4 0 0 1 -45.89 21.83 1.875 1.875 0 0 0 -1 2.611 391.1 391.1 0 0 0 30.01 48.81 1.864 1.864 0 0 0 2.063 .7A486 486 0 0 0 610.7 405.7a1.882 1.882 0 0 0 .765-1.352C623.7 277.6 590.9 167.5 524.5 69.84zM222.5 337.6c-28.97 0-52.84-26.59-52.84-59.24S193.1 219.1 222.5 219.1c29.67 0 53.31 26.82 52.84 59.24C275.3 310.1 251.9 337.6 222.5 337.6zm195.4 0c-28.97 0-52.84-26.59-52.84-59.24S388.4 219.1 417.9 219.1c29.67 0 53.31 26.82 52.84 59.24C470.7 310.1 447.5 337.6 417.9 337.6z"/>
  </symbol>
  <symbol id="b-github" viewBox="0 0 496 512">
    <path d="M165.9 397.4c0 2-2.3 3.6-5.2 3.6-3.3 .3-5.6-1.3-5.6-3.6 0-2 2.3-3.6 5.2-3.6 3-.3 5.6 1.3 5.6 3.6zm-31.1-4.5c-.7 2 1.3 4.3 4.3 4.9 2.6 1 5.6 0 6.2-2s-1.3-4.3-4.3-5.2c-2.6-.7-5.5 .3-6.2 2.3zm44.2-1.7c-2.9 .7-4.9 2.6-4.6 4.9 .3 2 2.9 3.3 5.9 2.6 2.9-.7 4.9-2.6 4.6-4.6-.3-1.9-3-3.2-5.9-2.9zM244.8 8C106.1 8 0 113.3 0 252c0 110.9 69.8 205.8 169.5 239.2 12.8 2.3 17.3-5.6 17.3-12.1 0-6.2-.3-40.4-.3-61.4 0 0-70 15-84.7-29.8 0 0-11.4-29.1-27.8-36.6 0 0-22.9-15.7 1.6-15.4 0 0 24.9 2 38.6 25.8 21.9 38.6 58.6 27.5 72.9 20.9 2.3-16 8.8-27.1 16-33.7-55.9-6.2-112.3-14.3-112.3-110.5 0-27.5 7.6-41.3 23.6-58.9-2.6-6.5-11.1-33.3 2.6-67.9 20.9-6.5 69 27 69 27 20-5.6 41.5-8.5 62.8-8.5s42.8 2.9 62.8 8.5c0 0 48.1-33.6 69-27 13.7 34.7 5.2 61.4 2.6 67.9 16 17.7 25.8 31.5 25.8 58.9 0 96.5-58.9 104.2-114.8 110.5 9.2 7.9 17 22.9 17 46.4 0 33.7-.3 75.4-.3 83.6 0 6.5 4.6 14.4 17.3 12.1C428.2 457.8 496 362.9 496 252 496 113.3 383.5 8 244.8 8zM97.2 352.9c-1.3 1-1 3.3 .7 5.2 1.6 1.6 3.9 2.3 5.2 1 1.3-1 1-3.3-.7-5.2-1.6-1.6-3.9-2.3-5.2-1zm-10.8-8.1c-.7 1.3 .3 2.9 2.3 3.9 1.6 1 3.6 .7 4.3-.7 .7-1.3-.3-2.9-2.3-3.9-2-.6-3.6-.3-4.3 .7zm32.4 35.6c-1.6 1.3-1 4.3 1.3 6.2 2.3 2.3 5.2 2.6 6.5 1 1.3-1.3 .7-4.3-1.3-6.2-2.2-2.3-5.2-2.6-6.5-1zm-11.4-14.7c-1.6 1-1.6 3.6 0 5.9 1.6 2.3 4.3 3.3 5.6 2.3 1.6-1.3 1.6-3.9 0-6.2-1.4-2.3-4-3.3-5.6-2z"/>
  </symbol>
  <symbol id="b-linkedin-in" viewBox="0 0 448 512">
    <path d="M100.3 448H7.4V148.9h92.88zM53.79 108.1C24.09 108.1 0 83.5 0 53.8a53.79 53.79 0 0 1 107.6 0c0 29.7-24.1 54.3-53.79 54.3zM447.9 448h-92.68V302.4c0-34.7-.7-79.2-48.29-79.2-48.29 0-55.69 37.7-55.69 76.7V448h-92.78V148.9h89.08v40.8h1.3c12.4-23.5 42.69-48.3 87.88-48.3 94 0 111.3 61.9 111.3 142.3V448z"/>
  </symbol>
  <symbol id="d-angle-down" viewBox="0 0 384 512">
    <path d="M192 384c-8.188 0-16.38-3.125-22.62-9.375l-160-160c-12.5-12.5-12.5-32.75 0-45.25s32.75-12.5 45.25 0L192 306.8l137.4-137.4c12.5-12.5 32.75-12.5 45.25 0s12.5 32.75 0 45.25l-160 160C208.4 380.9 200.2 384 192 384z" class="fa-secondary"/>
    <path d="" class="fa-primary"/>
  </symbol>
  <symbol id="d-angle-left" viewBox="0 0 256 512">
    <path d="M192 448c-8.188 0-16.38-3.125-22.62-9.375l-160-160c-12.5-12.5-12.5-32.75 0-45.25l160-160c12.5-12.5 32.75-12.5 45.25 0s12.5 32.75 0 45.25L77.25 256l137.4 137.4c12.5 12.5 12.5 32.75 0 45.25C208.4 444.9 200.2 448 192 448z" class="fa-secondary"/>
    <path d="" class="fa-primary"/>
  </symbol>
  <symbol id="d-angle-right" viewBox="0 0 256 512">
    <path d="M64 448c-8.188 0-16.38-3.125-22.62-9.375c-12.5-12.5-12.5-32.75 0-45.25L178.8 256L41.38 118.6c-12.5-12.5-12.5-32.75 0-45.25s32.75-12.5 45.25 0l160 160c12.5 12.5 12.5 32.75 0 45.25l-160 160C80.38 444.9 72.19 448 64 448z" class="fa-secondary"/>
    <path d="" class="fa-primary"/>
  </symbol>
  <symbol id="d-arrow-down-wide-short" viewBox="0 0 576 512">
    <path d="M416 288h-95.1c-17.67 0-32 14.33-32 32s14.33 32 32 32H416c17.67 0 32-14.33 32-32S433.7 288 416 288zM544 32h-223.1c-17.67 0-32 14.33-32 32s14.33 32 32 32H544c17.67 0 32-14.33 32-32S561.7 32 544 32zM352 416h-32c-17.67 0-32 14.33-32 32s14.33 32 32 32h32c17.67 0 31.1-14.33 31.1-32S369.7 416 352 416zM480 160h-159.1c-17.67 0-32 14.33-32 32s14.33 32 32 32H480c17.67 0 32-14.33 32-32S497.7 160 480 160z" class="fa-secondary"/>
    <path d="M237.6 328.7c13.03 11.95 13.9 32.22 1.969 45.27l-87.1 96.09c-12.12 13.26-35.06 13.26-47.19 0l-87.1-96.09c-11.94-13.05-11.06-33.31 1.969-45.27c6.141-5.633 13.89-8.414 21.61-8.414c8.672 0 17.3 3.5 23.61 10.38l32.4 35.4V64.03C96 46.33 110.3 32 128 32S160 46.33 160 64.03v302l32.4-35.4C204.4 317.7 224.6 316.8 237.6 328.7z" class="fa-primary"/>
  </symbol>
  <symbol id="d-arrow-up-short-wide" viewBox="0 0 576 512">
    <path d="M544 416h-223.1c-17.67 0-32 14.33-32 32s14.33 32 32 32H544c17.67 0 32-14.33 32-32S561.7 416 544 416zM320 96h32c17.67 0 31.1-14.33 31.1-32s-14.33-32-31.1-32h-32c-17.67 0-32 14.33-32 32S302.3 96 320 96zM320 224H416c17.67 0 32-14.33 32-32s-14.33-32-32-32h-95.1c-17.67 0-32 14.33-32 32S302.3 224 320 224zM320 352H480c17.67 0 32-14.33 32-32s-14.33-32-32-32h-159.1c-17.67 0-32 14.33-32 32S302.3 352 320 352z" class="fa-secondary"/>
    <path d="M239.6 138c11.94 13.05 11.06 33.31-1.969 45.27C224.6 195.3 204.4 194.3 192.4 181.3L160 145.9v302C160 465.7 145.7 480 128 480S96 465.7 96 447.1V145.9L63.6 181.3c-6.312 6.883-14.94 10.39-23.61 10.39c-7.719 0-15.47-2.785-21.61-8.414C5.35 171.4 4.475 151.1 16.41 138l87.1-96.09c12.12-13.26 35.06-13.26 47.19 0L239.6 138z" class="fa-primary"/>
  </symbol>
  <symbol id="d-brightness" viewBox="0 0 512 512">
    <path d="M224 32C224 14.33 238.3 0 256 0C273.7 0 288 14.33 288 32V80C288 97.67 273.7 112 256 112C238.3 112 224 97.67 224 80V32zM80 224C97.67 224 112 238.3 112 256C112 273.7 97.67 288 80 288H32C14.33 288 0 273.7 0 256C0 238.3 14.33 224 32 224H80zM480 224C497.7 224 512 238.3 512 256C512 273.7 497.7 288 480 288H432C414.3 288 400 273.7 400 256C400 238.3 414.3 224 432 224H480zM256 512C238.3 512 224 497.7 224 480V432C224 414.3 238.3 400 256 400C273.7 400 288 414.3 288 432V480C288 497.7 273.7 512 256 512zM73.37 438.6C60.88 426.1 60.88 405.9 73.37 393.4L105.4 361.4C117.9 348.9 138.1 348.9 150.6 361.4C163.1 373.9 163.1 394.1 150.6 406.6L118.6 438.6C106.1 451.1 85.87 451.1 73.37 438.6zM393.4 73.37C405.9 60.88 426.1 60.88 438.6 73.37C451.1 85.87 451.1 106.1 438.6 118.6L406.6 150.6C394.1 163.1 373.9 163.1 361.4 150.6C348.9 138.1 348.9 117.9 361.4 105.4L393.4 73.37zM438.6 438.6C426.1 451.1 405.9 451.1 393.4 438.6L361.4 406.6C348.9 394.1 348.9 373.9 361.4 361.4C373.9 348.9 394.1 348.9 406.6 361.4L438.6 393.4C451.1 405.9 451.1 426.1 438.6 438.6zM73.37 118.6C60.88 106.1 60.88 85.87 73.37 73.37C85.87 60.88 106.1 60.88 118.6 73.37L150.6 105.4C163.1 117.9 163.1 138.1 150.6 150.6C138.1 163.1 117.9 163.1 105.4 150.6L73.37 118.6z" class="fa-secondary"/>
    <path d="M352 256C352 309 309 352 256 352C202.1 352 160 309 160 256C160 202.1 202.1 160 256 160C309 160 352 202.1 352 256z" class="fa-primary"/>
  </symbol>
  <symbol id="d-download" viewBox="0 0 512 512">
    <path d="M480 352h-133.5l-45.25 45.25C289.2 409.3 273.1 416 256 416s-33.16-6.656-45.25-18.75L165.5 352H32c-17.67 0-32 14.33-32 32v96c0 17.67 14.33 32 32 32h448c17.67 0 32-14.33 32-32v-96C512 366.3 497.7 352 480 352zM432 456c-13.2 0-24-10.8-24-24c0-13.2 10.8-24 24-24s24 10.8 24 24C456 445.2 445.2 456 432 456z" class="fa-secondary"/>
    <path d="M105.4 246.6c-12.49-12.5-12.49-32.75 0-45.25c12.5-12.5 32.76-12.5 45.25 0L224 274.8V32c0-17.67 14.33-32 32-32c17.67 0 32 14.33 32 32v242.8l73.38-73.38c12.49-12.5 32.75-12.5 45.25 0c12.49 12.5 12.49 32.75 0 45.25l-128 128C272.4 380.9 264.2 384 256 384s-16.38-3.125-22.62-9.375L105.4 246.6z" class="fa-primary"/>
  </symbol>
  <symbol id="d-moon" viewBox="0 0 512 512">
    <path d="" class="fa-secondary"/>
    <path d="M32 256c0-123.8 100.3-224 223.8-224c11.36 0 29.7 1.668 40.9 3.746c9.616 1.777 11.75 14.63 3.279 19.44C245 86.5 211.2 144.6 211.2 207.8c0 109.7 99.71 193 208.3 172.3c9.561-1.805 16.28 9.324 10.11 16.95C387.9 448.6 324.8 480 255.8 480C132.1 480 32 379.6 32 256z" class="fa-primary"/>
  </symbol>
  <symbol id="d-xmark" viewBox="0 0 320 512">
    <path d="M310.6 361.4c12.5 12.5 12.5 32.75 0 45.25C304.4 412.9 296.2 416 288 416s-16.38-3.125-22.62-9.375L160 301.3L54.63 406.6C48.38 412.9 40.19 416 32 416S15.63 412.9 9.375 406.6c-12.5-12.5-12.5-32.75 0-45.25l105.4-105.4L9.375 150.6c-12.5-12.5-12.5-32.75 0-45.25s32.75-12.5 45.25 0L160 210.8l105.4-105.4c12.5-12.5 32.75-12.5 45.25 0s12.5 32.75 0 45.25l-105.4 105.4L310.6 361.4z" class="fa-secondary"/>
    <path d="" class="fa-primary"/>
  </symbol>
  <symbol id="l-check" viewBox="0 0 448 512">
    <path d="M443.3 100.7C449.6 106.9 449.6 117.1 443.3 123.3L171.3 395.3C165.1 401.6 154.9 401.6 148.7 395.3L4.686 251.3C-1.562 245.1-1.562 234.9 4.686 228.7C10.93 222.4 21.06 222.4 27.31 228.7L160 361.4L420.7 100.7C426.9 94.44 437.1 94.44 443.3 100.7H443.3z"/>
  </symbol>
  <symbol id="l-clipboard-check" viewBox="0 0 384 512">
    <path d="M320 64c-8.844 0-16 7.156-16 16S311.2 96 320 96c17.64 0 32 14.34 32 32v320c0 17.66-14.36 32-32 32H64c-17.64 0-32-14.34-32-32V128c0-17.66 14.36-32 32-32c8.844 0 16-7.156 16-16S72.84 64 64 64C28.7 64 0 92.72 0 128v320c0 35.28 28.7 64 64 64h256c35.3 0 64-28.72 64-64V128C384 92.72 355.3 64 320 64zM112 128h160C280.8 128 288 120.8 288 112S280.8 96 272 96h-24.88C252.6 86.55 256 75.72 256 64c0-35.35-28.65-64-64-64S128 28.65 128 64c0 11.72 3.379 22.55 8.877 32H112C103.2 96 96 103.2 96 112S103.2 128 112 128zM192 32c17.64 0 32 14.36 32 32s-14.36 32-32 32S160 81.64 160 64S174.4 32 192 32zM84.69 299.3l64 64C151.8 366.4 155.9 368 160 368s8.188-1.562 11.31-4.688l128-128c6.25-6.25 6.25-16.38 0-22.62s-16.38-6.25-22.62 0L160 329.4L107.3 276.7c-6.25-6.25-16.38-6.25-22.62 0S78.44 293.1 84.69 299.3z"/>
  </symbol>
  <symbol id="l-floppy-disk" viewBox="0 0 448 512">
    <path d="M350.1 55.44C334.9 40.33 314.9 32 293.5 32H80C35.88 32 0 67.89 0 112v288C0 444.1 35.88 480 80 480h288c44.13 0 80-35.89 80-80V186.5c0-21.38-8.312-41.47-23.44-56.58L350.1 55.44zM96 64h192v96H96V64zM416 400c0 26.47-21.53 48-48 48h-288C53.53 448 32 426.5 32 400v-288c0-20.83 13.42-38.43 32-45.05V160c0 17.67 14.33 32 32 32h192c17.67 0 32-14.33 32-32V72.02c2.664 1.758 5.166 3.771 7.438 6.043l74.5 74.5C411 161.6 416 173.7 416 186.5V400zM224 240c-44.13 0-80 35.89-80 80s35.88 80 80 80s80-35.89 80-80S268.1 240 224 240zM224 368c-26.47 0-48-21.53-48-48S197.5 272 224 272s48 21.53 48 48S250.5 368 224 368z"/>
  </symbol>
  <symbol id="l-info" viewBox="0 0 192 512">
    <path d="M96 96c17.67 0 32-14.33 32-32s-14.33-31.99-32-31.99S64 46.33 64 64S78.33 96 96 96zM176 448h-64V176C112 167.2 104.8 160 96 160H48C39.16 160 32 167.2 32 176S39.16 192 48 192h32v256h-64C7.156 448 0 455.2 0 464S7.156 480 16 480h160c8.844 0 16-7.156 16-16S184.8 448 176 448z"/>
  </symbol>
  <symbol id="l-minus" viewBox="0 0 448 512">
    <path d="M432 256C432 264.8 424.8 272 416 272H32c-8.844 0-16-7.15-16-15.99C16 247.2 23.16 240 32 240h384C424.8 240 432 247.2 432 256z"/>
  </symbol>
  <symbol id="l-pen" viewBox="0 0 512 512">
    <path d="M495 59.6C516.9 81.47 516.9 116.9 495 138.8L182.3 451.6C170.9 462.9 156.9 471.2 141.5 475.8L20.52 511.4C14.9 513 8.827 511.5 4.687 507.3C.5466 503.2-1.002 497.1 .6506 491.5L36.23 370.5C40.76 355.1 49.09 341.1 60.44 329.7L373.2 16.97C395.1-4.897 430.5-4.897 452.4 16.97L495 59.6zM341 94.4L417.6 170.1L472.4 116.2C481.8 106.8 481.8 91.6 472.4 82.23L429.8 39.6C420.4 30.23 405.2 30.23 395.8 39.6L341 94.4zM318.4 117L83.07 352.4C75.5 359.9 69.95 369.3 66.93 379.6L39.63 472.4L132.4 445.1C142.7 442.1 152.1 436.5 159.6 428.9L394.1 193.6L318.4 117z"/>
  </symbol>
  <symbol id="l-photo-film" viewBox="0 0 640 512">
    <path d="M288 120C301.3 120 312 109.3 312 96s-10.74-24-24-24C274.7 72 264 82.75 264 96S274.7 120 288 120zM576 0H256C220.7 0 192 28.65 192 64v224c0 35.35 28.65 64 64 64h320c35.35 0 64-28.65 64-64V64C640 28.65 611.3 0 576 0zM608 288c0 17.64-14.36 32-32 32H256c-17.64 0-32-14.36-32-32V64c0-17.64 14.36-32 32-32h320c17.64 0 32 14.36 32 32V288zM474.6 107.9c-11.28-15.81-38.5-15.94-49.1-.0313l-44.03 61.43l-6.969-8.941c-11.44-14.46-36.97-14.56-48.4 .0313L262.2 240.8C255 249.9 254 262.3 259.5 272.3C264.8 281.1 275.1 288 286.4 288h259.2c11 0 21.17-5.805 26.54-15.09c0-.0313-.0313 .0313 0 0c5.656-9.883 5.078-21.84-1.578-31.15L474.6 107.9zM290.2 255.9l58.25-75.61l20.09 25.66c4.348 5.545 17.6 10.65 25.59-.5332l54.44-78.75l92.68 129.2H290.2zM496 384c-8.836 0-16 7.162-16 16V448c0 17.67-14.33 32-32 32h-32v-80c0-8.838-7.164-16-16-16S384 391.2 384 400V480H128V192h16C152.8 192 160 184.8 160 176C160 167.2 152.8 160 144 160H64C28.65 160 0 188.7 0 224v224c0 35.35 28.65 64 64 64h384c35.35 0 64-28.65 64-64v-48C512 391.2 504.8 384 496 384zM96 480H64c-17.64 0-32-14.36-32-32v-32h64V480zM96 384H32V288h64V384zM96 256H32V224c0-17.64 14.36-32 32-32h32V256z"/>
  </symbol>
  <symbol id="l-pipe" viewBox="0 0 64 512">
    <path d="M48 16v480c0 8.832-7.166 16-16 16s-16-7.168-16-16v-480C16 7.166 23.17 0 32 0S48 7.166 48 16z"/>
  </symbol>
  <symbol id="l-plus" viewBox="0 0 448 512">
    <path d="M432 256C432 264.8 424.8 272 416 272h-176V448c0 8.844-7.156 16.01-16 16.01S208 456.8 208 448V272H32c-8.844 0-16-7.15-16-15.99C16 247.2 23.16 240 32 240h176V64c0-8.844 7.156-15.99 16-15.99S240 55.16 240 64v176H416C424.8 240 432 247.2 432 256z"/>
  </symbol>
  <symbol id="l-trash" viewBox="0 0 448 512">
    <path d="M432 64C440.8 64 448 71.16 448 80C448 88.84 440.8 96 432 96H413.7L388.2 452.6C385.9 486.1 357.1 512 324.4 512H123.6C90.01 512 62.15 486.1 59.75 452.6L34.29 96H16C7.164 96 0 88.84 0 80C0 71.16 7.164 64 16 64H111.1L137 22.56C145.8 8.526 161.2 0 177.7 0H270.3C286.8 0 302.2 8.526 310.1 22.56L336.9 64H432zM177.7 32C172.2 32 167.1 34.84 164.2 39.52L148.9 64H299.1L283.8 39.52C280.9 34.84 275.8 32 270.3 32H177.7zM381.6 96H66.37L91.67 450.3C92.87 467 106.8 480 123.6 480H324.4C341.2 480 355.1 467 356.3 450.3L381.6 96z"/>
  </symbol>
  <symbol id="l-triangle-exclamation" viewBox="0 0 512 512">
    <path d="M256 360c-13.25 0-23.1 10.74-23.1 24c0 13.25 10.75 24 23.1 24c13.25 0 23.1-10.75 23.1-24C280 370.7 269.3 360 256 360zM256 320c8.843 0 15.1-7.156 15.1-16V160c0-8.844-7.155-16-15.1-16S240 151.2 240 160v144C240 312.8 247.2 320 256 320zM504.3 397.3L304.5 59.38C294.4 42.27 276.2 32.03 256 32C235.8 32 217.7 42.22 207.5 59.36l-199.9 338c-10.05 16.97-10.2 37.34-.4218 54.5C17.29 469.5 35.55 480 56.1 480h399.9c20.51 0 38.75-10.53 48.81-28.17C514.6 434.7 514.4 414.3 504.3 397.3zM476.1 435.1C472.7 443.5 464.8 448 455.1 448H56.1c-8.906 0-16.78-4.484-21.08-12c-4.078-7.156-4.015-15.3 .1562-22.36L235.1 75.66C239.4 68.36 247.2 64 256 64c0 0-.0156 0 0 0c8.765 .0156 16.56 4.359 20.86 11.64l199.9 338C480.1 420.7 481.1 428.8 476.1 435.1z"/>
  </symbol>
  <symbol id="l-wifi-slash" viewBox="0 0 640 512">
    <path d="M398.1 236.1c38.55 12.27 73.61 33.56 102.4 63.05C503.7 302.4 507.8 304 512 304c4.031 0 8.062-1.5 11.19-4.562c6.312-6.156 6.438-16.31 .25-22.62c-47.96-49.08-111.1-78.17-179.7-83.66L398.1 236.1zM320 64c111.9 0 218.5 44.84 292.4 123C615.5 190.3 619.8 192 624 192c3.938 0 7.906-1.438 11-4.375c6.406-6.062 6.688-16.19 .625-22.62C555.7 80.47 440.7 32 319.1 32C268.9 32 218.9 41.19 172.1 57.65l29.9 23.6C239.8 70.05 279.5 64 320 64zM4.369 165c-6.062 6.438-5.781 16.56 .625 22.62C11.43 193.7 21.53 193.4 27.62 187c14.73-15.57 31.06-29.42 48.17-42.26l-25.89-20.44C33.86 136.9 18.4 150.2 4.369 165zM116.6 276.8C110.4 283.1 110.5 293.3 116.8 299.4c6.375 6.219 16.5 6.031 22.62-.25c20.26-20.73 43.71-37.21 69.17-49.59l-27.66-21.84C157.5 240.8 135.8 257.2 116.6 276.8zM344.5 356.9c-7.559-3.141-15.84-4.925-24.54-4.925c-35.35 0-64 28.66-64 64.01s28.66 64.01 64 64.01s64-28.66 64-64.01c0-14.29-4.838-27.34-12.75-37.99L344.5 356.9zM320 448c-17.64 0-32-14.36-32-32s14.36-32 32-32s32 14.36 32 32S337.6 448 320 448zM25.92 3.422c-6.938-5.453-17-4.25-22.48 2.641c-5.469 6.938-4.281 17 2.641 22.48l608 480C617 510.9 620.5 512 623.1 512c4.734 0 9.422-2.094 12.58-6.078c5.469-6.938 4.281-17-2.641-22.48L25.92 3.422z"/>
  </symbol>
  <symbol id="l-xmark" viewBox="0 0 320 512">
    <path d="M315.3 411.3c-6.253 6.253-16.37 6.253-22.63 0L160 278.6l-132.7 132.7c-6.253 6.253-16.37 6.253-22.63 0c-6.253-6.253-6.253-16.37 0-22.63L137.4 256L4.69 123.3c-6.253-6.253-6.253-16.37 0-22.63c6.253-6.253 16.37-6.253 22.63 0L160 233.4l132.7-132.7c6.253-6.253 16.37-6.253 22.63 0c6.253 6.253 6.253 16.37 0 22.63L182.6 256l132.7 132.7C321.6 394.9 321.6 405.1 315.3 411.3z"/>
  </symbol>
  <symbol id="r-angle-down" viewBox="0 0 384 512">
    <path d="M360.5 217.5l-152 143.1C203.9 365.8 197.9 368 192 368s-11.88-2.188-16.5-6.562L23.5 217.5C13.87 208.3 13.47 193.1 22.56 183.5C31.69 173.8 46.94 173.5 56.5 182.6L192 310.9l135.5-128.4c9.562-9.094 24.75-8.75 33.94 .9375C370.5 193.1 370.1 208.3 360.5 217.5z"/>
  </symbol>
  <symbol id="r-arrows-rotate" viewBox="0 0 512 512">
    <path d="M454.7 288.1c-12.78-3.75-26.06 3.594-29.75 16.31C403.3 379.9 333.8 432 255.1 432c-66.53 0-126.8-38.28-156.5-96h100.4c13.25 0 24-10.75 24-24S213.2 288 199.9 288h-160c-13.25 0-24 10.75-24 24v160c0 13.25 10.75 24 24 24s24-10.75 24-24v-102.1C103.7 436.4 176.1 480 255.1 480c99 0 187.4-66.31 215.1-161.3C474.8 305.1 467.4 292.7 454.7 288.1zM472 16C458.8 16 448 26.75 448 40v102.1C408.3 75.55 335.8 32 256 32C157 32 68.53 98.31 40.91 193.3C37.19 206 44.5 219.3 57.22 223c12.84 3.781 26.09-3.625 29.75-16.31C108.7 132.1 178.2 80 256 80c66.53 0 126.8 38.28 156.5 96H312C298.8 176 288 186.8 288 200S298.8 224 312 224h160c13.25 0 24-10.75 24-24v-160C496 26.75 485.3 16 472 16z"/>
  </symbol>
  <symbol id="s-arrow-right" viewBox="0 0 448 512">
    <path d="M438.6 278.6l-160 160C272.4 444.9 264.2 448 256 448s-16.38-3.125-22.62-9.375c-12.5-12.5-12.5-32.75 0-45.25L338.8 288H32C14.33 288 .0016 273.7 .0016 256S14.33 224 32 224h306.8l-105.4-105.4c-12.5-12.5-12.5-32.75 0-45.25s32.75-12.5 45.25 0l160 160C451.1 245.9 451.1 266.1 438.6 278.6z"/>
  </symbol>
  <symbol id="s-bolt" viewBox="0 0 384 512">
    <path d="M240.5 224H352C365.3 224 377.3 232.3 381.1 244.7C386.6 257.2 383.1 271.3 373.1 280.1L117.1 504.1C105.8 513.9 89.27 514.7 77.19 505.9C65.1 497.1 60.7 481.1 66.59 467.4L143.5 288H31.1C18.67 288 6.733 279.7 2.044 267.3C-2.645 254.8 .8944 240.7 10.93 231.9L266.9 7.918C278.2-1.92 294.7-2.669 306.8 6.114C318.9 14.9 323.3 30.87 317.4 44.61L240.5 224z"/>
  </symbol>
  <symbol id="s-calendar" viewBox="0 0 448 512">
    <path d="M96 32C96 14.33 110.3 0 128 0C145.7 0 160 14.33 160 32V64H288V32C288 14.33 302.3 0 320 0C337.7 0 352 14.33 352 32V64H400C426.5 64 448 85.49 448 112V160H0V112C0 85.49 21.49 64 48 64H96V32zM448 464C448 490.5 426.5 512 400 512H48C21.49 512 0 490.5 0 464V192H448V464z"/>
  </symbol>
  <symbol id="s-cloud-arrow-up" viewBox="0 0 640 512">
    <path d="M144 480C64.47 480 0 415.5 0 336C0 273.2 40.17 219.8 96.2 200.1C96.07 197.4 96 194.7 96 192C96 103.6 167.6 32 256 32C315.3 32 367 64.25 394.7 112.2C409.9 101.1 428.3 96 448 96C501 96 544 138.1 544 192C544 204.2 541.7 215.8 537.6 226.6C596 238.4 640 290.1 640 352C640 422.7 582.7 480 512 480H144zM223 263C213.7 272.4 213.7 287.6 223 296.1C232.4 306.3 247.6 306.3 256.1 296.1L296 257.9V392C296 405.3 306.7 416 320 416C333.3 416 344 405.3 344 392V257.9L383 296.1C392.4 306.3 407.6 306.3 416.1 296.1C426.3 287.6 426.3 272.4 416.1 263L336.1 183C327.6 173.7 312.4 173.7 303 183L223 263z"/>
  </symbol>
  <symbol id="s-exclamation" viewBox="0 0 128 512">
    <path d="M64 352c17.69 0 32-14.32 32-31.1V64.01c0-17.67-14.31-32.01-32-32.01S32 46.34 32 64.01v255.1C32 337.7 46.31 352 64 352zM64 400c-22.09 0-40 17.91-40 40s17.91 39.1 40 39.1s40-17.9 40-39.1S86.09 400 64 400z"/>
  </symbol>
  <symbol id="s-globe" viewBox="0 0 512 512">
    <path d="M352 256C352 278.2 350.8 299.6 348.7 320H163.3C161.2 299.6 159.1 278.2 159.1 256C159.1 233.8 161.2 212.4 163.3 192H348.7C350.8 212.4 352 233.8 352 256zM503.9 192C509.2 212.5 512 233.9 512 256C512 278.1 509.2 299.5 503.9 320H380.8C382.9 299.4 384 277.1 384 256C384 234 382.9 212.6 380.8 192H503.9zM493.4 160H376.7C366.7 96.14 346.9 42.62 321.4 8.442C399.8 29.09 463.4 85.94 493.4 160zM344.3 160H167.7C173.8 123.6 183.2 91.38 194.7 65.35C205.2 41.74 216.9 24.61 228.2 13.81C239.4 3.178 248.7 0 256 0C263.3 0 272.6 3.178 283.8 13.81C295.1 24.61 306.8 41.74 317.3 65.35C328.8 91.38 338.2 123.6 344.3 160H344.3zM18.61 160C48.59 85.94 112.2 29.09 190.6 8.442C165.1 42.62 145.3 96.14 135.3 160H18.61zM131.2 192C129.1 212.6 127.1 234 127.1 256C127.1 277.1 129.1 299.4 131.2 320H8.065C2.8 299.5 0 278.1 0 256C0 233.9 2.8 212.5 8.065 192H131.2zM194.7 446.6C183.2 420.6 173.8 388.4 167.7 352H344.3C338.2 388.4 328.8 420.6 317.3 446.6C306.8 470.3 295.1 487.4 283.8 498.2C272.6 508.8 263.3 512 255.1 512C248.7 512 239.4 508.8 228.2 498.2C216.9 487.4 205.2 470.3 194.7 446.6H194.7zM190.6 503.6C112.2 482.9 48.59 426.1 18.61 352H135.3C145.3 415.9 165.1 469.4 190.6 503.6V503.6zM321.4 503.6C346.9 469.4 366.7 415.9 376.7 352H493.4C463.4 426.1 399.8 482.9 321.4 503.6V503.6z"/>
  </symbol>
  <symbol id="s-play" viewBox="0 0 384 512">
    <path d="M361 215C375.3 223.8 384 239.3 384 256C384 272.7 375.3 288.2 361 296.1L73.03 472.1C58.21 482 39.66 482.4 24.52 473.9C9.377 465.4 0 449.4 0 432V80C0 62.64 9.377 46.63 24.52 38.13C39.66 29.64 58.21 29.99 73.03 39.04L361 215z"/>
  </symbol>
  <symbol id="s-sort" viewBox="0 0 320 512">
    <path d="M27.66 224h264.7c24.6 0 36.89-29.78 19.54-47.12l-132.3-136.8c-5.406-5.406-12.47-8.107-19.53-8.107c-7.055 0-14.09 2.701-19.45 8.107L8.119 176.9C-9.229 194.2 3.055 224 27.66 224zM292.3 288H27.66c-24.6 0-36.89 29.77-19.54 47.12l132.5 136.8C145.9 477.3 152.1 480 160 480c7.053 0 14.12-2.703 19.53-8.109l132.3-136.8C329.2 317.8 316.9 288 292.3 288z"/>
  </symbol>
  <symbol id="s-trash-can" viewBox="0 0 448 512">
    <path d="M135.2 17.69C140.6 6.848 151.7 0 163.8 0H284.2C296.3 0 307.4 6.848 312.8 17.69L320 32H416C433.7 32 448 46.33 448 64C448 81.67 433.7 96 416 96H32C14.33 96 0 81.67 0 64C0 46.33 14.33 32 32 32H128L135.2 17.69zM31.1 128H416V448C416 483.3 387.3 512 352 512H95.1C60.65 512 31.1 483.3 31.1 448V128zM111.1 208V432C111.1 440.8 119.2 448 127.1 448C136.8 448 143.1 440.8 143.1 432V208C143.1 199.2 136.8 192 127.1 192C119.2 192 111.1 199.2 111.1 208zM207.1 208V432C207.1 440.8 215.2 448 223.1 448C232.8 448 240 440.8 240 432V208C240 199.2 232.8 192 223.1 192C215.2 192 207.1 199.2 207.1 208zM304 208V432C304 440.8 311.2 448 320 448C328.8 448 336 440.8 336 432V208C336 199.2 328.8 192 320 192C311.2 192 304 199.2 304 208z"/>
  </symbol>
  <symbol id="s-upload" viewBox="0 0 512 512">
    <path d="M105.4 182.6c12.5 12.49 32.76 12.5 45.25 .001L224 109.3V352c0 17.67 14.33 32 32 32c17.67 0 32-14.33 32-32V109.3l73.38 73.38c12.49 12.49 32.75 12.49 45.25-.001c12.49-12.49 12.49-32.75 0-45.25l-128-128C272.4 3.125 264.2 0 256 0S239.6 3.125 233.4 9.375L105.4 137.4C92.88 149.9 92.88 170.1 105.4 182.6zM480 352h-160c0 35.35-28.65 64-64 64s-64-28.65-64-64H32c-17.67 0-32 14.33-32 32v96c0 17.67 14.33 32 32 32h448c17.67 0 32-14.33 32-32v-96C512 366.3 497.7 352 480 352zM432 456c-13.2 0-24-10.8-24-24c0-13.2 10.8-24 24-24s24 10.8 24 24C456 445.2 445.2 456 432 456z"/>
  </symbol>
  <symbol id="t-image" viewBox="0 0 512 512">
    <path d="M464 32h-416C21.49 32 0 53.49 0 80v352C0 458.5 21.49 480 48 480h416c26.51 0 48-21.49 48-48v-352C512 53.49 490.5 32 464 32zM48 464c-17.64 0-32-14.36-32-32v-51.31l106.3-106.3c3.125-3.125 8.188-3.125 11.31 0l79.03 79.03L102.1 464H48zM496 432c0 17.64-14.36 32-32 32H124.7l253.7-253.7c3.125-3.125 8.188-3.125 11.31 0L496 316.7V432zM496 294.1l-95.03-95.03c-9.375-9.344-24.56-9.344-33.94 0L224 342.1L144.1 263c-9.375-9.344-24.56-9.344-33.94 0L16 358.1V80c0-17.64 14.36-32 32-32h416c17.64 0 32 14.36 32 32V294.1zM128 104C97.07 104 72 129.1 72 160S97.07 216 128 216S184 190.9 184 160S158.9 104 128 104zM128 200C105.9 200 88 182.1 88 160c0-22.06 17.95-40 40-40S168 137.9 168 160C168 182.1 150.1 200 128 200z"/>
  </symbol>
  <symbol id="t-image-slash" viewBox="0 0 640 512">
    <path d="M528 48c17.64 0 32 14.36 32 32v214.1l-95.03-95.03c-9.375-9.344-24.56-9.344-33.94 0l-29.66 29.66l12.61 10.02l28.37-28.37c3.125-3.125 8.188-3.125 11.31 0L560 316.7v38.1l16 12.72V80C576 53.49 554.5 32 528 32H153.9l20.13 16H528zM188.7 464l122.8-122.8l-12.61-10.02L288 342.1L208.1 263c-9.375-9.344-24.56-9.344-33.94 0L80 358.1V157.2L64 144.5V432C64 458.5 85.49 480 112 480h374.1l-20.13-16H188.7zM112 464c-17.64 0-32-14.36-32-32v-51.31l106.3-106.3c3.125-3.125 8.188-3.125 11.31 0l79.03 79.03L166.1 464H112zM636.1 497.7L12.99 1.73C11.53 .5664 9.771 0 8.025 0C5.674 0 3.336 1.027 1.738 3.012c-2.75 3.469-2.172 8.5 1.281 11.25l623.1 496C628.5 511.4 630.2 512 631.1 512c2.344 0 4.688-1.031 6.266-3.016C641 505.5 640.4 500.5 636.1 497.7z"/>
  </symbol>
  <symbol id="t-photo-film" viewBox="0 0 640 512">
    <path d="M591.1 0H239.1C213.5 0 191.1 21.49 191.1 48v256c0 26.51 21.49 48 48 48h352c26.51 0 48-21.49 48-48v-256C640 21.49 618.5 0 591.1 0zM239.1 336c-17.67 0-32-14.33-32-32V285.4L315 178.3c3.12-3.12 8.225-3.121 11.34-.0008l46.69 46.69L262.1 336H239.1zM623.1 304c0 17.67-14.33 32-32 32H284.7l221.7-221.7C507.9 112.8 509.9 112 511.1 112c2.125 0 4.188 .8281 5.688 2.344l106.3 106.3V304zM623.1 198l-95.02-95.02C524.4 98.5 518.4 96 511.1 96c-.0313 0 0 0 0 0c-6.438 .0156-12.45 2.516-16.95 7.031l-110.7 110.7L337.7 167c-9.38-9.38-24.59-9.379-33.97 .0023l-95.7 95.73V48c0-17.67 14.33-32 32-32h352c17.67 0 32 14.33 32 32V198zM288 56C265.9 56 248 73.94 248 96s17.94 40 40 40c22.06 0 40-17.94 40-40S310.1 56 288 56zM288 120C274.8 120 264 109.2 264 96s10.78-24 24-24S312 82.77 312 96S301.2 120 288 120zM504 384c-4.406 0-8 3.578-8 8v8H400v-8c0-4.418-3.582-8-8-8c-4.42 0-8 3.582-8 8v104H128v-352h24c4.406 0 8-3.578 8-8S156.4 128 152 128H48C21.49 128 .0003 149.5 .0003 176v288c0 26.51 21.49 48 48 48h416c26.51 0 48-21.49 48-48l-.0004-72C512 387.6 508.4 384 504 384zM112 496H48c-17.67 0-32-14.33-32-32V416h96V496zM112 400H16v-72h96L112 400zM112 312H16V240h96L112 312zM112 224H16V176c0-17.67 14.33-32 32-32h64V224zM496 464c0 17.67-14.33 32-32 32H400V416h96V464z"/>
  </symbol>
  <symbol id="t-plus" viewBox="0 0 448 512">
    <path d="M432 256C432 260.4 428.4 264 424 264h-192v192c0 4.422-3.578 8.006-8 8.006S216 460.4 216 456v-192h-192c-4.422 0-8-3.572-8-7.994C16 251.6 19.58 248 24 248h192v-192c0-4.422 3.578-7.994 8-7.994S232 51.58 232 56v192h192C428.4 248 432 251.6 432 256z"/>
  </symbol>
  <symbol id="t-video" viewBox="0 0 576 512">
    <path d="M336 64h-288c-26.51 0-48 21.49-48 48v288c0 26.51 21.49 48 48 48h288c26.51 0 48-21.49 48-48v-288C384 85.49 362.5 64 336 64zM368 400c0 17.64-14.36 32-32 32h-288c-17.64 0-32-14.36-32-32v-288c0-17.64 14.36-32 32-32h288c17.64 0 32 14.36 32 32V400zM555.7 100.5c-12.75-6.734-28.16-5.859-39.97 2.25l-96.13 63.81c-3.656 2.453-4.656 7.422-2.219 11.09c2.438 3.703 7.406 4.641 11.09 2.25L524.7 116c7.125-4.859 15.88-5.391 23.56-1.359C555.6 118.5 560 125.7 560 133.9v244.1c0 8.203-4.406 15.42-11.78 19.3c-7.625 4.047-16.5 3.5-23.69-1.453l-96.13-63.73c-3.625-2.406-8.625-1.453-11.06 2.25c-2.438 3.688-1.438 8.641 2.25 11.09l96 63.66c6.594 4.531 14.25 6.844 21.97 6.844c6.188 0 12.41-1.5 18.09-4.5C568.4 404.8 576 392.2 576 377.1V133.9C576 119.7 568.4 107.2 555.7 100.5z"/>
  </symbol>
</svg>