<svg xmlns="http://www.w3.org/2000/svg" viewBox="0 0 252 90"><defs><style>.cls-1{fill:#fff;}</style></defs><title>Art Logo (B) (White) (Type=F)</title><g id="Layer_2" data-name="Layer 2"><g id="Layer_1-2" data-name="Layer 1"><rect class="cls-1" y="64" width="18" height="7"/><rect class="cls-1" y="55" width="18" height="7"/><rect class="cls-1" x="9" y="82" width="72" height="8"/><rect class="cls-1" x="9" width="72" height="8"/><rect class="cls-1" y="46" width="54" height="7"/><rect class="cls-1" y="73" width="90" height="7"/><rect class="cls-1" x="9" y="37" width="36" height="7"/><rect class="cls-1" y="10" width="90" height="7"/><rect class="cls-1" x="72" y="37" width="18" height="7"/><rect class="cls-1" x="72" y="28" width="18" height="7"/><rect class="cls-1" x="72" y="19" width="18" height="7"/><rect class="cls-1" x="72" y="64" width="18" height="7"/><rect class="cls-1" x="72" y="46" width="18" height="7"/><rect class="cls-1" x="72" y="55" width="18" height="7"/><rect class="cls-1" x="135" y="64" width="36" height="7"/><rect class="cls-1" x="126" y="46" width="54" height="7"/><rect class="cls-1" x="153" y="73" width="27" height="7"/><rect class="cls-1" x="99" y="46" width="18" height="7"/><rect class="cls-1" x="99" y="19" width="18" height="7"/><rect class="cls-1" x="99" y="37" width="18" height="7"/><rect class="cls-1" x="108" width="72" height="8"/><rect class="cls-1" x="99" y="28" width="18" height="7"/><rect class="cls-1" x="126" y="55" width="27" height="7"/><rect class="cls-1" x="171" y="19" width="18" height="7"/><rect class="cls-1" x="171" y="28" width="18" height="7"/><rect class="cls-1" x="135" y="37" width="54" height="7"/><rect class="cls-1" x="99" y="55" width="18" height="7"/><rect class="cls-1" x="99" y="10" width="90" height="7"/><rect class="cls-1" x="99" y="64" width="18" height="7"/><rect class="cls-1" x="99" y="73" width="18" height="7"/><rect class="cls-1" x="162" y="82" width="27" height="8"/><rect class="cls-1" x="108" y="82" width="9" height="8"/><rect class="cls-1" x="198" y="19" width="54" height="7"/><rect class="cls-1" x="198" y="28" width="45" height="7"/><rect class="cls-1" x="207" width="9" height="8"/><rect class="cls-1" x="198" y="10" width="18" height="7"/><rect class="cls-1" x="198" y="37" width="18" height="7"/><rect class="cls-1" x="207" y="82" width="36" height="8"/><rect class="cls-1" x="198" y="73" width="54" height="7"/><rect class="cls-1" x="198" y="46" width="18" height="7"/><rect class="cls-1" x="198" y="55" width="18" height="7"/><rect class="cls-1" x="198" y="64" width="18" height="7"/></g></g></svg>