<?xml version="1.0" encoding="iso-8859-1"?>
<!-- Generator: Adobe Illustrator 19.0.0, SVG Export Plug-In . SVG Version: 6.00 Build 0)  -->
<svg version="1.1" id="Capa_1" xmlns="http://www.w3.org/2000/svg" xmlns:xlink="http://www.w3.org/1999/xlink" x="0px" y="0px"
	 viewBox="0 0 512 512" style="enable-background:new 0 0 512 512;" xml:space="preserve">
<g>
	<g>
		<path d="M352.743,223.201c14.795-17.099,23.757-39.378,23.757-63.711c0-53.757-43.733-97.49-97.489-97.49H261.5V0h-40v62h-40V0
			h-40v62h-62v40h62v310h-62v40h62v60h40v-60h40v60h40v-60h53.489c64.795,0,117.511-52.715,117.511-117.511
			C432.5,282.895,399.075,238.961,352.743,223.201z M181.5,102h97.511c31.7,0,57.489,25.79,57.489,57.489
			c0,31.699-25.79,57.49-57.489,57.49H181.5V102z M314.989,412H181.5V256.979h133.489c42.74,0,77.511,34.771,77.511,77.51
			C392.5,377.229,357.729,412,314.989,412z"/>
	</g>
</g>
<g>
</g>
<g>
</g>
<g>
</g>
<g>
</g>
<g>
</g>
<g>
</g>
<g>
</g>
<g>
</g>
<g>
</g>
<g>
</g>
<g>
</g>
<g>
</g>
<g>
</g>
<g>
</g>
<g>
</g>
</svg>
