<svg id="Layer_1" height="512" viewBox="0 0 1000 1000" width="512" xmlns="http://www.w3.org/2000/svg" data-name="Layer 1"><path d="m500 916a16 16 0 0 1 -12.31-5.78l-296.49-356.87a16 16 0 0 1 20.24-24.12l296.49 169.27a16 16 0 0 1 8.07 13.9v187.6a16 16 0 0 1 -16 16zm-227.81-315.23 211.81 254.93v-134z"/><path d="m500 916a16 16 0 0 1 -16-16v-187.6a16 16 0 0 1 8.07-13.9l296.49-169.27a16 16 0 0 1 20.24 24.12l-296.49 356.87a16 16 0 0 1 -12.31 5.78zm16-194.31v134l211.81-254.92z"/><path d="m500 642.15a16 16 0 0 1 -7.86-2.07l-242.7-137.08a16 16 0 0 1 -5.71-22.4l242.69-389a16 16 0 1 1 27.16 16.94l-233.85 374.8 228.14 128.87a16 16 0 0 1 -7.87 29.94z"/><path d="m500 642.15a16 16 0 0 1 -16-16v-526.15a16 16 0 0 1 29.58-8.47l242.69 389a16 16 0 0 1 -5.71 22.4l-242.69 137.15a16 16 0 0 1 -7.87 2.07zm16-486.27v442.85l204.27-115.39z"/><path d="m257.31 505.06a16 16 0 0 1 -5.91-30.88l242.69-96.43a16 16 0 1 1 11.82 29.74l-242.7 96.43a15.9 15.9 0 0 1 -5.9 1.14z"/><path d="m257.31 505.06a16 16 0 0 1 -5.91-30.88l242.69-96.43a16 16 0 1 1 11.82 29.74l-242.7 96.43a15.9 15.9 0 0 1 -5.9 1.14z"/><path d="m742.69 505.06a15.9 15.9 0 0 1 -5.9-1.14l-242.7-96.43a16 16 0 0 1 11.82-29.74l242.69 96.43a16 16 0 0 1 -5.91 30.88z"/></svg>