<?xml version="1.0" encoding="UTF-8" ?>
<!DOCTYPE svg PUBLIC "-//W3C//DTD SVG 1.1//EN" "http://www.w3.org/Graphics/SVG/1.1/DTD/svg11.dtd">
<svg width="1935pt" height="489pt" viewBox="0 0 1935 489" version="1.1" xmlns="http://www.w3.org/2000/svg">
<g id="#306998ff">
<path fill="#306998" opacity="1.00" d=" M 8.75 15.79 C 16.17 6.29 27.96 0.34 40.04 0.25 C 67.02 0.21 94.01 0.26 120.99 0.23 C 126.71 0.15 132.47 1.11 137.75 3.36 C 152.31 9.28 162.67 24.23 162.81 39.98 C 162.91 67.66 162.77 95.33 162.88 123.01 C 162.91 144.08 181.90 163.04 202.97 163.04 C 230.32 163.13 257.67 163.04 285.02 163.09 C 290.91 163.09 296.80 164.38 302.14 166.89 C 315.97 173.20 325.57 187.77 325.67 203.01 C 325.73 230.00 325.66 257.00 325.70 283.99 C 325.81 290.42 324.54 296.89 321.72 302.69 C 315.38 316.27 301.05 325.71 286.02 325.89 C 258.36 325.99 230.68 325.85 203.02 325.96 C 181.93 325.93 162.91 344.91 162.88 365.99 C 162.79 393.34 162.88 420.69 162.84 448.03 C 162.84 453.63 161.69 459.23 159.42 464.36 C 153.32 478.60 138.52 488.64 122.98 488.74 C 97.32 488.80 71.66 488.74 46.01 488.77 C 39.01 488.99 31.82 488.55 25.32 485.73 C 11.08 480.05 0.94 465.82 0.00 450.54 L 0.00 363.75 C 0.91 353.62 5.44 343.80 12.97 336.89 C 20.23 330.07 30.06 326.04 40.03 325.94 C 67.71 325.86 95.39 326.00 123.06 325.88 C 143.93 325.69 162.64 306.95 162.81 286.09 C 162.87 258.36 162.88 230.64 162.80 202.92 C 162.64 182.07 143.95 163.33 123.10 163.12 C 99.40 163.02 75.69 163.11 51.99 163.08 C 43.67 162.99 35.06 163.79 27.12 160.73 C 12.14 155.59 1.22 141.09 0.00 125.34 L 0.00 38.50 C 0.65 30.29 3.58 22.24 8.75 15.79 Z" />
</g>
<g id="#ffd43bff">
<path fill="#ffd43b" opacity="1.00" d=" M 355.45 1.73 C 359.20 0.68 363.10 0.21 367.00 0.23 C 394.00 0.24 421.00 0.22 448.00 0.24 C 453.82 0.27 459.64 1.54 464.92 4.02 C 478.71 10.29 488.33 24.75 488.51 39.94 C 488.55 67.64 488.54 95.36 488.52 123.06 C 488.49 139.83 476.83 155.67 460.94 160.89 C 453.29 163.73 445.02 162.99 437.03 163.08 C 413.36 163.07 389.68 163.10 366.00 163.07 C 354.56 163.04 343.32 157.80 335.82 149.18 C 329.26 141.78 325.58 131.92 325.69 122.03 C 325.71 94.70 325.66 67.36 325.71 40.02 C 325.82 22.54 338.60 6.24 355.45 1.73 Z" />
<path fill="#ffd43b" opacity="1.00" d=" M 358.53 326.69 C 361.96 325.99 365.48 325.88 368.98 325.91 C 395.63 325.95 422.28 325.87 448.92 325.95 C 465.76 326.15 481.53 338.06 486.54 354.09 C 489.15 361.45 488.45 369.32 488.53 376.97 C 488.52 401.01 488.57 425.04 488.51 449.07 C 488.33 464.50 478.39 479.16 464.27 485.28 C 458.57 487.85 452.28 488.93 446.05 488.77 C 419.36 488.75 392.66 488.78 365.97 488.76 C 350.69 488.79 336.02 479.26 329.61 465.44 C 326.87 459.73 325.59 453.38 325.68 447.07 C 325.73 419.72 325.62 392.37 325.74 365.02 C 326.13 346.69 340.53 329.98 358.53 326.69 Z" />
</g>
<g id="#646464ff">
<path fill="#646464" opacity="1.00" d=" M 575.08 36.12 C 609.11 15.16 649.48 6.73 689.06 5.88 C 691.06 5.85 692.95 6.74 694.97 6.59 C 714.81 6.51 734.84 11.62 751.64 22.32 C 774.90 36.95 790.85 60.83 800.56 86.14 C 809.40 109.06 813.82 133.50 815.40 157.97 C 817.94 195.17 812.61 233.72 795.15 267.03 C 782.65 291.04 762.67 311.61 737.65 322.47 C 717.75 331.20 695.51 334.38 673.94 331.94 C 646.37 329.28 620.11 318.71 596.64 304.30 C 596.63 365.79 596.65 427.27 596.63 488.76 C 579.54 482.60 562.47 476.41 545.38 470.27 C 545.52 356.19 545.77 242.11 545.95 128.03 C 546.09 105.49 545.82 82.93 546.22 60.41 C 554.08 50.49 564.47 42.87 575.08 36.12 M 636.71 45.81 C 623.42 49.67 610.38 55.02 599.05 63.06 C 597.84 64.16 595.67 64.97 595.93 66.94 C 595.97 134.22 595.84 201.49 596.00 268.76 C 614.80 280.27 635.04 290.11 656.84 294.24 C 675.81 297.79 696.30 295.75 713.36 286.36 C 727.38 278.64 737.66 265.40 743.85 250.83 C 752.45 230.73 755.02 208.67 755.91 187.00 C 756.63 164.65 756.04 142.15 752.37 120.06 C 749.52 103.57 744.92 87.08 736.22 72.64 C 729.72 61.82 720.46 52.43 708.96 47.00 C 699.66 42.44 689.24 40.78 678.96 40.56 C 664.72 40.08 650.42 41.95 636.71 45.81 Z" />
<path fill="#646464" opacity="1.00" d=" M 901.50 23.66 C 919.06 17.73 936.62 11.78 954.19 5.87 C 954.21 73.91 954.20 141.95 954.20 209.99 C 954.28 220.67 953.64 231.48 956.04 241.98 C 958.98 256.26 966.65 269.66 978.11 278.78 C 992.08 290.09 1010.23 294.98 1027.95 295.66 C 1042.33 296.43 1056.61 293.20 1070.09 288.41 C 1084.44 283.24 1098.17 276.34 1110.90 267.95 C 1110.90 183.20 1110.89 98.45 1110.90 13.69 C 1128.23 13.68 1145.56 13.68 1162.89 13.69 C 1162.90 97.12 1162.89 180.54 1162.89 263.96 C 1162.83 290.92 1163.35 317.92 1161.28 344.82 C 1159.64 365.02 1157.25 385.40 1150.68 404.68 C 1146.04 418.54 1137.35 430.79 1126.74 440.75 C 1113.57 453.11 1097.66 462.22 1081.05 469.10 C 1053.04 480.53 1022.86 486.34 992.67 487.34 C 989.82 476.42 986.95 465.50 984.13 454.57 C 1010.75 450.79 1037.97 447.61 1062.88 436.83 C 1077.37 430.54 1090.92 420.96 1099.51 407.46 C 1105.73 398.05 1108.48 386.89 1110.33 375.90 C 1113.31 357.44 1113.72 338.69 1113.75 320.03 C 1113.80 315.73 1114.38 311.41 1113.68 307.13 C 1087.79 319.76 1059.58 327.41 1030.91 330.00 C 1012.65 331.47 993.91 332.82 975.99 328.08 C 948.55 321.26 922.91 303.66 910.16 277.94 C 904.32 266.23 901.45 253.12 901.50 240.05 C 901.49 167.92 901.49 95.79 901.50 23.66 Z" />
<path fill="#646464" opacity="1.00" d=" M 1319.88 15.92 C 1354.24 1.88 1393.62 3.34 1428.27 15.66 C 1438.60 19.42 1448.56 24.21 1457.88 30.04 C 1452.88 39.35 1447.88 48.65 1442.85 57.94 C 1426.38 50.33 1408.90 44.83 1390.98 41.95 C 1377.45 40.02 1363.26 39.63 1350.18 44.16 C 1336.84 48.66 1325.40 57.68 1316.57 68.51 C 1305.03 82.66 1297.32 99.58 1292.12 116.99 C 1282.36 150.35 1280.84 186.57 1290.65 220.11 C 1296.13 238.97 1304.91 257.21 1318.25 271.80 C 1329.43 284.10 1344.41 293.30 1360.96 295.96 C 1377.64 298.53 1394.82 296.67 1411.01 292.11 C 1427.80 287.34 1443.50 279.57 1459.23 272.14 C 1463.79 281.18 1468.30 290.26 1472.84 299.32 C 1438.45 321.88 1396.98 332.79 1355.99 332.02 C 1335.50 331.58 1315.16 325.31 1298.06 313.98 C 1274.82 298.72 1257.75 275.44 1246.87 250.11 C 1230.03 210.98 1227.09 166.43 1236.83 125.08 C 1243.45 96.97 1256.01 69.88 1275.30 48.20 C 1287.59 34.40 1302.68 22.89 1319.88 15.92 Z" />
<path fill="#646464" opacity="1.00" d=" M 1637.48 7.28 C 1652.95 5.68 1668.76 4.87 1684.09 8.11 C 1703.98 12.08 1723.04 21.57 1737.00 36.45 C 1758.73 22.99 1782.63 12.53 1808.01 8.54 C 1827.82 5.45 1848.51 4.12 1867.97 9.98 C 1887.93 15.68 1906.59 27.17 1919.24 43.81 C 1928.83 56.25 1934.31 71.68 1935.00 87.35 L 1935.00 325.66 C 1917.67 325.66 1900.35 325.64 1883.03 325.67 C 1882.75 260.44 1882.58 195.22 1882.35 129.99 C 1882.21 115.58 1882.99 100.92 1879.38 86.82 C 1876.12 72.92 1868.44 59.61 1856.32 51.68 C 1840.76 41.42 1821.20 39.58 1803.06 41.14 C 1785.31 43.97 1769.07 52.94 1754.84 63.60 C 1757.19 71.49 1757.62 79.78 1757.64 87.96 C 1757.64 167.19 1757.65 246.42 1757.64 325.65 C 1740.31 325.66 1722.99 325.65 1705.66 325.66 C 1705.63 260.44 1705.66 195.23 1705.65 130.01 C 1705.55 116.72 1706.29 103.28 1703.50 90.19 C 1700.69 75.68 1693.51 61.40 1681.17 52.76 C 1666.90 42.59 1648.64 40.47 1631.57 41.33 C 1620.08 41.54 1608.99 45.48 1599.01 50.96 C 1592.48 54.59 1586.25 58.86 1580.99 64.19 C 1581.00 151.35 1581.01 238.51 1580.99 325.66 C 1563.66 325.65 1546.34 325.65 1529.02 325.66 C 1528.98 236.40 1529.03 147.14 1528.99 57.87 C 1547.09 44.64 1565.36 31.33 1585.70 21.71 C 1601.97 13.96 1619.58 9.23 1637.48 7.28 Z" />
</g>
</svg>
