<?xml version="1.0" encoding="UTF-8" ?>
<!DOCTYPE svg PUBLIC "-//W3C//DTD SVG 1.1//EN" "http://www.w3.org/Graphics/SVG/1.1/DTD/svg11.dtd">
<svg width="1546pt" height="730pt" viewBox="0 0 1546 730" version="1.1" xmlns="http://www.w3.org/2000/svg">
<g id="#ffffffff">
</g>
<g id="#366a96ff">
<path fill="#366a96" opacity="1.00" d=" M 270.22 73.18 C 275.86 69.16 285.19 72.95 285.90 79.99 C 287.26 87.57 288.65 95.14 290.01 102.71 C 304.12 99.43 318.44 96.58 332.97 96.18 C 341.95 95.45 350.99 95.33 359.97 96.11 C 380.82 96.76 401.44 101.50 420.81 109.11 C 450.90 120.74 475.11 145.08 489.14 173.84 C 492.82 183.70 497.39 193.48 498.21 204.10 C 501.74 221.85 501.05 240.33 496.73 257.87 C 494.21 265.41 491.36 272.86 488.05 280.08 C 484.40 286.05 481.33 292.43 476.77 297.79 C 470.72 306.87 462.14 313.86 453.81 320.76 C 438.89 333.29 420.65 341.43 401.73 345.74 C 386.96 349.28 371.77 350.57 356.94 353.78 C 344.09 356.07 331.35 358.90 318.54 361.40 C 296.32 366.09 274.55 373.98 255.37 386.29 C 249.59 389.95 244.53 394.58 238.96 398.52 C 252.49 383.02 268.21 369.31 286.04 358.97 C 304.35 348.32 324.40 341.22 344.45 334.62 C 364.62 328.14 385.17 322.44 404.23 312.97 C 422.86 303.90 440.43 291.81 453.42 275.49 C 461.21 267.16 467.18 257.30 472.11 247.04 C 478.73 231.73 480.78 214.21 476.25 198.02 C 474.53 192.72 473.43 187.18 470.64 182.30 C 464.24 168.88 455.10 156.80 443.98 146.94 C 429.33 133.19 410.21 125.55 390.96 120.77 C 356.45 112.70 319.88 114.75 286.02 124.90 C 281.01 126.89 275.01 124.28 272.78 119.47 C 271.49 114.69 270.43 109.82 269.76 104.91 C 262.67 112.17 256.69 120.41 249.98 128.02 C 244.01 134.98 238.46 142.29 232.23 149.04 C 249.42 156.16 266.50 163.57 283.61 170.89 C 281.99 166.64 280.50 162.34 279.03 158.04 C 277.74 154.08 279.61 149.99 281.79 146.73 C 284.22 143.47 288.22 142.12 291.94 140.92 C 310.13 134.25 329.62 131.25 348.97 132.09 C 367.83 132.36 386.95 136.94 403.00 147.07 C 412.66 153.14 420.58 161.69 426.48 171.41 C 429.92 178.66 434.20 185.87 434.90 194.04 C 435.44 199.67 436.64 205.33 435.85 211.00 C 435.30 215.16 435.01 219.37 434.18 223.49 C 428.50 241.75 416.72 258.06 401.00 268.99 C 384.79 279.52 365.83 284.72 347.07 288.55 C 310.85 295.84 273.75 294.91 237.00 295.72 C 223.96 296.50 210.82 296.97 198.01 299.72 C 179.75 302.95 162.24 310.39 147.18 321.21 C 136.50 329.77 128.05 340.91 122.24 353.28 C 118.25 363.71 115.13 374.67 115.43 385.95 C 115.20 397.31 118.34 408.35 122.31 418.88 C 123.49 421.59 125.02 424.13 126.54 426.66 C 134.82 422.97 144.42 423.20 152.84 426.34 C 163.27 429.89 171.44 438.87 174.72 449.30 C 179.09 465.75 170.04 485.02 153.94 491.15 C 144.59 494.80 133.67 494.73 124.55 490.42 C 115.29 486.06 108.26 477.42 105.64 467.55 C 104.20 459.05 104.41 449.72 109.06 442.19 C 109.60 441.00 111.13 439.59 109.88 438.31 C 108.51 435.96 106.86 433.77 105.78 431.26 C 102.56 423.05 98.46 415.02 97.35 406.16 C 93.52 385.54 95.07 363.42 104.32 344.39 C 106.14 338.95 109.65 334.37 112.57 329.51 C 115.08 324.87 118.95 321.23 122.09 317.06 C 134.95 302.62 152.36 293.15 170.21 286.31 C 198.25 276.08 228.49 275.42 257.99 275.21 C 294.23 274.64 331.15 273.90 366.02 262.91 C 377.87 259.02 389.96 253.95 398.54 244.57 C 402.97 240.50 406.15 235.33 409.51 230.41 C 414.35 220.45 418.00 209.03 415.11 197.94 C 412.28 183.64 403.42 170.55 390.66 163.32 C 377.91 155.50 362.76 152.69 348.00 152.23 C 332.16 151.65 316.32 154.08 301.27 158.98 C 302.66 167.81 307.14 175.76 309.30 184.39 C 310.18 188.44 310.17 193.76 306.28 196.30 C 303.19 198.82 298.77 199.24 295.11 197.79 C 268.27 186.32 241.41 174.86 214.57 163.40 C 211.30 161.93 207.48 159.93 206.77 156.07 C 206.36 152.81 206.13 149.04 208.31 146.31 C 226.15 125.16 243.75 103.81 261.61 82.68 C 264.20 79.29 266.88 75.88 270.22 73.18 M 135.59 444.81 C 126.40 446.84 122.26 459.09 127.32 466.69 C 132.02 475.28 145.43 475.68 151.71 468.68 C 153.73 465.49 155.49 461.87 155.50 458.02 C 155.62 454.69 153.77 451.71 151.92 449.10 C 147.68 445.00 141.31 443.31 135.59 444.81 Z" />
<path fill="#366a96" opacity="1.00" d=" M 1267.63 231.77 C 1273.57 229.74 1280.68 231.39 1284.62 236.42 C 1291.09 243.42 1288.45 255.97 1279.85 259.95 C 1272.27 264.15 1261.79 260.26 1258.66 252.22 C 1255.06 244.47 1259.59 234.45 1267.63 231.77 Z" />
<path fill="#366a96" opacity="1.00" d=" M 1345.88 308.96 C 1360.50 294.09 1383.05 287.83 1403.27 292.75 C 1420.11 296.84 1435.23 308.25 1443.06 323.80 C 1445.92 329.45 1448.08 335.48 1449.31 341.71 C 1454.71 364.66 1451.51 390.22 1437.77 409.75 C 1429.20 422.86 1416.20 432.38 1402.36 439.32 C 1378.73 450.66 1351.49 452.35 1325.88 448.48 C 1309.61 446.32 1293.80 440.71 1279.87 432.01 C 1284.17 427.00 1288.12 421.68 1291.43 415.96 L 1291.90 415.19 C 1311.96 428.18 1336.85 431.88 1360.31 429.34 C 1354.40 424.08 1347.65 419.67 1342.68 413.42 C 1330.43 398.63 1326.01 378.88 1326.12 360.05 C 1325.99 341.38 1332.66 322.37 1345.88 308.96 M 1382.43 307.74 C 1371.65 309.85 1361.44 317.07 1357.51 327.56 C 1351.22 342.63 1349.73 359.51 1352.11 375.60 C 1354.00 389.96 1359.25 404.77 1370.55 414.44 C 1377.17 420.38 1386.70 421.08 1395.14 419.99 C 1400.44 419.36 1405.00 416.32 1409.26 413.33 C 1416.77 407.95 1421.10 399.34 1423.87 390.75 C 1426.68 378.49 1427.65 365.76 1426.19 353.24 C 1425.07 344.63 1423.82 335.83 1419.83 328.01 C 1416.14 320.84 1410.85 314.06 1403.38 310.59 C 1396.88 307.65 1389.48 306.27 1382.43 307.74 Z" />
<path fill="#366a96" opacity="1.00" d=" M 1259.48 308.56 C 1263.57 305.03 1269.84 302.67 1274.85 305.76 C 1271.08 308.97 1270.35 314.12 1268.91 318.59 C 1267.20 327.64 1265.17 336.74 1265.47 346.02 C 1265.25 358.05 1266.85 370.02 1269.14 381.82 C 1270.59 388.29 1272.42 394.69 1275.28 400.70 C 1272.47 406.93 1268.57 412.81 1263.39 417.32 C 1258.04 411.93 1254.66 404.94 1252.18 397.85 C 1248.15 386.30 1246.64 374.11 1245.45 362.00 C 1244.91 352.34 1244.37 342.51 1246.23 332.95 C 1248.25 323.83 1252.08 314.63 1259.48 308.56 Z" />
</g>
<g id="#ffc434ff">
<path fill="#ffc434" opacity="1.00" d=" M 535.26 252.33 C 544.51 235.29 569.12 230.43 584.90 241.10 C 591.27 245.01 595.96 251.30 598.81 258.13 C 600.94 265.39 600.79 273.19 599.33 280.58 C 598.58 283.78 596.57 286.46 595.28 289.45 C 595.72 291.92 597.80 293.81 598.77 296.11 C 601.97 303.64 605.70 311.03 607.46 319.07 C 609.02 328.60 610.75 338.24 610.06 347.94 C 609.68 354.85 608.49 361.68 607.30 368.48 C 600.12 393.97 583.73 417.29 560.64 430.70 C 542.29 441.89 521.40 448.63 500.10 451.18 C 482.52 453.84 464.71 453.74 446.98 453.82 C 410.64 454.62 373.61 455.34 338.68 466.54 C 327.06 470.45 315.21 475.53 306.84 484.81 C 302.44 488.86 299.29 494.01 295.99 498.94 C 290.67 508.98 288.02 520.76 290.58 532.02 C 292.36 538.73 294.39 545.65 298.91 551.09 C 308.38 565.42 325.30 572.68 341.69 575.58 C 362.68 578.86 384.45 577.01 404.57 570.15 C 402.44 561.51 398.99 553.29 396.12 544.89 C 395.17 541.47 395.15 537.35 397.67 534.58 C 400.70 530.83 406.25 529.66 410.62 531.62 C 437.25 542.89 463.82 554.33 490.43 565.64 C 493.37 567.06 497.07 568.43 498.07 571.91 C 500.09 576.90 498.32 582.78 494.39 586.31 C 478.50 605.13 462.78 624.09 446.97 642.99 C 442.58 647.59 439.41 653.49 433.86 656.89 C 429.58 658.71 424.35 657.24 421.52 653.58 C 418.72 650.49 419.45 646.05 418.56 642.28 C 417.42 636.99 416.52 631.66 415.59 626.33 C 380.12 635.45 342.27 636.34 306.69 627.30 C 287.77 622.18 269.01 614.79 253.79 602.12 C 237.64 589.39 224.75 572.73 215.92 554.19 C 211.54 542.49 206.73 530.61 206.37 517.94 C 204.24 504.01 205.71 489.93 207.23 476.03 C 210.03 461.32 217.40 448.03 225.73 435.79 C 233.60 425.44 242.43 415.72 252.74 407.74 C 269.87 393.64 290.78 385.06 311.98 379.14 C 331.88 374.23 351.95 369.95 372.15 366.45 C 386.54 364.21 401.06 362.31 415.02 358.00 C 426.05 354.88 436.64 350.24 446.59 344.56 C 454.29 339.96 461.27 334.31 468.36 328.85 C 460.39 339.86 451.27 350.11 440.58 358.56 C 427.46 367.63 413.42 375.30 398.97 382.04 C 383.88 389.48 368.37 396.10 352.47 401.62 C 332.44 408.68 312.43 415.97 293.23 425.12 C 275.82 433.65 258.85 444.28 246.81 459.76 C 243.94 464.25 240.39 468.33 238.09 473.17 C 235.19 478.92 231.66 484.49 230.31 490.86 C 224.50 508.77 226.46 528.74 234.32 545.70 C 244.20 567.02 260.90 585.28 281.60 596.51 C 309.37 610.55 341.20 615.06 372.03 612.92 C 388.41 612.17 404.59 608.84 420.27 604.15 C 425.39 602.40 431.50 605.67 433.11 610.78 C 434.62 615.43 434.69 620.37 435.50 625.16 C 448.20 610.24 460.68 595.15 473.21 580.09 C 456.12 573.01 439.14 565.66 422.17 558.33 C 423.22 562.55 425.13 566.49 426.26 570.69 C 428.03 576.86 424.50 583.95 418.59 586.39 C 398.48 594.47 376.64 598.16 354.99 597.30 C 336.09 596.20 316.81 591.83 300.97 581.02 C 285.07 570.59 274.36 553.33 270.34 534.90 C 269.27 526.97 269.31 518.83 270.29 510.89 C 273.67 495.17 282.13 480.76 293.54 469.51 C 306.37 456.34 324.09 449.54 341.47 444.70 C 372.57 436.27 404.96 434.40 437.04 434.17 C 459.45 433.23 482.08 434.31 504.24 430.20 C 521.23 427.54 537.67 421.41 552.23 412.25 C 565.79 403.98 575.92 391.05 582.96 376.97 C 586.89 366.74 590.29 356.05 590.36 344.97 C 590.65 334.60 588.36 324.29 584.74 314.62 C 583.76 310.46 581.52 306.81 579.60 303.04 C 575.37 303.61 571.28 305.03 567.00 305.21 C 556.19 305.43 545.23 301.11 538.05 292.92 C 535.09 288.98 532.36 284.76 530.90 280.02 C 528.54 270.70 530.05 260.45 535.26 252.33 M 561.19 256.09 C 557.06 257.43 552.82 259.99 551.64 264.47 C 549.26 269.62 549.82 276.02 553.72 280.27 C 559.08 285.28 567.58 286.76 573.98 282.80 C 580.20 278.53 582.74 269.12 578.37 262.66 C 575.16 256.68 567.50 254.40 561.19 256.09 Z" />
</g>
<g id="#000000ff">
<path fill="#000000" opacity="1.00" d=" M 1268.80 287.85 C 1277.08 285.36 1286.48 288.55 1291.97 295.12 C 1296.71 300.75 1298.82 307.98 1300.67 314.96 C 1305.58 338.31 1304.11 362.44 1300.92 385.92 C 1299.12 396.30 1296.40 406.62 1291.43 415.96 C 1288.12 421.68 1284.17 427.00 1279.87 432.01 C 1274.98 437.65 1268.43 441.48 1261.78 444.68 C 1252.34 449.25 1241.25 450.16 1231.13 447.49 C 1210.89 441.70 1194.77 424.18 1190.15 403.72 C 1187.39 394.40 1187.20 384.61 1187.22 374.97 C 1187.17 362.65 1187.20 350.32 1187.13 338.00 C 1186.82 330.24 1185.41 321.97 1180.30 315.82 C 1174.92 309.33 1166.13 306.88 1157.99 306.70 C 1148.10 306.11 1139.10 311.27 1131.23 316.69 C 1133.02 323.33 1132.46 330.25 1132.55 337.05 C 1132.55 368.65 1132.54 400.25 1132.55 431.85 C 1124.88 431.86 1117.20 431.86 1109.53 431.85 C 1109.54 402.24 1109.53 372.62 1109.54 343.01 C 1109.79 333.86 1109.10 323.93 1103.29 316.42 C 1098.50 310.13 1090.47 307.53 1082.87 306.99 C 1072.92 305.96 1062.86 309.85 1055.53 316.48 C 1054.56 323.16 1055.49 330.19 1055.08 337.00 C 1055.18 346.67 1055.18 356.33 1055.07 366.00 C 1055.14 387.92 1055.14 409.84 1055.15 431.77 C 1047.37 431.91 1039.59 431.90 1031.81 431.78 C 1031.79 392.68 1031.90 353.58 1031.75 314.49 C 1041.96 306.75 1052.65 299.25 1064.88 295.10 C 1072.37 292.90 1080.10 291.31 1087.95 291.46 C 1100.80 290.65 1113.98 295.33 1123.15 304.45 C 1128.24 302.37 1132.89 298.96 1138.19 297.14 C 1149.72 292.44 1162.38 290.55 1174.78 291.76 C 1187.34 293.89 1199.69 300.75 1206.01 312.13 C 1210.46 319.59 1210.54 328.57 1210.35 337.00 C 1210.80 352.06 1207.85 367.10 1209.64 382.15 C 1210.77 391.03 1211.08 400.43 1215.75 408.35 C 1221.07 417.41 1230.19 425.01 1240.98 425.84 C 1249.21 426.17 1257.15 422.47 1263.39 417.32 C 1268.57 412.81 1272.47 406.93 1275.28 400.70 C 1280.21 389.09 1282.27 376.48 1283.20 363.98 C 1283.41 350.90 1284.36 337.64 1281.55 324.75 C 1280.11 318.24 1279.28 311.01 1274.85 305.76 C 1269.84 302.67 1263.57 305.03 1259.48 308.56 C 1252.08 314.63 1248.25 323.83 1246.23 332.95 C 1246.73 321.44 1248.60 309.64 1254.42 299.50 C 1257.53 294.01 1262.60 289.45 1268.80 287.85 Z" />
<path fill="#000000" opacity="1.00" d=" M 752.85 298.04 C 767.84 292.59 784.15 290.07 800.03 292.24 C 813.30 294.25 825.07 302.59 832.09 313.92 C 842.30 330.22 845.48 349.98 845.33 368.95 C 844.58 387.12 839.34 406.04 826.51 419.48 C 817.54 428.96 804.74 434.15 791.83 434.95 C 776.77 435.53 762.09 430.38 749.26 422.81 C 749.14 449.60 749.26 476.39 749.20 503.18 C 741.42 501.06 733.99 497.84 726.36 495.24 C 726.35 439.17 726.48 383.10 726.60 327.03 C 726.79 323.10 726.16 319.05 726.91 315.21 C 733.64 307.12 743.19 301.89 752.85 298.04 M 748.69 317.73 C 748.75 347.36 748.79 377.00 748.67 406.64 C 760.93 414.27 775.44 420.63 790.18 417.86 C 800.32 416.47 809.00 409.19 812.99 399.88 C 819.86 384.60 818.91 367.40 818.41 351.05 C 817.25 339.31 815.07 326.92 807.70 317.33 C 802.24 310.03 792.94 306.35 783.97 306.67 C 771.54 306.69 758.65 310.09 748.69 317.73 Z" />
<path fill="#000000" opacity="1.00" d=" M 882.34 299.17 C 890.09 296.58 897.84 294.00 905.56 291.31 C 905.66 323.54 905.56 355.77 905.61 388.00 C 905.67 396.16 908.75 404.58 914.93 410.09 C 920.37 415.08 927.67 417.63 934.95 418.22 C 949.08 419.80 962.69 413.71 974.35 406.30 C 974.32 369.09 974.28 331.87 974.37 294.66 C 981.98 294.68 989.60 294.66 997.22 294.67 C 997.25 330.09 997.22 365.51 997.23 400.93 C 997.20 416.30 997.56 431.73 995.75 447.02 C 995.44 453.55 993.81 459.92 991.97 466.16 C 988.26 477.26 979.11 485.62 969.04 491.05 C 954.75 498.74 938.52 502.07 922.42 502.79 C 920.89 498.03 920.09 493.07 918.54 488.32 C 933.26 485.92 949.10 484.64 961.60 475.65 C 968.51 470.89 972.53 463.01 973.87 454.87 C 975.39 444.55 975.46 434.08 975.49 423.66 C 960.23 431.41 942.98 434.29 926.00 434.38 C 909.70 434.00 893.00 425.23 885.83 410.17 C 882.91 403.91 881.98 396.92 882.34 390.07 C 882.35 359.77 882.33 329.47 882.34 299.17 Z" />
</g>
</svg>
