<?xml version="1.0" encoding="UTF-8" standalone="no" ?>
<!DOCTYPE svg PUBLIC "-//W3C//DTD SVG 1.1//EN" "http://www.w3.org/Graphics/SVG/1.1/DTD/svg11.dtd">
<svg xmlns="http://www.w3.org/2000/svg" xmlns:xlink="http://www.w3.org/1999/xlink" version="1.1" width="1080" height="1080" viewBox="0 0 1080 1080" xml:space="preserve">
<desc>Created with Fabric.js 3.6.6</desc>
<defs>
</defs>
<g transform="matrix(0.42 0 0 0.42 -123.5 -108.5)"  >
<rect style="stroke: none; stroke-width: 1; stroke-dasharray: none; stroke-linecap: butt; stroke-dashoffset: 0; stroke-linejoin: miter; stroke-miterlimit: 4; fill: rgb(255,255,255); fill-opacity: 0; fill-rule: nonzero; opacity: 1;"  x="-50" y="-50" rx="0" ry="0" width="100" height="100" />
</g>
<g transform="matrix(0.42 0 0 0.42 82.01 97.01)"  >
<rect style="stroke: none; stroke-width: 1; stroke-dasharray: none; stroke-linecap: butt; stroke-dashoffset: 0; stroke-linejoin: miter; stroke-miterlimit: 4; fill: rgb(255,255,255); fill-rule: nonzero; opacity: 1; visibility: hidden;"  x="-540" y="-540" rx="0" ry="0" width="1080" height="1080" />
</g>
<g transform="matrix(3.23 0 0 3.23 536.81 553.19)"  >
<g style=""   >
		<g transform="matrix(0.42 0 0 0.42 -0.32 -78.62)"  >
<path style="stroke: none; stroke-width: 1; stroke-dasharray: none; stroke-linecap: butt; stroke-dashoffset: 0; stroke-linejoin: miter; stroke-miterlimit: 4; fill: rgb(110,122,180); fill-rule: nonzero; opacity: 1;"  transform=" translate(-469.09, -210.8)" d="M 464.649 171.849 C 467.575 171.09099999999998 470.501 170.41299999999998 473.467 169.78699999999998 C 473.52 197.07899999999998 473.573 224.36999999999998 473.44 251.67499999999998 L 472.07 251.808 C 470.341 251.608 468.625 251.356 466.90999999999997 251.04999999999998 L 466.897 249.986 C 466.751 226.486 466.831 202.97 466.924 179.469 C 467.083 176.717 465.939 174.2 464.649 171.849 Z" stroke-linecap="round" />
</g>
		<g transform="matrix(0.42 0 0 0.42 2.95 -78.68)"  >
<path style="stroke: none; stroke-width: 1; stroke-dasharray: none; stroke-linecap: butt; stroke-dashoffset: 0; stroke-linejoin: miter; stroke-miterlimit: 4; fill: rgb(109,139,189); fill-rule: nonzero; opacity: 1;"  transform=" translate(-476.84, -210.61)" d="M 473.467 169.788 L 480.144 169.549 Q 480.164 197.16 480.144 224.77100000000002 C 480.051 233.41600000000003 480.676 242.08800000000002 479.612 250.70600000000002 C 477.55100000000004 251.03900000000002 475.48900000000003 251.38400000000001 473.44100000000003 251.67700000000002 C 473.573 224.371 473.52 197.079 473.467 169.788 Z" stroke-linecap="round" />
</g>
		<g transform="matrix(0.42 0 0 0.42 4.32 -78.51)"  >
<path style="stroke: none; stroke-width: 1; stroke-dasharray: none; stroke-linecap: butt; stroke-dashoffset: 0; stroke-linejoin: miter; stroke-miterlimit: 4; fill: rgb(107,156,199); fill-rule: nonzero; opacity: 1;"  transform=" translate(-480.09, -211.03)" d="M 480.143 169.548 C 482.77599999999995 169.681 485.42299999999994 169.88 488.07 170.107 C 488.004 197.266 487.937 224.424 488.11 251.596 C 482.832657095758 252.75014502211417 477.37612909633935 252.82260390390195 472.07 251.809 L 473.44 251.676 C 475.488 251.38299999999998 477.55 251.03799999999998 479.611 250.70499999999998 C 480.675 242.087 480.05 233.415 480.143 224.76999999999998 Q 480.163 197.159 480.143 169.548 Z" stroke-linecap="round" />
</g>
		<g transform="matrix(0.42 0 0 0.42 9.34 -78.59)"  >
<path style="stroke: none; stroke-width: 1; stroke-dasharray: none; stroke-linecap: butt; stroke-dashoffset: 0; stroke-linejoin: miter; stroke-miterlimit: 4; fill: rgb(105,175,211); fill-rule: nonzero; opacity: 1;"  transform=" translate(-492, -210.85)" d="M 488.07 170.107 C 490.7654964188475 170.8668898452929 493.41349032604825 171.78617448924294 496 172.86 C 494.776 182.21 495.335 191.65300000000002 495.242 201.06 C 495.269 213.469 495.136 225.891 495.348 238.3 C 495.32895667907127 242.29227743374926 494.8739252483809 246.2705330665502 493.991 250.16400000000002 C 492.02299999999997 250.616 490.067 251.09500000000003 488.11199999999997 251.60000000000002 C 487.937 224.424 488 197.266 488.07 170.107 Z" stroke-linecap="round" />
</g>
		<g transform="matrix(0.42 0 0 0.42 -3.06 -78.56)"  >
<path style="stroke: none; stroke-width: 1; stroke-dasharray: none; stroke-linecap: butt; stroke-dashoffset: 0; stroke-linejoin: miter; stroke-miterlimit: 4; fill: rgb(112,105,170); fill-rule: nonzero; opacity: 1;"  transform=" translate(-462.56, -210.92)" d="M 459.143 174.762 L 464.649 171.849 C 465.939 174.203 467.083 176.71699999999998 466.923 179.47 C 466.83 202.97 466.75 226.485 466.896 249.987 C 463.8317168054739 249.4707839458538 460.88272959920755 248.41725987446122 458.185 246.875 C 459.69427730682526 244.22256057030648 460.4271782708776 241.19912751529142 460.3 238.15 C 460.127 221.272 460.087 204.40800000000002 460.28700000000003 187.53 C 460.2583375394805 183.24973844694327 459.8756998296439 178.97918051058502 459.143 174.76199999999994 Z" stroke-linecap="round" />
</g>
		<g transform="matrix(0.42 0 0 0.42 12.07 -78.31)"  >
<path style="stroke: none; stroke-width: 1; stroke-dasharray: none; stroke-linecap: butt; stroke-dashoffset: 0; stroke-linejoin: miter; stroke-miterlimit: 4; fill: rgb(103,196,223); fill-rule: nonzero; opacity: 1;"  transform=" translate(-498.49, -211.51)" d="M 496 172.86 C 498.42614371111745 173.91698793383532 500.76133384576326 175.17154224421296 502.982 176.61100000000002 C 502.57000000000005 199.354 502.663 222.11100000000002 502.95500000000004 244.853 C 500.72100000000006 247.64600000000002 497.06300000000005 248.63 493.99100000000004 250.16 C 494.87392524838094 246.26653306655018 495.3289566790714 242.28827743374924 495.34800000000007 238.29599999999996 C 495.13500000000005 225.887 495.2680000000001 213.465 495.2420000000001 201.05599999999998 C 495.332 191.653 494.773 182.21 496 172.86 Z" stroke-linecap="round" />
</g>
		<g transform="matrix(0.42 0 0 0.42 -5.88 -78.6)"  >
<path style="stroke: none; stroke-width: 1; stroke-dasharray: none; stroke-linecap: butt; stroke-dashoffset: 0; stroke-linejoin: miter; stroke-miterlimit: 4; fill: rgb(114,88,160); fill-rule: nonzero; opacity: 1;"  transform=" translate(-455.88, -210.82)" d="M 451.5 180.534 C 452.963 177.661 456.594 176.54399999999998 459.147 174.762 C 459.8796998296439 178.97918051058505 460.26233753948054 183.2497384469432 460.291 187.52999999999997 C 460.091 204.40800000000002 460.131 221.272 460.304 238.15 C 460.4311782708776 241.19912751529142 459.6982773068252 244.22256057030648 458.18899999999996 246.875 C 455.99399999999997 245 452.736 243.816 451.44599999999997 241.156 C 452.69599999999997 228.18800000000002 451.818 215.156 452.09799999999996 202.156 C 452.271156972757 194.94317771115726 452.0715576156508 187.726225705554 451.5 180.53399999999993 Z" stroke-linecap="round" />
</g>
		<g transform="matrix(0.42 0 0 0.42 15.74 -78.64)"  >
<path style="stroke: none; stroke-width: 1; stroke-dasharray: none; stroke-linecap: butt; stroke-dashoffset: 0; stroke-linejoin: miter; stroke-miterlimit: 4; fill: rgb(102,212,233); fill-rule: nonzero; opacity: 1;"  transform=" translate(-507.23, -210.73)" d="M 502.979 176.611 C 505.9241723820729 178.49121306025012 508.5581460643179 180.8191775033769 510.786 183.51099999999997 C 510.666 191.49099999999999 510.746 199.484 510.706 207.478 C 510.79900000000004 217.36 510.014 227.335 511.757 237.137 C 509.544535470933 240.42996296243754 506.5113443549777 243.08883072021925 502.957 244.851 C 502.66 222.11 502.567 199.354 502.979 176.611 Z" stroke-linecap="round" />
</g>
		<g transform="matrix(0.42 0 0 0.42 -10.45 -78.59)"  >
<path style="stroke: none; stroke-width: 1; stroke-dasharray: none; stroke-linecap: butt; stroke-dashoffset: 0; stroke-linejoin: miter; stroke-miterlimit: 4; fill: rgb(116,61,144); fill-rule: nonzero; opacity: 1;"  transform=" translate(-444.99, -210.85)" d="M 451.442 241.156 C 433.142 226.526 433.434 195.244 451.495 180.535 C 452.06736256391946 187.72851996202868 452.2676295775945 194.94681069158676 452.095 202.1609999999998 C 451.814 215.154 452.692 228.188 451.442 241.156 Z" stroke-linecap="round" />
</g>
		<g transform="matrix(0.42 0 0 0.42 19.42 -78.81)"  >
<path style="stroke: none; stroke-width: 1; stroke-dasharray: none; stroke-linecap: butt; stroke-dashoffset: 0; stroke-linejoin: miter; stroke-miterlimit: 4; fill: rgb(100,236,246); fill-rule: nonzero; opacity: 1;"  transform=" translate(-515.96, -210.33)" d="M 510.786 183.513 C 524.419 197.704 524.871 222.469 511.757 237.139 C 510.015 227.339 510.799 217.36200000000002 510.706 207.48000000000002 C 510.747 199.487 510.667 191.493 510.786 183.513 Z" stroke-linecap="round" />
</g>
		<g transform="matrix(0.42 0 0 0.42 -11.91 -59.22)"  >
<path style="stroke: none; stroke-width: 1; stroke-dasharray: none; stroke-linecap: butt; stroke-dashoffset: 0; stroke-linejoin: miter; stroke-miterlimit: 4; fill: rgb(110,129,184); fill-rule: nonzero; opacity: 1;"  transform=" translate(-441.56, -256.86)" d="M 431.266 237.432 C 432.72900000000004 236.79399999999998 434.192 236.16899999999998 435.682 235.57 C 439.43062623329786 241.62389713349728 444.1691716155993 247.00538111739218 449.7 251.49 C 451.429 259.909 450.28499999999997 268.58 451.85499999999996 277.026 C 445.29799999999994 277.226 438.75499999999994 277.664 432.22399999999993 278.14300000000003 C 431.731 264.577 433.314 250.9 431.266 237.432 Z" stroke-linecap="round" />
</g>
		<g transform="matrix(0.42 0 0 0.42 -19.76 -58.01)"  >
<path style="stroke: none; stroke-width: 1; stroke-dasharray: none; stroke-linecap: butt; stroke-dashoffset: 0; stroke-linejoin: miter; stroke-miterlimit: 4; fill: rgb(111,112,174); fill-rule: nonzero; opacity: 1;"  transform=" translate(-422.92, -259.72)" d="M 413.484 245.984 C 418.445 241.502 425.161 239.81300000000002 431.26599999999996 237.43200000000002 C 433.31399999999996 250.90500000000003 431.73099999999994 264.577 432.224 278.14300000000003 C 426.159 279.46000000000004 420.054 280.603 414.01599999999996 282.01300000000003 C 413.59 270 413.59 257.993 413.484 245.984 Z" stroke-linecap="round" />
</g>
		<g transform="matrix(0.42 0 0 0.42 23.21 -52.71)"  >
<path style="stroke: none; stroke-width: 1; stroke-dasharray: none; stroke-linecap: butt; stroke-dashoffset: 0; stroke-linejoin: miter; stroke-miterlimit: 4; fill: rgb(101,216,235); fill-rule: nonzero; opacity: 1;"  transform=" translate(-524.94, -272.32)" d="M 521.56 238.283 C 525.2474968224802 239.5926802178636 528.7869770069324 241.28667007129363 532.1199999999999 243.337 C 531.9599999999999 254.881 532.0669999999999 266.426 532.0269999999999 277.96999999999997 C 531.9069999999999 287.426 532.665 296.94899999999996 531.189 306.352 C 526.5330535506366 303.53509558968295 522.0515552889156 300.43945558326305 517.769 297.082 C 519.018215863869 293.1642522238845 519.5894212381476 289.06198982601705 519.458 284.952 C 519.006 271.093 520.0169999999999 257.195 518.713 243.376 C 519.112 241.422 520.575 239.945 521.56 238.283 Z" stroke-linecap="round" />
</g>
		<g transform="matrix(0.42 0 0 0.42 17.79 -53.58)"  >
<path style="stroke: none; stroke-width: 1; stroke-dasharray: none; stroke-linecap: butt; stroke-dashoffset: 0; stroke-linejoin: miter; stroke-miterlimit: 4; fill: rgb(103,203,227); fill-rule: nonzero; opacity: 1;"  transform=" translate(-512.06, -270.23)" d="M 504.642 254.323 C 509.842 251.344 514.125 247.154 518.713 243.377 C 520.0129999999999 257.196 519.006 271.094 519.458 284.95300000000003 C 519.5894212381475 289.0629898260171 519.018215863869 293.1652522238846 517.769 297.083 C 513.54 294.783 509.257 292.548 505.24 289.88300000000004 C 505.28000000000003 278.312 506.04 266.67500000000007 504.721 255.14300000000003 Z" stroke-linecap="round" />
</g>
		<g transform="matrix(0.42 0 0 0.42 28.81 -48.87)"  >
<path style="stroke: none; stroke-width: 1; stroke-dasharray: none; stroke-linecap: butt; stroke-dashoffset: 0; stroke-linejoin: miter; stroke-miterlimit: 4; fill: rgb(100,230,243); fill-rule: nonzero; opacity: 1;"  transform=" translate(-538.24, -281.43)" d="M 532.12 243.337 C 536.775 245.47799999999998 542.029 247.38 545.393 251.357 C 544.8340000000001 274.073 546.1510000000001 296.843 544.6610000000001 319.52 C 539.913 315.66299999999995 535.7610000000001 311.128 531.0820000000001 307.191 L 531.1880000000001 306.35299999999995 C 532.6640000000001 296.953 531.9060000000001 287.42699999999996 532.0260000000001 277.97099999999995 C 532.067 266.426 531.96 254.881 532.12 243.337 Z" stroke-linecap="round" />
</g>
		<g transform="matrix(0.42 0 0 0.42 -28.1 -54.51)"  >
<path style="stroke: none; stroke-width: 1; stroke-dasharray: none; stroke-linecap: butt; stroke-dashoffset: 0; stroke-linejoin: miter; stroke-miterlimit: 4; fill: rgb(113,92,162); fill-rule: nonzero; opacity: 1;"  transform=" translate(-403.08, -268.04)" d="M 392.151 260.441 C 398.551 254.73499999999999 405.451 249.18899999999996 413.48400000000004 245.98399999999998 C 413.59000000000003 257.99399999999997 413.59000000000003 270.00399999999996 414.016 282.014 C 406.67400000000004 284.262 399.77200000000005 287.68 392.483 290.087 C 392.19 280.2 392.363 270.323 392.151 260.441 Z" stroke-linecap="round" />
</g>
		<g transform="matrix(0.42 0 0 0.42 -3.99 -55.75)"  >
<path style="stroke: none; stroke-width: 1; stroke-dasharray: none; stroke-linecap: butt; stroke-dashoffset: 0; stroke-linejoin: miter; stroke-miterlimit: 4; fill: rgb(108,150,196); fill-rule: nonzero; opacity: 1;"  transform=" translate(-460.36, -265.1)" d="M 449.7 251.49 C 456.25464661151875 255.58813290228244 463.37515594781775 258.7023028556946 470.83399999999995 260.733 C 470.581 266.718 472.297 273.408 468.693 278.701 C 463.10699999999997 277.863 457.455 277.65000000000003 451.85499999999996 277.02500000000003 C 450.285 268.58 451.429 259.909 449.7 251.49 Z" stroke-linecap="round" />
</g>
		<g transform="matrix(0.42 0 0 0.42 34.75 -44.02)"  >
<path style="stroke: none; stroke-width: 1; stroke-dasharray: none; stroke-linecap: butt; stroke-dashoffset: 0; stroke-linejoin: miter; stroke-miterlimit: 4; fill: rgb(99,242,250); fill-rule: nonzero; opacity: 1;"  transform=" translate(-552.34, -292.96)" d="M 545.393 251.357 C 550.9390000000001 252.501 551.777 258.712 553.453 263.157 C 561.2040547994151 286.2071704723793 562.1140402700041 311.0087897410157 556.073 334.5649999999998 C 552.189 329.644 547.787 324.896 544.662 319.523 C 546.151 296.843 544.835 274.073 545.393 251.357 Z" stroke-linecap="round" />
</g>
		<g transform="matrix(0.42 0 0 0.42 11.59 -52.62)"  >
<path style="stroke: none; stroke-width: 1; stroke-dasharray: none; stroke-linecap: butt; stroke-dashoffset: 0; stroke-linejoin: miter; stroke-miterlimit: 4; fill: rgb(104,188,218); fill-rule: nonzero; opacity: 1;"  transform=" translate(-497.35, -272.52)" d="M 489.387 260.68 Q 497.008 257.767 504.722 255.14700000000002 C 506.039 266.678 505.281 278.31600000000003 505.241 289.887 C 499.974 287.56 494.41499999999996 285.937 489.214 283.45 C 489.52 275.869 489.453 268.274 489.387 260.68 Z" stroke-linecap="round" />
</g>
		<g transform="matrix(0.42 0 0 0.42 -40.96 -44.79)"  >
<path style="stroke: none; stroke-width: 1; stroke-dasharray: none; stroke-linecap: butt; stroke-dashoffset: 0; stroke-linejoin: miter; stroke-miterlimit: 4; fill: rgb(115,67,148); fill-rule: nonzero; opacity: 1;"  transform=" translate(-372.55, -291.12)" d="M 352.623 321.807 C 359.723 298.213 373.145 276.307 392.151 260.44100000000003 C 392.36400000000003 270.32300000000004 392.19100000000003 280.20500000000004 392.48400000000004 290.08700000000005 C 388.884 293.25200000000007 384.06500000000005 294.742 380.27500000000003 297.73400000000004 C 369.86 304.291 360.949 312.829 352.623 321.807 Z" stroke-linecap="round" />
</g>
		<g transform="matrix(0.42 0 0 0.42 3.89 -52.81)"  >
<path style="stroke: none; stroke-width: 1; stroke-dasharray: none; stroke-linecap: butt; stroke-dashoffset: 0; stroke-linejoin: miter; stroke-miterlimit: 4; fill: rgb(106,170,208); fill-rule: nonzero; opacity: 1;"  transform=" translate(-479.07, -272.06)" d="M 470.833 260.733 C 477.01800000000003 260.919 483.202 260.919 489.386 260.68 C 489.45300000000003 268.274 489.519 275.869 489.213 283.45 C 482.44300000000004 281.575 475.58000000000004 280.032 468.69100000000003 278.702 C 472.3 273.408 470.581 266.718 470.833 260.733 Z" stroke-linecap="round" />
</g>
		<g transform="matrix(0.42 0 0 0.42 24.26 -11.57)"  >
<path style="stroke: none; stroke-width: 1; stroke-dasharray: none; stroke-linecap: butt; stroke-dashoffset: 0; stroke-linejoin: miter; stroke-miterlimit: 4; fill: rgb(118,40,132); fill-rule: nonzero; opacity: 1;"  transform=" translate(-527.45, -369.99)" d="M 566.5 268.673 C 595.68 297.946 607.517 342.355 599.045 382.548 C 593.8979999999999 383.90500000000003 588.538 384.57 583.6569999999999 386.777 C 566.5799999999999 393.839 554.1439999999999 411.036 553.1999999999999 429.536 C 552.5749999999999 437.29 554.251 444.951 556.858 452.213 C 548.1010615575659 459.7588125614452 538.3175064760325 466.02361431662774 527.8 470.82 C 525.7779999999999 471.844 523.4639999999999 470.993 521.3629999999999 470.82 C 505.83975342886 468.3052169953075 490.9122258064284 462.9536664781096 477.32699999999994 455.033 C 468.74799999999993 449.52700000000004 459.94399999999996 444.021 453.1739999999999 436.293 C 469.9849999999999 434.87 486.7169999999999 431 501.8649999999999 423.419 C 523.5652361626412 413.0638758900057 541.7824433889489 396.61665194796467 554.2939999999999 376.084 C 568.8078165604206 352.48778019029254 575.1763662739845 324.78030295292103 572.4219999999999 297.2150000000001 C 571.794 287.453 568.668 278.143 566.5 268.673 Z" stroke-linecap="round" />
</g>
		<g transform="matrix(0.42 0 0 0.42 56.2 14.85)"  >
<path style="stroke: none; stroke-width: 1; stroke-dasharray: none; stroke-linecap: butt; stroke-dashoffset: 0; stroke-linejoin: miter; stroke-miterlimit: 4; fill: rgb(118,40,132); fill-rule: nonzero; opacity: 1;"  transform=" translate(-603.29, -432.77)" d="M 596.359 391.791 C 615.644 388.173 636.139 400.117 642.6030000000001 418.604 C 648.1890000000001 433.779 644.0530000000001 452.173 631.95 463.039 C 619.408 475.222 599.0060000000001 477.948 583.6840000000001 469.529 C 569.2840000000001 462.148 560.1700000000001 445.669 561.6990000000001 429.523 C 562.869 410.943 578 394.638 596.359 391.791 Z" stroke-linecap="round" />
</g>
		<g transform="matrix(0.42 0 0 0.42 -18.1 -3.49)"  >
<path style="stroke: none; stroke-width: 1; stroke-dasharray: none; stroke-linecap: butt; stroke-dashoffset: 0; stroke-linejoin: miter; stroke-miterlimit: 4; fill: rgb(49,181,184); fill-rule: nonzero; opacity: 1;"  transform=" translate(-426.84, -389.2)" d="M 349.005 342.236 C 365.138 319.626 389.69 303.63599999999997 416.31600000000003 296.236 C 408.961 311.79699999999997 403.65400000000005 328.528 402.81600000000003 345.818 C 398.78622552271605 409.49350503171405 442.8169514620654 466.19919727248623 505.506 478.069 C 463.92999999999995 489.52000000000004 416.888 476.369 386.40599999999995 446.05600000000004 C 384.72999999999996 444.75600000000003 386.32599999999996 442.73100000000005 386.76499999999993 441.24100000000004 C 394.51899999999995 424.975 392.01899999999995 404.641 381.15199999999993 390.369 C 373.49099999999993 379.862 361.52099999999996 373.29200000000003 348.95199999999994 370.64500000000004 C 348.207 361.215 347.635 351.625 349.005 342.236 Z" stroke-linecap="round" />
</g>
		<g transform="matrix(0.42 0 0 0.42 -54.25 9.61)"  >
<path style="stroke: none; stroke-width: 1; stroke-dasharray: none; stroke-linecap: butt; stroke-dashoffset: 0; stroke-linejoin: miter; stroke-miterlimit: 4; fill: rgb(49,181,184); fill-rule: nonzero; opacity: 1;"  transform=" translate(-340.97, -420.31)" d="M 332.912 379.529 C 349.94899999999996 375.911 368.649 384.35699999999997 377.174 399.546 C 385.2685735567054 413.5767319723505 384.4795320020702 431.0308618713233 375.152 444.27399999999994 C 365.952 457.66700000000003 348.366 464.424 332.526 461.085 C 320.22643612000047 458.5520503928799 309.72541399424694 450.6066615295552 303.944 439.459 C 297.2851648822467 426.83194286365995 297.66384105261506 411.6523298982734 304.944 399.373 C 310.9884410816841 389.05261974968414 321.1743740905046 381.82544388344286 332.912 379.529 Z" stroke-linecap="round" />
</g>
		<g transform="matrix(1 0 0 1 0 78.69)" style=""  >
		<text xml:space="preserve" font-family="'Open Sans', sans-serif" font-size="30" font-style="normal" font-weight="bold" style="stroke: none; stroke-width: 1; stroke-dasharray: none; stroke-linecap: butt; stroke-dashoffset: 0; stroke-linejoin: miter; stroke-miterlimit: 4; fill: rgb(49,181,185); fill-rule: nonzero; opacity: 1; white-space: pre;" ><tspan x="-107.07" y="9.42" style="stroke-width: 1; font-family: 'Open Sans', sans-serif; font-style: normal; ">INDEPENDENT</tspan></text>
</g>
</g>
</g>
</svg>