<?xml version="1.0" encoding="UTF-8" standalone="no" ?>
<!DOCTYPE svg PUBLIC "-//W3C//DTD SVG 1.1//EN" "http://www.w3.org/Graphics/SVG/1.1/DTD/svg11.dtd">
<svg xmlns="http://www.w3.org/2000/svg" xmlns:xlink="http://www.w3.org/1999/xlink" version="1.1" width="1080" height="1080" viewBox="0 0 1080 1080" xml:space="preserve">
<desc>Created with Fabric.js 3.6.6</desc>
<defs>
</defs>
<g transform="matrix(0.42 0 0 0.42 -123.5 -108.5)"  >
<rect style="stroke: none; stroke-width: 1; stroke-dasharray: none; stroke-linecap: butt; stroke-dashoffset: 0; stroke-linejoin: miter; stroke-miterlimit: 4; fill: rgb(255,255,255); fill-opacity: 0; fill-rule: nonzero; opacity: 1;"  x="-50" y="-50" rx="0" ry="0" width="100" height="100" />
</g>
<g transform="matrix(0.42 0 0 0.42 82.01 97.01)"  >
<rect style="stroke: none; stroke-width: 1; stroke-dasharray: none; stroke-linecap: butt; stroke-dashoffset: 0; stroke-linejoin: miter; stroke-miterlimit: 4; fill: rgb(255,255,255); fill-rule: nonzero; opacity: 1; visibility: hidden;"  x="-540" y="-540" rx="0" ry="0" width="1080" height="1080" />
</g>
<g transform="matrix(1 0 0 1 50 50)"  >
<rect style="stroke: none; stroke-width: 1; stroke-dasharray: none; stroke-linecap: butt; stroke-dashoffset: 0; stroke-linejoin: miter; stroke-miterlimit: 4; fill: rgb(255,255,255); fill-opacity: 0; fill-rule: nonzero; opacity: 1;"  x="-50" y="-50" rx="0" ry="0" width="100" height="100" />
</g>
<g transform="matrix(1 0 0 1 540 540)"  >
<rect style="stroke: none; stroke-width: 1; stroke-dasharray: none; stroke-linecap: butt; stroke-dashoffset: 0; stroke-linejoin: miter; stroke-miterlimit: 4; fill: rgb(255,255,255); fill-rule: nonzero; opacity: 1; visibility: hidden;"  x="-540" y="-540" rx="0" ry="0" width="1080" height="1080" />
</g>
<g transform="matrix(1 0 0 1 540 540)"  >
<rect style="stroke: none; stroke-width: 1; stroke-dasharray: none; stroke-linecap: butt; stroke-dashoffset: 0; stroke-linejoin: miter; stroke-miterlimit: 4; fill: rgb(255,255,255); fill-rule: nonzero; opacity: 1; visibility: hidden;"  x="-540" y="-540" rx="0" ry="0" width="1080" height="1080" />
</g>
<g transform="matrix(1 0 0 1 50 50)"  >
<rect style="stroke: none; stroke-width: 1; stroke-dasharray: none; stroke-linecap: butt; stroke-dashoffset: 0; stroke-linejoin: miter; stroke-miterlimit: 4; fill: rgb(255,255,255); fill-opacity: 0; fill-rule: nonzero; opacity: 1;"  x="-50" y="-50" rx="0" ry="0" width="100" height="100" />
</g>
<g transform="matrix(1 0 0 1 540 540)"  >
<rect style="stroke: none; stroke-width: 1; stroke-dasharray: none; stroke-linecap: butt; stroke-dashoffset: 0; stroke-linejoin: miter; stroke-miterlimit: 4; fill: rgb(255,255,255); fill-rule: nonzero; opacity: 1; visibility: hidden;"  x="-540" y="-540" rx="0" ry="0" width="1080" height="1080" />
</g>
<g transform="matrix(1 0 0 1 50 50)"  >
<rect style="stroke: none; stroke-width: 1; stroke-dasharray: none; stroke-linecap: butt; stroke-dashoffset: 0; stroke-linejoin: miter; stroke-miterlimit: 4; fill: rgb(255,255,255); fill-opacity: 0; fill-rule: nonzero; opacity: 1;"  x="-50" y="-50" rx="0" ry="0" width="100" height="100" />
</g>
<g transform="matrix(1 0 0 1 540 540)"  >
<rect style="stroke: none; stroke-width: 1; stroke-dasharray: none; stroke-linecap: butt; stroke-dashoffset: 0; stroke-linejoin: miter; stroke-miterlimit: 4; fill: rgb(255,255,255); fill-rule: nonzero; opacity: 1; visibility: hidden;"  x="-540" y="-540" rx="0" ry="0" width="1080" height="1080" />
</g>
<g transform="matrix(1 0 0 1 540 540)"  >
<rect style="stroke: none; stroke-width: 1; stroke-dasharray: none; stroke-linecap: butt; stroke-dashoffset: 0; stroke-linejoin: miter; stroke-miterlimit: 4; fill: rgb(255,255,255); fill-rule: nonzero; opacity: 1; visibility: hidden;"  x="-540" y="-540" rx="0" ry="0" width="1080" height="1080" />
</g>
<g transform="matrix(1 0 0 1 50 50)"  >
<rect style="stroke: none; stroke-width: 1; stroke-dasharray: none; stroke-linecap: butt; stroke-dashoffset: 0; stroke-linejoin: miter; stroke-miterlimit: 4; fill: rgb(255,255,255); fill-opacity: 0; fill-rule: nonzero; opacity: 1;"  x="-50" y="-50" rx="0" ry="0" width="100" height="100" />
</g>
<g transform="matrix(1 0 0 1 540 540)"  >
<rect style="stroke: none; stroke-width: 1; stroke-dasharray: none; stroke-linecap: butt; stroke-dashoffset: 0; stroke-linejoin: miter; stroke-miterlimit: 4; fill: rgb(255,255,255); fill-rule: nonzero; opacity: 1; visibility: hidden;"  x="-540" y="-540" rx="0" ry="0" width="1080" height="1080" />
</g>
<g transform="matrix(1 0 0 1 540 540)"  >
<rect style="stroke: none; stroke-width: 1; stroke-dasharray: none; stroke-linecap: butt; stroke-dashoffset: 0; stroke-linejoin: miter; stroke-miterlimit: 4; fill: rgb(255,255,255); fill-rule: nonzero; opacity: 1; visibility: hidden;"  x="-540" y="-540" rx="0" ry="0" width="1080" height="1080" />
</g>
<g transform="matrix(0.89 0 0 0.89 540.13 461.47)"  >
<linearGradient id="SVGID_723" gradientUnits="userSpaceOnUse" gradientTransform="matrix(1 0 0 1 -0.1 0)"  x1="392.3428032641029" y1="0" x2="392.3428032641029" y2="366.33783165989433">
<stop offset="0%" style="stop-color:rgba(49, 181, 185, 1);"/>
<stop offset="100%" style="stop-color:rgba(117, 40, 131, 1);"/>
</linearGradient>
<path style="stroke: none; stroke-width: 1; stroke-dasharray: none; stroke-linecap: butt; stroke-dashoffset: 0; stroke-linejoin: miter; stroke-miterlimit: 4; fill: url(#SVGID_723); fill-rule: evenodd; opacity: 1;"  transform=" translate(-392.24, -183.17)" d="M 766.717 3.668 C 766.717 3.668 639.175 32.7 565.5 46.741 C 558.902409738713 47.943476634914 552.4170883263508 49.69626620582267 546.1119999999999 51.98100000000002 C 543.5734570202807 52.91866748901137 541.6036880815299 54.96661242882258 540.765482035935 57.53971005716063 C 539.9272759903399 60.11280768549869 540.3128350763311 62.928018572763705 541.812 65.181 C 560.8912073593139 94.21634185040284 571.0218313161818 128.21620967681298 570.946 162.959 C 570.946 326.971 412.279 326.866 412.279 348.874 C 412.279 359.668 421.397 367.10900000000004 432.191 366.274 L 532.38 346.362 C 542.336 343.00800000000004 545.58 335.56800000000004 538.144 328.96200000000005 C 531.544 322.362 526.511 315.76200000000006 528.188 314.91900000000004 C 529.865 313.242 540.659 315.75700000000006 548.1 323.19800000000004 C 555.541 330.639 568.85 333.15400000000005 577.863 328.96200000000005 C 586.9810000000001 324.77000000000004 601.0240000000001 308.21200000000005 591.9060000000001 302.44800000000004 L 577.0240000000001 293.33000000000004 C 567.9060000000001 287.56600000000003 561.3040000000001 281.69700000000006 562.1420000000002 280.13000000000005 C 563.8190000000002 278.45300000000003 574.6130000000002 278.45300000000003 583.6260000000002 284.32200000000006 L 602.7 295.955 C 611.8180000000001 301.719 625.8610000000001 301.719 634.1400000000001 295.955 C 642.4190000000001 290.191 654.0520000000001 271.11699999999996 643.2580000000002 267.764 L 601.0240000000001 253.721 C 591.0680000000001 250.367 582.7890000000001 246.28 584.4660000000001 243.76500000000001 C 585.3040000000001 242.08800000000002 596.0990000000002 239.573 606.7880000000001 242.92700000000002 L 653.9480000000001 258.64700000000005 C 663.9040000000001 262.00100000000003 678.7860000000001 258.64700000000005 686.2260000000001 251.20600000000005 L 701.9460000000001 233.80600000000004 C 708.5460000000002 225.52700000000004 706.1380000000001 218.08600000000004 695.3460000000001 216.40600000000003 L 619.1560000000002 208.12700000000004 C 608.3620000000002 207.28900000000004 600.0820000000002 204.04000000000005 600.9210000000002 202.36300000000003 C 601.7600000000001 200.686 611.7150000000001 195.76300000000003 622.4050000000002 197.43700000000004 L 702.6820000000002 206.55500000000004 C 713.4760000000002 207.39300000000003 726.6820000000002 201.62900000000005 732.4450000000003 192.51200000000003 L 746.4880000000003 168.51200000000003 C 751.4140000000003 158.55600000000004 746.4880000000003 151.11200000000002 735.6940000000003 151.95400000000004 L 631.3130000000003 155.30800000000005 C 620.5190000000003 155.30800000000005 612.2390000000004 154.47000000000006 612.2390000000004 151.95400000000004 C 612.2390000000004 149.43800000000002 622.1950000000004 143.67500000000004 632.9890000000004 143.67500000000004 L 740.6190000000004 140.32100000000003 C 751.4130000000004 140.32100000000003 762.9410000000004 131.20300000000003 767.1330000000004 121.24700000000003 L 775.4120000000004 91.48400000000002 C 777.9270000000004 80.69000000000003 771.3250000000004 74.08400000000003 760.5300000000004 75.76400000000002 L 636.346 98.093 C 625.552 99.77000000000001 617.272 99.77000000000001 617.272 98.093 C 617.272 95.578 626.3900000000001 88.97500000000001 636.346 86.46000000000001 L 762.21 63.3 C 773 61.622 782.122 50.828 783.694 40.138 C 783.694 40.138 784.5319999999999 29.343999999999998 784.5319999999999 13.623999999999999 L 784.5319999999999 9.432 C 785.3699999999999 2.8320000000000007 776.2529999999999 1.1530000000000005 766.2969999999999 3.668 Z M 392.476 0 C 482.5365218701577 0 555.545 73.0084781298423 555.545 163.06899999999996 C 555.5450000000001 253.12952187015762 482.5365218701577 326.138 392.47600000000006 326.138 C 302.4154781298423 326.138 229.407 253.12952187015765 229.407 163.069 C 229.407 73.00847812984233 302.4154781298423 0 392.476 0 Z M 397.716 91.91 L 397.716 100.4 C 402.64112550622565 100.86979873016159 407.47502194391757 102.03400083919756 412.074 103.85799999999999 C 416.1194623178167 105.64718314388122 419.70365473288535 108.33532745518269 422.55400000000003 111.718 C 424.75060895338123 114.20818602959163 426.5840892873224 116.99644973243784 428 119.99999999999999 C 429.15840902648483 122.4266831874655 429.8006160175271 125.06735933568002 429.886 127.75499999999998 C 429.8807698859198 130.32867390113057 428.84894145524214 132.79390243661518 427.0193397306128 134.60398039976684 C 425.1897380059835 136.41405836291852 422.713581904007 137.41938050092566 420.14000000000004 137.397 C 415.00500000000005 137.397 411.65100000000007 134.56699999999998 410.184 129.118 C 408.68985676205216 122.84496168033289 403.9185929143772 117.87130840314785 397.713 116.118 L 397.713 148.711 C 404.213 150.49300000000002 409.346 152.06500000000003 413.223 153.532 C 417.06740632356747 154.96140242488497 420.5927782603564 157.13371112771787 423.598 159.925 C 426.8344762462569 162.75496632295585 429.41040753584195 166.2607726235176 431.144 170.19500000000002 C 432.9350641671488 174.32688998349184 433.82810154525595 178.79207687402726 433.764 183.29500000000002 C 433.8069943288691 189.14887890720948 432.3647027171007 194.91804535428298 429.572 200.06300000000002 C 426.67347002248135 205.3585029199497 422.40177549148825 209.7752816902293 417.206 212.84900000000002 C 411.27556291529515 216.25848374283134 404.6437151196563 218.2660304063657 397.81800000000004 218.71800000000002 L 397.81800000000004 231.71800000000002 C 397.94370898248565 233.99375546168167 397.6233696215071 236.27213944268172 396.87500000000006 238.425 C 396.24600000000004 239.787 394.98900000000003 240.525 392.89300000000003 240.525 C 391.3660483563778 240.68490984921434 389.8634979196414 240.05211801536026 388.911 238.848 C 388.0433557327729 237.2059349853218 387.6444519332049 235.35672352938872 387.758 233.50300000000001 L 387.758 218.822 C 382.2064430617487 218.31791070959648 376.78282557395136 216.86340433579525 371.724 214.522 C 367.43547872890207 212.54113555084996 363.55983686991624 209.76782761463792 360.301 206.34799999999998 C 357.45564383094813 203.38188620798502 355.15032486424 199.94150561263052 353.489 196.182 C 352.08121070412477 192.90177553399104 351.3336354862362 189.37627876781193 351.289 185.807 C 351.3113493624356 183.23546665261154 352.3694244937306 180.78152545372723 354.224 179 C 356.14255674282975 177.01419392584015 358.7991949400897 175.91365910012135 361.56 175.961 C 363.6767368479922 175.88962760519127 365.76364358962934 176.47545663192804 367.534 177.638 C 369.15151984709763 178.74095678004628 370.33678087289775 180.37042565004162 370.888 182.249 C 371.9183238408183 185.6011124763969 373.1430654884291 188.89035183588817 374.556 192.09999999999997 C 375.6746620498966 194.50052569030075 377.2807207112823 196.64193723881505 379.272 198.388 C 381.69386066939074 200.45439533326223 384.56472413963814 201.92680861118012 387.656 202.68800000000002 L 387.656 166.21800000000002 C 381.59311619092506 164.61888901111934 375.69748478709835 162.4422671705608 370.05 159.71800000000002 C 365.4195500546406 157.38553037926312 361.48109445414394 153.88046694280604 358.627 149.55200000000002 Q 354.22700000000003 142.95200000000003 354.22700000000003 132.574 C 354.22700000000003 123.561 357.057 116.22500000000001 362.821 110.46100000000001 C 368.58500000000004 104.69700000000002 376.86400000000003 101.34300000000002 387.65900000000005 100.4 L 387.65900000000005 92.119 C 387.65900000000005 87.719 389.33600000000007 85.519 392.58500000000004 85.519 C 395.939 85.519 397.615 87.619 397.615 91.912 Z M 387.76 145.672 L 387.76 115.7 C 383.36 117.062 379.9 118.739 377.49 120.83500000000001 C 375.08000000000004 122.93100000000001 373.822 126.28500000000001 373.822 130.58100000000002 C 373.822 134.668 374.975 137.812 377.28000000000003 139.90800000000002 C 380.36657197993753 142.49065005061607 383.925989242469 144.44832954500836 387.76 145.672 Z M 397.716 168.938 L 397.716 203.31199999999998 C 402.956 202.26399999999998 407.043 200.16799999999998 409.978 196.91899999999998 C 412.7691673771477 193.8539011644515 414.3042877885188 189.85044993349442 414.278 185.70499999999998 C 414.278 181.19899999999998 412.916 177.635 410.086 175.11999999999998 C 407.25600000000003 172.60499999999996 403.16900000000004 170.509 397.72 168.83199999999997 Z M 481.03200000000004 74.40799999999999 C 438.7839678380871 32.158110345209295 372.57414132525315 25.635732829001448 322.8940787341115 58.82971991004163 C 273.2140161429698 92.02370699108181 253.90043132611797 155.68898777147083 276.76482094882857 210.89015700344365 C 299.62921057153915 266.09132623541643 358.30346638025776 297.45395113539166 416.9045152223849 285.7977737174449 C 475.505564064512 274.141596299498 517.7120508128664 222.71305352717678 517.712 162.964 C 517.7486655961354 129.74198959280147 504.5489394490445 97.87407932339616 481.03200000000004 74.40799999999999 Z M 490.778 64.66199999999999 C 443.87139043457535 17.663874052277144 370.294173706096 10.35394157322662 315.0572007725077 47.20405262672611 C 259.82022783891944 84.0541636802256 238.31406670298526 154.79684505118541 263.69510811456644 216.15527234837754 C 289.0761495261476 277.51369964556966 354.272524353394 312.3916962013224 419.40036037568524 299.45265301510693 C 484.5281963979765 286.5136098288915 531.4410540850545 229.3627067914951 531.44 162.96199999999993 C 531.4996206659747 126.09135582595346 516.8666746161298 90.71634729957117 490.778 64.662 Z M 238.42 52.4 C 232.4956967422195 50.23331832019839 226.39445021165469 48.585128552742255 220.1850000000001 47.474 C 146.51 33.431 18.969 4.4 18.969 4.4 C 8.174 1.886 -0.1 4.4 -0.1 8.594 L -0.1 12.786 C -0.1 28.506 0.734 39.3 0.734 39.3 C 1.572 50.093999999999994 11.528 60.784 22.218000000000004 62.461 L 148.082 85.622 C 158.876 87.299 167.156 94.74 167.156 97.255 C 167.156 99.77 158.877 99.77 148.082 97.255 L 23.894 74.932 C 13.1 73.255 6.5 79.858 9.013 90.652 L 17.292 120.415 C 20.646 130.371 32.174 139.489 43.806 139.489 L 151.43599999999998 142.84300000000002 C 162.23 142.84300000000002 172.18599999999998 149.443 172.18599999999998 151.122 C 172.18599999999998 152.80100000000002 163.90699999999998 154.47600000000003 153.11199999999997 154.47600000000003 L 48.732 151.122 C 37.938 151.122 33.012 158.56300000000002 37.938 167.68 L 51.981 191.68 C 57.745000000000005 200.798 71.055 207.4 81.744 205.723 L 162.02100000000002 196.60500000000002 C 172.81500000000003 195.76700000000002 183.50500000000002 199.95900000000003 183.50500000000002 201.531 C 183.50500000000002 203.208 176.06400000000002 206.457 165.27000000000004 207.29500000000002 L 89.08000000000004 215.574 C 78.28600000000004 216.412 75.03700000000003 224.692 82.48000000000005 232.97400000000002 L 98.20000000000005 250.37400000000002 C 105.64100000000005 257.815 120.52200000000005 261.168 130.47800000000004 257.815 L 177.63800000000003 242.095 C 187.59400000000002 238.74099999999999 198.38800000000003 241.257 199.96000000000004 242.933 C 200.79800000000003 244.60999999999999 193.36000000000004 249.533 183.40200000000004 252.88899999999998 L 141.16800000000003 266.93199999999996 C 131.21200000000005 270.28599999999994 142.84500000000003 289.25399999999996 150.28600000000003 295.12299999999993 C 158.56500000000003 300.88699999999994 172.60800000000003 300.88699999999994 181.72600000000003 295.12299999999993 L 200.8 283.484 C 209.918 277.71999999999997 220.71200000000002 277.71999999999997 222.28400000000002 279.292 C 223.961 280.969 217.35800000000003 286.73299999999995 207.40200000000002 292.49199999999996 L 192.52 301.60999999999996 C 183.40200000000002 307.37399999999997 197.446 323.93199999999996 206.56300000000002 328.12399999999997 C 215.681 332.21099999999996 228.88500000000002 329.801 236.32600000000002 322.35999999999996 C 243.76700000000002 314.9189999999999 254.56100000000004 312.40399999999994 256.238 314.08099999999996 C 257.91499999999996 315.758 253.723 321.52199999999993 246.282 328.12399999999997 C 239.68200000000002 334.724 242.09 343.006 252.04600000000002 345.52399999999994 L 352.235 365.4359999999999 C 363.029 367.11299999999994 372.357 360.6149999999999 372.357 349.8209999999999 C 372.567 344.6859999999999 370.471 340.1789999999999 364.81100000000004 339.3409999999999 C 279.189 326.2409999999999 213.48000000000005 252.2519999999999 213.48000000000005 162.9629999999999 C 213.42767175718643 128.43289439052 223.44291668751424 94.63648164904968 242.29999999999995 65.71000000000004 C 243.776774434519 63.40884588930517 244.12615957754338 60.56072918942425 243.2493785535203 57.970858920949475 C 242.3725975294972 55.3809886524747 240.3649387203675 53.33083138523137 237.794 52.39999999999999 Z" stroke-linecap="round" />
</g>
<g transform="matrix(1.35 0 0 1.35 538.77 840.94)" style=""  >
		<text xml:space="preserve" font-family="SegoeUI-Bold, Segoe UI" font-size="80" font-style="normal" font-weight="700" style="stroke: none; stroke-width: 2; stroke-dasharray: ; stroke-linecap: butt; stroke-dashoffset: 0; stroke-linejoin: miter; stroke-miterlimit: 4; fill: rgb(111,54,137); fill-rule: nonzero; opacity: 1; white-space: pre;" ><tspan x="-51.31" y="25.13" >+∞</tspan></text>
</g>
<g transform="matrix(0.42 0 0 0.42 -121.5 -106.5)"  >
<rect style="stroke: none; stroke-width: 1; stroke-dasharray: none; stroke-linecap: butt; stroke-dashoffset: 0; stroke-linejoin: miter; stroke-miterlimit: 4; fill: rgb(255,255,255); fill-opacity: 0; fill-rule: nonzero; opacity: 1;"  x="-50" y="-50" rx="0" ry="0" width="100" height="100" />
</g>
<g transform="matrix(0.42 0 0 0.42 84.01 99.01)"  >
<rect style="stroke: none; stroke-width: 1; stroke-dasharray: none; stroke-linecap: butt; stroke-dashoffset: 0; stroke-linejoin: miter; stroke-miterlimit: 4; fill: rgb(255,255,255); fill-rule: nonzero; opacity: 1; visibility: hidden;"  x="-540" y="-540" rx="0" ry="0" width="1080" height="1080" />
</g>
<g transform="matrix(0.95 0 0 0.95 536.92 735.28)" style=""  >
		<text xml:space="preserve" font-family="'Open Sans', sans-serif" font-size="93" font-style="normal" font-weight="bold" style="stroke: none; stroke-width: 27; stroke-dasharray: none; stroke-linecap: butt; stroke-dashoffset: 0; stroke-linejoin: miter; stroke-miterlimit: 4; fill: rgb(49,181,185); fill-rule: nonzero; opacity: 1; white-space: pre;" ><tspan x="-293.94" y="29.22" >N</tspan><tspan x="-217.34" y="29.22" >O</tspan><tspan x="-142.32" y="29.22" >N</tspan><tspan x="-65.71" y="29.22" style="white-space: pre; "> </tspan><tspan x="-40.55" y="29.22" >P</tspan><tspan x="18.85" y="29.22" >R</tspan><tspan x="81.24" y="29.22" >O</tspan><tspan x="156.26" y="29.22" >F</tspan><tspan x="208.3" y="29.22" >I</tspan><tspan x="240.09" y="29.22" >T</tspan></text>
</g>
</svg>