<?xml version="1.0" encoding="UTF-8"?>
<!DOCTYPE svg PUBLIC "-//W3C//DTD SVG 1.1//EN" "http://www.w3.org/Graphics/SVG/1.1/DTD/svg11.dtd">
<svg xmlns="http://www.w3.org/2000/svg" version="1.1" width="1080px" height="1080px" style="shape-rendering:geometricPrecision; text-rendering:geometricPrecision; image-rendering:optimizeQuality; fill-rule:evenodd; clip-rule:evenodd" xmlns:xlink="http://www.w3.org/1999/xlink">
<g><path style="opacity:0.996" fill="#f37b7b" d="M 654.5,225.5 C 660.714,227.211 664.88,231.211 667,237.5C 667.667,278.833 667.667,320.167 667,361.5C 665.5,367 662,370.5 656.5,372C 663.492,372.5 670.492,372.666 677.5,372.5C 644.338,373.498 611.004,373.832 577.5,373.5C 577.666,364.161 577.5,354.827 577,345.5C 576.5,345 576,344.5 575.5,344C 550.791,343.177 526.124,343.343 501.5,344.5C 500.808,345.025 500.308,345.692 500,346.5C 499.5,355.494 499.334,364.494 499.5,373.5C 467.498,373.667 435.498,373.5 403.5,373C 398.16,371.59 394.327,368.423 392,363.5C 391.806,333.319 391.306,303.152 390.5,273C 391.266,260.183 391.766,247.35 392,234.5C 394.315,230.183 397.815,227.35 402.5,226C 415.412,226.004 428.245,225.17 441,223.5C 443.547,223.762 446.047,224.262 448.5,225C 517.166,225.5 585.833,225.667 654.5,225.5 Z"/></g>
<g><path style="opacity:1" fill="#ed6161" d="M 654.5,225.5 C 662.507,225.334 670.507,225.5 678.5,226C 683.185,227.35 686.685,230.183 689,234.5C 689.667,277.5 689.667,320.5 689,363.5C 687.067,368.933 683.234,371.933 677.5,372.5C 670.492,372.666 663.492,372.5 656.5,372C 662,370.5 665.5,367 667,361.5C 667.667,320.167 667.667,278.833 667,237.5C 664.88,231.211 660.714,227.211 654.5,225.5 Z"/></g>
<g><path style="opacity:1" fill="#e1e1e1" d="M 577.5,373.5 C 577.833,374.167 578.167,374.833 578.5,375.5C 577.814,381.234 577.148,387.067 576.5,393C 566.939,394.448 557.273,394.948 547.5,394.5C 541.5,394.5 535.5,394.5 529.5,394.5C 520.494,394.666 511.494,394.5 502.5,394C 501.667,393.167 500.833,392.333 500,391.5C 499.826,386.316 499.326,381.316 498.5,376.5C 498.557,375.391 498.89,374.391 499.5,373.5C 499.334,364.494 499.5,355.494 500,346.5C 500.308,345.692 500.808,345.025 501.5,344.5C 526.124,343.343 550.791,343.177 575.5,344C 576,344.5 576.5,345 577,345.5C 577.5,354.827 577.666,364.161 577.5,373.5 Z"/></g>
<g><path style="opacity:0.999" fill="#d9ac80" d="M 578.5,375.5 C 648.676,412.089 719.01,448.422 789.5,484.5C 757.602,500.401 725.936,516.734 694.5,533.5C 659.981,514.406 624.981,496.072 589.5,478.5C 587.681,475.345 585.015,473.345 581.5,472.5C 579.735,471.539 577.735,471.205 575.5,471.5C 566.201,466.516 556.868,461.516 547.5,456.5C 547.5,441.5 547.5,426.5 547.5,411.5C 547.5,405.833 547.5,400.167 547.5,394.5C 557.273,394.948 566.939,394.448 576.5,393C 577.148,387.067 577.814,381.234 578.5,375.5 Z"/></g>
<g><path style="opacity:0.998" fill="#d9ac80" d="M 498.5,376.5 C 499.326,381.316 499.826,386.316 500,391.5C 500.833,392.333 501.667,393.167 502.5,394C 511.494,394.5 520.494,394.666 529.5,394.5C 529.5,400.167 529.5,405.833 529.5,411.5C 529.5,423.5 529.5,435.5 529.5,447.5C 501.463,433.103 473.463,418.77 445.5,404.5C 463.325,395.421 480.992,386.088 498.5,376.5 Z"/></g>
<g><path style="opacity:1" fill="#acacab" d="M 529.5,394.5 C 535.5,394.5 541.5,394.5 547.5,394.5C 547.5,400.167 547.5,405.833 547.5,411.5C 541.5,411.5 535.5,411.5 529.5,411.5C 529.5,405.833 529.5,400.167 529.5,394.5 Z"/></g>
<g><path style="opacity:1" fill="#f1d2b9" d="M 445.5,404.5 C 473.463,418.77 501.463,433.103 529.5,447.5C 529.5,455.5 529.5,463.5 529.5,471.5C 518.321,471.172 507.321,471.505 496.5,472.5C 490.774,473.238 487.774,476.571 487.5,482.5C 487.967,484.568 488.634,486.568 489.5,488.5C 491.188,489.521 492.521,490.855 493.5,492.5C 456.86,473.846 420.193,455.18 383.5,436.5C 403.845,425.327 424.512,414.66 445.5,404.5 Z"/></g>
<g><path style="opacity:1" fill="#bebdbc" d="M 529.5,411.5 C 535.5,411.5 541.5,411.5 547.5,411.5C 547.5,426.5 547.5,441.5 547.5,456.5C 547.5,461.5 547.5,466.5 547.5,471.5C 551.833,471.5 556.167,471.5 560.5,471.5C 539.34,472.497 518.007,472.831 496.5,472.5C 507.321,471.505 518.321,471.172 529.5,471.5C 529.5,463.5 529.5,455.5 529.5,447.5C 529.5,435.5 529.5,423.5 529.5,411.5 Z"/></g>
<g><path style="opacity:1" fill="#d8ac80" d="M 383.5,436.5 C 420.193,455.18 456.86,473.846 493.5,492.5C 539.531,516.515 585.531,540.515 631.5,564.5C 600.868,580.483 570.201,596.483 539.5,612.5C 456.453,569.309 373.119,526.643 289.5,484.5C 320.513,467.993 351.847,451.993 383.5,436.5 Z"/></g>
<g><path style="opacity:1" fill="#efd1b8" d="M 547.5,456.5 C 556.868,461.516 566.201,466.516 575.5,471.5C 570.5,471.5 565.5,471.5 560.5,471.5C 556.167,471.5 551.833,471.5 547.5,471.5C 547.5,466.5 547.5,461.5 547.5,456.5 Z"/></g>
<g><path style="opacity:1" fill="#838282" d="M 560.5,471.5 C 565.5,471.5 570.5,471.5 575.5,471.5C 577.735,471.205 579.735,471.539 581.5,472.5C 575.491,472.334 569.491,472.501 563.5,473C 571.5,479.333 571.5,485.667 563.5,492C 569.157,492.499 574.824,492.666 580.5,492.5C 551.675,492.704 522.675,492.704 493.5,492.5C 492.521,490.855 491.188,489.521 489.5,488.5C 488.634,486.568 487.967,484.568 487.5,482.5C 487.774,476.571 490.774,473.238 496.5,472.5C 518.007,472.831 539.34,472.497 560.5,471.5 Z"/></g>
<g><path style="opacity:1" fill="#5b5a5a" d="M 581.5,472.5 C 585.015,473.345 587.681,475.345 589.5,478.5C 590.956,486.293 587.956,490.96 580.5,492.5C 574.824,492.666 569.157,492.499 563.5,492C 571.5,485.667 571.5,479.333 563.5,473C 569.491,472.501 575.491,472.334 581.5,472.5 Z"/></g>
<g><path style="opacity:1" fill="#f1d2b9" d="M 589.5,478.5 C 624.981,496.072 659.981,514.406 694.5,533.5C 693.833,533.5 693.5,533.833 693.5,534.5C 673.013,544.244 652.679,554.244 632.5,564.5C 632.167,564.5 631.833,564.5 631.5,564.5C 585.531,540.515 539.531,516.515 493.5,492.5C 522.675,492.704 551.675,492.704 580.5,492.5C 587.956,490.96 590.956,486.293 589.5,478.5 Z"/></g>
<g><path style="opacity:0.998" fill="#a67e4f" d="M 789.5,484.5 C 789.667,570.167 789.5,655.834 789,741.5C 705.923,784.094 622.756,826.427 539.5,868.5C 539.5,783.167 539.5,697.833 539.5,612.5C 570.201,596.483 600.868,580.483 631.5,564.5C 631.833,564.5 632.167,564.5 632.5,564.5C 632.333,583.503 632.5,602.503 633,621.5C 644.525,608.277 655.691,594.777 666.5,581C 675.594,583.308 684.594,586.141 693.5,589.5C 693.5,571.167 693.5,552.833 693.5,534.5C 693.5,533.833 693.833,533.5 694.5,533.5C 725.936,516.734 757.602,500.401 789.5,484.5 Z"/></g>
<g><path style="opacity:1" fill="#926e43" d="M 289.5,484.5 C 373.119,526.643 456.453,569.309 539.5,612.5C 539.5,697.833 539.5,783.167 539.5,868.5C 456.244,826.427 373.077,784.094 290,741.5C 289.5,655.834 289.333,570.167 289.5,484.5 Z"/></g>
<g><path style="opacity:1" fill="#d6b9a2" d="M 693.5,534.5 C 693.5,552.833 693.5,571.167 693.5,589.5C 684.594,586.141 675.594,583.308 666.5,581C 655.691,594.777 644.525,608.277 633,621.5C 632.5,602.503 632.333,583.503 632.5,564.5C 652.679,554.244 673.013,544.244 693.5,534.5 Z"/></g>
</svg>
