<?xml version="1.0" encoding="UTF-8" ?>
<!DOCTYPE svg PUBLIC "-//W3C//DTD SVG 1.1//EN" "http://www.w3.org/Graphics/SVG/1.1/DTD/svg11.dtd">
<svg width="875pt" height="710pt" viewBox="0 0 875 710" version="1.1" xmlns="http://www.w3.org/2000/svg">
<g id="#fffef9ff">
</g>
<g id="#4e8bd0ff">
<path fill="#4e8bd0" opacity="1.00" d=" M 417.49 145.75 C 419.82 138.24 427.15 132.68 435.03 132.56 C 443.29 132.12 451.40 137.87 453.67 145.83 L 453.65 146.97 C 451.94 145.94 450.17 144.77 448.08 144.94 C 440.30 144.83 432.52 145.05 424.74 144.87 C 425.85 142.70 427.27 140.71 428.66 138.72 C 424.97 140.06 423.04 143.55 421.36 146.85 C 420.52 148.00 419.63 149.12 418.75 150.24 C 418.31 148.75 417.87 147.25 417.49 145.75 Z" />
</g>
<g id="#f4f5ffff">
<path fill="#f4f5ff" opacity="1.00" d=" M 421.36 146.85 C 423.04 143.55 424.97 140.06 428.66 138.72 C 427.27 140.71 425.85 142.70 424.74 144.87 C 423.69 148.15 423.26 151.59 423.39 155.03 C 423.77 157.06 424.28 159.07 424.61 161.12 L 424.55 161.76 C 424.29 161.56 423.76 161.15 423.49 160.95 C 420.98 156.68 420.78 151.64 421.36 146.85 Z" />
</g>
<g id="#5d7ed7ff">
<path fill="#5d7ed7" opacity="1.00" d=" M 424.74 144.87 C 432.52 145.05 440.30 144.83 448.08 144.94 C 450.17 144.77 451.94 145.94 453.65 146.97 C 453.35 149.07 453.45 152.26 450.68 152.64 C 443.15 153.49 435.47 153.15 427.97 152.07 C 425.80 151.48 424.77 153.87 423.39 155.03 C 423.26 151.59 423.69 148.15 424.74 144.87 Z" />
</g>
<g id="#6978d0ff">
<path fill="#6978d0" opacity="1.00" d=" M 420.06 162.29 C 416.39 157.71 415.75 151.23 417.49 145.75 C 417.87 147.25 418.31 148.75 418.75 150.24 C 419.63 149.12 420.52 148.00 421.36 146.85 C 420.78 151.64 420.98 156.68 423.49 160.95 C 421.54 159.80 420.46 157.81 419.48 155.86 C 419.74 158.00 419.90 160.14 420.06 162.29 Z" />
</g>
<g id="#6973dbff">
<path fill="#6973db" opacity="1.00" d=" M 453.67 145.83 C 455.67 151.27 454.48 157.41 451.59 162.30 C 448.58 159.01 443.93 160.07 439.99 160.03 C 435.70 160.37 431.46 159.56 427.21 159.26 C 426.28 159.80 425.42 160.42 424.61 161.12 C 424.28 159.07 423.77 157.06 423.39 155.03 C 424.77 153.87 425.80 151.48 427.97 152.07 C 435.47 153.15 443.15 153.49 450.68 152.64 C 453.45 152.26 453.35 149.07 453.65 146.97 L 453.67 145.83 Z" />
</g>
<g id="#7468dfff">
<path fill="#7468df" opacity="1.00" d=" M 420.06 162.29 C 419.90 160.14 419.74 158.00 419.48 155.86 C 420.46 157.81 421.54 159.80 423.49 160.95 C 423.76 161.15 424.29 161.56 424.55 161.76 L 424.61 161.12 C 425.42 160.42 426.28 159.80 427.21 159.26 C 431.46 159.56 435.70 160.37 439.99 160.03 C 443.93 160.07 448.58 159.01 451.59 162.30 C 447.90 167.12 442.27 170.80 436.02 170.57 C 429.78 171.02 423.93 167.65 420.10 162.92 L 420.06 162.29 Z" />
</g>
<g id="#4694cdff">
<path fill="#4694cd" opacity="1.00" d=" M 444.04 175.33 C 449.24 172.65 456.44 173.76 459.94 178.68 C 459.27 180.04 458.63 181.43 457.71 182.65 C 452.78 183.28 447.79 182.73 442.84 182.88 C 443.13 181.42 443.46 179.97 443.75 178.52 C 441.96 180.16 440.57 182.17 439.61 184.40 C 439.30 183.17 438.96 181.95 438.59 180.74 C 440.17 178.73 441.72 176.54 444.04 175.33 Z" />
</g>
<g id="#e5f3ffff">
<path fill="#e5f3ff" opacity="1.00" d=" M 439.61 184.40 C 440.57 182.17 441.96 180.16 443.75 178.52 C 443.46 179.97 443.13 181.42 442.84 182.88 C 442.42 184.98 442.32 187.14 442.56 189.27 C 443.00 191.24 443.51 193.21 443.94 195.19 C 440.84 192.44 439.51 188.48 439.61 184.40 Z" />
</g>
<g id="#5382d3ff">
<path fill="#5382d3" opacity="1.00" d=" M 457.71 182.65 C 458.63 181.43 459.27 180.04 459.94 178.68 C 462.63 181.90 462.88 186.20 462.32 190.19 C 455.74 189.70 449.09 190.40 442.56 189.27 C 442.32 187.14 442.42 184.98 442.84 182.88 C 447.79 182.73 452.78 183.28 457.71 182.65 Z" />
</g>
<g id="#6a71daff">
<path fill="#6a71da" opacity="1.00" d=" M 439.64 193.56 C 436.87 189.87 437.13 184.90 438.59 180.74 C 438.96 181.95 439.30 183.17 439.61 184.40 C 439.51 188.48 440.84 192.44 443.94 195.19 C 443.51 193.21 443.00 191.24 442.56 189.27 C 449.09 190.40 455.74 189.70 462.32 190.19 C 460.68 193.40 458.54 196.68 455.02 198.03 C 449.68 200.49 442.87 198.44 439.64 193.56 Z" />
</g>
<g id="#607ad8ff">
<path fill="#607ad8" opacity="1.00" d=" M 420.42 208.16 C 420.68 203.45 425.31 199.64 429.99 200.25 C 436.71 199.86 441.15 207.75 438.65 213.65 L 438.36 213.60 C 433.95 212.80 429.53 212.15 425.13 211.31 C 424.95 212.74 424.78 214.17 424.61 215.60 C 424.11 215.39 423.11 214.96 422.61 214.75 C 420.07 213.58 420.14 210.53 420.42 208.16 Z" />
</g>
<g id="#736adeff">
<path fill="#736ade" opacity="1.00" d=" M 425.13 211.31 C 429.53 212.15 433.95 212.80 438.36 213.60 C 435.61 220.86 424.49 221.06 421.15 214.17 L 422.61 214.75 C 423.11 214.96 424.11 215.39 424.61 215.60 C 424.78 214.17 424.95 212.74 425.13 211.31 Z" />
</g>
<g id="#8b53e6ff">
<path fill="#8b53e6" opacity="1.00" d=" M 424.60 233.91 C 432.72 233.23 440.90 233.29 449.04 233.72 C 452.71 234.09 456.60 234.40 459.80 236.44 C 456.59 236.51 453.40 236.05 450.21 236.10 C 449.74 236.71 448.82 237.95 448.35 238.56 C 439.57 238.20 430.69 237.85 421.99 239.25 C 423.31 239.60 424.64 239.94 425.98 240.26 L 424.43 241.56 C 424.21 241.74 423.77 242.10 423.54 242.28 C 423.52 242.69 423.48 243.51 423.45 243.92 C 422.94 251.85 423.15 259.79 423.16 267.72 C 421.31 266.83 419.31 266.34 417.27 266.20 C 416.86 265.02 416.46 263.84 416.11 262.66 C 415.40 256.91 416.75 250.90 414.64 245.38 C 414.40 244.45 414.21 243.52 414.06 242.58 C 413.28 241.00 411.57 238.87 413.46 237.36 C 416.53 234.77 420.78 234.47 424.60 233.91 M 424.68 234.68 C 427.44 235.06 430.23 235.05 433.01 234.98 C 438.42 234.79 443.87 235.68 449.24 234.62 C 444.56 233.60 439.75 234.06 435.01 234.13 C 431.56 234.29 428.07 233.87 424.68 234.68 Z" />
</g>
<g id="#7949bcff">
<path fill="#7949bc" opacity="1.00" d=" M 424.68 234.68 C 428.07 233.87 431.56 234.29 435.01 234.13 C 439.75 234.06 444.56 233.60 449.24 234.62 C 443.87 235.68 438.42 234.79 433.01 234.98 C 430.23 235.05 427.44 235.06 424.68 234.68 Z" />
</g>
<g id="#914ee9ff">
<path fill="#914ee9" opacity="1.00" d=" M 448.35 238.56 C 448.82 237.95 449.74 236.71 450.21 236.10 C 453.40 236.05 456.59 236.51 459.80 236.44 C 462.51 236.07 462.53 239.01 462.33 240.89 C 461.91 241.15 461.08 241.65 460.66 241.90 C 459.79 242.69 459.24 243.73 459.36 244.94 C 459.15 252.12 459.52 259.33 458.83 266.49 C 457.84 270.21 457.72 274.06 457.85 277.89 C 455.86 277.95 453.87 278.01 451.88 278.07 C 451.77 266.80 451.81 255.53 451.67 244.26 C 442.26 244.29 432.84 244.60 423.45 243.92 C 423.48 243.51 423.52 242.69 423.54 242.28 C 423.77 242.10 424.21 241.74 424.43 241.56 C 433.19 242.24 441.98 241.99 450.76 241.80 C 450.62 241.30 450.35 240.31 450.21 239.81 C 450.94 239.69 452.40 239.46 453.12 239.34 C 451.54 239.05 449.94 238.78 448.35 238.56 Z" />
</g>
<g id="#fee8ffff">
<path fill="#fee8ff" opacity="1.00" d=" M 421.99 239.25 C 430.69 237.85 439.57 238.20 448.35 238.56 C 449.94 238.78 451.54 239.05 453.12 239.34 C 452.40 239.46 450.94 239.69 450.21 239.81 C 442.19 241.06 434.05 240.52 425.98 240.26 C 424.64 239.94 423.31 239.60 421.99 239.25 Z" />
</g>
<g id="#8b4ed7ff">
<path fill="#8b4ed7" opacity="1.00" d=" M 425.98 240.26 C 434.05 240.52 442.19 241.06 450.21 239.81 C 450.35 240.31 450.62 241.30 450.76 241.80 C 441.98 241.99 433.19 242.24 424.43 241.56 L 425.98 240.26 Z" />
</g>
<g id="#7c5ee1ff">
<path fill="#7c5ee1" opacity="1.00" d=" M 459.36 244.94 C 459.24 243.73 459.79 242.69 460.66 241.90 C 460.65 273.71 460.86 305.53 460.57 337.34 C 464.22 339.02 468.21 339.74 471.89 341.36 C 501.76 353.51 524.76 382.37 527.93 414.70 C 528.14 420.05 528.29 425.42 527.75 430.77 C 525.95 428.53 523.99 426.43 521.88 424.49 C 517.58 428.49 520.14 434.91 518.23 439.93 C 519.44 426.29 519.57 412.12 514.65 399.12 C 505.17 371.56 479.98 350.28 451.26 345.37 C 452.36 340.30 451.73 335.11 451.80 329.98 C 451.86 321.87 451.76 313.75 452.20 305.64 C 452.67 307.81 453.11 310.02 454.05 312.05 C 455.09 313.12 456.69 313.37 458.02 313.97 C 459.64 307.78 458.76 301.35 459.04 295.03 C 458.94 285.52 459.97 275.97 458.83 266.49 C 459.52 259.33 459.15 252.12 459.36 244.94 Z" />
</g>
<g id="#9577d4ff">
<path fill="#9577d4" opacity="1.00" d=" M 423.16 267.72 C 423.15 259.79 422.94 251.85 423.45 243.92 C 432.84 244.60 442.26 244.29 451.67 244.26 C 451.81 255.53 451.77 266.80 451.88 278.07 C 451.90 287.26 451.39 296.47 452.20 305.64 C 451.76 313.75 451.86 321.87 451.80 329.98 C 451.73 335.11 452.36 340.30 451.26 345.37 C 450.69 340.28 450.90 335.15 450.89 330.04 C 450.88 301.73 450.89 273.42 450.89 245.12 C 441.97 245.51 433.04 245.55 424.12 245.12 C 424.00 271.75 424.25 298.39 423.95 325.02 C 424.07 331.71 424.41 338.43 423.66 345.11 C 422.80 334.99 423.60 324.84 423.14 314.71 C 422.94 299.05 423.35 283.38 423.16 267.72 Z" />
</g>
<g id="#7653d0ff">
<path fill="#7653d0" opacity="1.00" d=" M 414.64 245.38 C 416.75 250.90 415.40 256.91 416.11 262.66 C 415.80 279.67 416.15 296.69 416.01 313.71 L 414.31 313.81 C 414.33 294.88 414.29 275.94 414.31 257.01 C 414.34 253.13 414.11 249.23 414.64 245.38 Z" />
</g>
<g id="#7f5ce4ff">
<path fill="#7f5ce4" opacity="1.00" d=" M 416.11 262.66 C 416.46 263.84 416.86 265.02 417.27 266.20 C 419.31 266.34 421.31 266.83 423.16 267.72 C 423.35 283.38 422.94 299.05 423.14 314.71 C 422.14 314.52 421.13 314.35 420.13 314.19 C 418.76 313.96 417.38 313.82 416.01 313.71 C 416.15 296.69 415.80 279.67 416.11 262.66 Z" />
</g>
<g id="#8754e7ff">
<path fill="#8754e7" opacity="1.00" d=" M 457.85 277.89 C 457.72 274.06 457.84 270.21 458.83 266.49 C 459.97 275.97 458.94 285.52 459.04 295.03 C 458.76 301.35 459.64 307.78 458.02 313.97 C 456.69 313.37 455.09 313.12 454.05 312.05 C 453.11 310.02 452.67 307.81 452.20 305.64 C 451.39 296.47 451.90 287.26 451.88 278.07 C 453.87 278.01 455.86 277.95 457.85 277.89 Z" />
</g>
<g id="#7566ddff">
<path fill="#7566dd" opacity="1.00" d=" M 420.13 314.19 C 421.13 314.35 422.14 314.52 423.14 314.71 C 423.60 324.84 422.80 334.99 423.66 345.11 L 423.65 345.45 C 421.60 345.80 419.55 346.17 417.51 346.52 C 411.19 346.00 404.78 347.51 398.54 346.02 C 402.32 343.88 406.45 342.43 410.30 340.43 C 410.33 340.03 410.38 339.24 410.40 338.85 L 410.42 338.64 C 411.71 338.21 413.01 337.78 414.32 337.37 C 414.23 329.59 414.19 321.81 414.35 314.04 L 416.69 313.99 L 416.83 315.53 C 416.98 315.13 417.29 314.34 417.44 313.94 C 418.11 314.00 419.46 314.13 420.13 314.19 Z" />
</g>
<g id="#6775d8ff">
<path fill="#6775d8" opacity="1.00" d=" M 371.20 363.27 C 381.95 352.05 395.40 343.15 410.40 338.85 C 410.38 339.24 410.33 340.03 410.30 340.43 C 406.45 342.43 402.32 343.88 398.54 346.02 C 404.78 347.51 411.19 346.00 417.51 346.52 C 398.14 351.90 380.63 364.06 369.52 380.89 C 368.93 378.86 367.78 376.09 365.09 377.02 C 362.34 378.80 360.30 381.55 357.24 382.91 C 360.54 375.53 365.80 369.21 371.20 363.27 Z" />
</g>
<g id="#5685d3ff">
<path fill="#5685d3" opacity="1.00" d=" M 357.24 382.91 C 360.30 381.55 362.34 378.80 365.09 377.02 C 367.78 376.09 368.93 378.86 369.52 380.89 C 362.34 391.64 357.50 404.10 356.39 417.03 C 355.92 424.75 356.04 432.52 356.79 440.23 C 354.81 435.38 354.63 430.13 354.64 424.97 C 352.68 425.30 349.67 424.32 348.61 426.54 C 347.78 430.18 348.00 433.99 347.34 437.67 C 345.76 433.99 346.46 429.88 346.28 426.00 C 345.89 411.10 349.85 396.16 356.92 383.09 L 357.24 382.91 Z" />
</g>
<g id="#4594cfff">
<path fill="#4594cf" opacity="1.00" d=" M 375.87 400.29 C 379.54 396.34 385.13 395.89 390.17 396.67 C 389.48 397.39 388.79 398.11 388.11 398.84 C 391.17 401.51 392.69 405.30 393.75 409.12 C 395.33 410.20 397.14 411.07 398.37 412.59 C 399.15 415.69 397.80 419.26 399.91 422.05 C 405.18 430.17 411.03 438.31 413.31 447.88 C 413.85 450.52 416.32 452.08 417.53 454.38 C 418.71 457.67 418.72 461.35 420.48 464.45 C 422.63 468.23 425.84 471.36 427.51 475.43 C 428.81 478.59 430.28 481.70 432.27 484.50 C 433.10 484.55 433.94 484.60 434.78 484.66 C 435.49 486.70 436.33 488.75 436.60 490.92 C 433.52 493.07 429.18 491.98 425.60 492.73 C 417.44 492.11 409.48 488.84 402.64 484.42 C 405.14 484.75 407.47 485.80 409.96 486.17 C 412.28 485.97 412.60 482.95 412.04 481.19 C 409.84 476.85 405.66 473.70 404.42 468.85 C 404.02 466.14 401.28 465.27 399.69 463.46 C 398.39 460.85 396.94 458.34 395.47 455.83 C 395.39 454.20 395.80 452.60 396.05 451.01 C 394.34 448.36 392.73 445.67 391.17 442.94 C 389.44 439.80 386.22 437.94 384.07 435.13 C 383.82 435.62 383.34 436.60 383.09 437.09 C 381.47 426.34 383.54 415.62 384.77 404.96 C 384.00 406.05 383.24 407.15 382.53 408.27 C 381.42 404.76 379.96 401.02 375.87 400.29 Z" />
</g>
<g id="#5c7ed7ff">
<path fill="#5c7ed7" opacity="1.00" d=" M 390.17 396.67 C 402.62 399.72 413.33 407.37 423.20 415.24 C 420.51 415.04 417.15 416.58 418.07 419.83 C 419.94 422.69 422.39 425.28 423.21 428.72 C 425.32 436.83 430.46 443.59 433.82 451.16 C 435.41 454.74 437.56 458.04 439.23 461.59 C 441.90 467.71 444.50 474.07 449.03 479.08 C 451.77 481.53 450.32 485.62 451.26 488.79 C 453.23 490.38 456.02 490.29 458.42 490.73 C 447.97 494.07 436.29 495.76 425.60 492.73 C 429.18 491.98 433.52 493.07 436.60 490.92 C 436.33 488.75 435.49 486.70 434.78 484.66 C 433.94 484.60 433.10 484.55 432.27 484.50 C 430.28 481.70 428.81 478.59 427.51 475.43 C 425.84 471.36 422.63 468.23 420.48 464.45 C 418.72 461.35 418.71 457.67 417.53 454.38 C 416.32 452.08 413.85 450.52 413.31 447.88 C 411.03 438.31 405.18 430.17 399.91 422.05 C 397.80 419.26 399.15 415.69 398.37 412.59 C 397.14 411.07 395.33 410.20 393.75 409.12 C 392.69 405.30 391.17 401.51 388.11 398.84 C 388.79 398.11 389.48 397.39 390.17 396.67 Z" />
</g>
<g id="#5b7ebdff">
<path fill="#5b7ebd" opacity="1.00" d=" M 453.26 400.67 C 459.79 396.56 467.92 395.73 475.44 396.84 C 475.09 397.14 474.41 397.73 474.07 398.02 C 471.34 398.08 468.62 397.92 465.90 398.10 C 461.53 398.27 457.73 401.30 453.26 400.67 Z" />
</g>
<g id="#6378d9ff">
<path fill="#6378d9" opacity="1.00" d=" M 475.44 396.84 C 487.53 399.21 496.99 407.85 504.76 416.91 C 501.74 422.69 497.37 427.93 491.79 431.38 C 491.01 428.53 491.00 425.56 491.69 422.70 C 488.91 419.77 484.99 418.54 481.78 416.25 C 477.31 411.49 477.84 403.66 472.05 399.88 C 472.71 399.25 473.39 398.63 474.07 398.02 C 474.41 397.73 475.09 397.14 475.44 396.84 Z" />
</g>
<g id="#5683d5ff">
<path fill="#5683d5" opacity="1.00" d=" M 453.26 400.67 C 457.73 401.30 461.53 398.27 465.90 398.10 C 468.62 397.92 471.34 398.08 474.07 398.02 C 473.39 398.63 472.71 399.25 472.05 399.88 C 477.84 403.66 477.31 411.49 481.78 416.25 C 484.99 418.54 488.91 419.77 491.69 422.70 C 491.00 425.56 491.01 428.53 491.79 431.38 C 491.18 431.79 490.59 432.20 490.00 432.62 L 489.59 432.57 C 486.89 431.88 484.23 432.88 481.61 433.38 C 477.84 434.15 473.96 433.65 470.24 432.88 C 470.65 426.95 468.80 420.78 464.12 416.89 C 461.41 414.82 459.98 411.68 457.96 409.04 C 454.77 406.80 450.96 405.63 447.62 403.62 C 449.28 402.60 450.97 401.60 452.68 400.66 L 453.26 400.67 Z" />
</g>
<g id="#3c9bc9ff">
<path fill="#3c9bc9" opacity="1.00" d=" M 369.97 416.33 C 370.64 410.59 372.34 404.94 375.87 400.29 C 379.96 401.02 381.42 404.76 382.53 408.27 C 377.79 415.46 377.16 424.38 377.68 432.74 C 374.99 428.45 376.90 423.12 375.37 418.50 C 374.24 416.64 371.86 416.66 369.97 416.33 Z" />
</g>
<g id="#4991ceff">
<path fill="#4991ce" opacity="1.00" d=" M 437.66 411.93 C 440.66 408.80 443.97 405.97 447.62 403.62 C 450.96 405.63 454.77 406.80 457.96 409.04 C 459.98 411.68 461.41 414.82 464.12 416.89 C 468.80 420.78 470.65 426.95 470.24 432.88 C 466.55 431.91 463.27 429.43 459.34 429.47 L 458.84 429.43 C 450.89 424.79 443.97 418.59 437.66 411.93 Z" />
</g>
<g id="#f7fffcff">
<path fill="#f7fffc" opacity="1.00" d=" M 382.53 408.27 C 383.24 407.15 384.00 406.05 384.77 404.96 C 383.54 415.62 381.47 426.34 383.09 437.09 C 383.92 446.55 387.18 455.51 390.56 464.31 C 387.75 459.48 384.54 454.83 382.57 449.57 C 380.27 444.17 379.11 438.40 377.68 432.74 C 377.16 424.38 377.79 415.46 382.53 408.27 Z" />
</g>
<g id="#716adeff">
<path fill="#716ade" opacity="1.00" d=" M 418.07 419.83 C 417.15 416.58 420.51 415.04 423.20 415.24 C 431.02 421.19 437.41 428.81 445.30 434.71 C 449.00 437.83 453.35 440.01 457.25 442.86 C 453.86 442.68 450.88 441.07 448.12 439.24 C 448.05 442.08 447.57 445.01 448.35 447.79 C 450.42 452.70 454.83 456.28 456.46 461.44 C 458.05 466.52 461.36 470.86 462.66 476.06 C 462.36 476.33 461.76 476.87 461.45 477.14 C 463.03 480.72 464.10 484.49 465.05 488.28 C 462.85 489.12 460.74 490.26 458.42 490.73 C 456.02 490.29 453.23 490.38 451.26 488.79 C 450.32 485.62 451.77 481.53 449.03 479.08 C 444.50 474.07 441.90 467.71 439.23 461.59 C 437.56 458.04 435.41 454.74 433.82 451.16 C 430.46 443.59 425.32 436.83 423.21 428.72 C 422.39 425.28 419.94 422.69 418.07 419.83 Z" />
</g>
<g id="#8678e2ff">
<path fill="#8678e2" opacity="1.00" d=" M 527.93 414.70 C 529.54 424.76 528.90 435.36 526.75 445.31 C 526.52 444.42 526.05 442.63 525.82 441.73 C 524.64 444.31 523.29 446.81 521.79 449.22 C 522.54 450.82 522.63 452.56 522.21 454.28 C 519.80 452.97 517.65 451.24 515.86 449.17 C 516.62 446.08 517.44 443.01 518.23 439.93 C 520.14 434.91 517.58 428.49 521.88 424.49 C 523.99 426.43 525.95 428.53 527.75 430.77 C 528.29 425.42 528.14 420.05 527.93 414.70 Z" />
</g>
<g id="#26b0c0ff">
<path fill="#26b0c0" opacity="1.00" d=" M 369.68 416.29 L 369.97 416.33 C 371.86 416.66 374.24 416.64 375.37 418.50 C 376.90 423.12 374.99 428.45 377.68 432.74 C 379.11 438.40 380.27 444.17 382.57 449.57 C 384.54 454.83 387.75 459.48 390.56 464.31 C 390.68 464.59 390.91 465.17 391.03 465.45 C 391.60 465.22 392.17 464.99 392.74 464.77 C 394.37 465.92 396.19 466.88 397.49 468.43 C 398.92 472.43 399.65 477.15 397.00 480.84 C 383.90 471.34 374.56 456.93 370.92 441.19 C 368.72 433.08 369.31 424.58 369.68 416.29 Z" />
</g>
<g id="#4692cdff">
<path fill="#4692cd" opacity="1.00" d=" M 348.61 426.54 C 349.67 424.32 352.68 425.30 354.64 424.97 C 354.63 430.13 354.81 435.38 356.79 440.23 C 359.45 452.94 364.55 465.23 372.60 475.49 C 384.35 490.94 401.73 502.06 420.78 505.92 C 420.47 507.22 420.16 508.53 419.87 509.84 C 421.15 510.40 422.44 510.97 423.74 511.55 C 422.94 512.29 422.13 513.01 421.35 513.76 C 421.51 514.31 421.83 515.41 421.98 515.97 C 402.21 512.64 383.68 502.55 370.18 487.73 C 359.14 475.83 351.60 460.90 348.04 445.10 C 347.48 442.67 347.13 440.16 347.34 437.67 C 348.00 433.99 347.78 430.18 348.61 426.54 Z" />
</g>
<g id="#5886b6ff">
<path fill="#5886b6" opacity="1.00" d=" M 459.34 429.47 C 463.27 429.43 466.55 431.91 470.24 432.88 C 473.96 433.65 477.84 434.15 481.61 433.38 C 484.23 432.88 486.89 431.88 489.59 432.57 C 480.07 437.96 468.02 435.26 459.34 429.47 Z" />
</g>
<g id="#32a5c8ff">
<path fill="#32a5c8" opacity="1.00" d=" M 384.07 435.13 C 386.22 437.94 389.44 439.80 391.17 442.94 C 392.73 445.67 394.34 448.36 396.05 451.01 C 395.80 452.60 395.39 454.20 395.47 455.83 C 396.94 458.34 398.39 460.85 399.69 463.46 C 401.28 465.27 404.02 466.14 404.42 468.85 C 405.66 473.70 409.84 476.85 412.04 481.19 C 412.60 482.95 412.28 485.97 409.96 486.17 C 407.47 485.80 405.14 484.75 402.64 484.42 L 401.97 484.28 C 400.27 483.19 398.62 482.03 397.00 480.84 C 399.65 477.15 398.92 472.43 397.49 468.43 C 396.19 466.88 394.37 465.92 392.74 464.77 C 392.17 464.99 391.60 465.22 391.03 465.45 C 390.91 465.17 390.68 464.59 390.56 464.31 C 387.18 455.51 383.92 446.55 383.09 437.09 C 383.34 436.60 383.82 435.62 384.07 435.13 Z" />
</g>
<g id="#9f3feeff">
<path fill="#9f3fee" opacity="1.00" d=" M 474.57 447.70 C 485.80 449.74 497.25 444.14 504.93 436.14 C 503.79 445.53 499.89 454.25 495.24 462.38 C 494.53 461.55 493.82 460.73 493.13 459.91 C 490.72 462.75 488.41 465.92 484.80 467.27 C 484.50 465.79 485.20 463.85 483.97 462.73 C 482.42 463.05 481.35 464.36 480.12 465.24 C 477.77 462.08 475.67 458.74 473.47 455.47 C 471.87 453.16 472.26 450.10 474.24 448.17 L 474.57 447.70 Z" />
</g>
<g id="#8953e7ff">
<path fill="#8953e7" opacity="1.00" d=" M 448.12 439.24 C 450.88 441.07 453.86 442.68 457.25 442.86 C 462.82 444.86 468.30 447.30 474.24 448.17 C 472.26 450.10 471.87 453.16 473.47 455.47 C 475.67 458.74 477.77 462.08 480.12 465.24 C 481.34 468.11 482.26 471.10 483.13 474.10 C 485.58 472.18 487.80 469.99 489.93 467.72 C 489.88 468.24 489.78 469.29 489.73 469.81 C 486.84 473.20 483.69 476.40 480.16 479.14 C 478.64 478.28 477.13 477.43 475.62 476.58 C 475.59 475.37 475.55 474.15 475.52 472.96 C 473.97 473.42 472.49 474.08 471.08 474.89 C 471.63 475.53 472.18 476.17 472.74 476.82 C 469.35 477.31 465.91 477.23 462.66 476.06 C 461.36 470.86 458.05 466.52 456.46 461.44 C 454.83 456.28 450.42 452.70 448.35 447.79 C 447.57 445.01 448.05 442.08 448.12 439.24 Z" />
</g>
<g id="#6f6cdbff">
<path fill="#6f6cdb" opacity="1.00" d=" M 521.79 449.22 C 523.29 446.81 524.64 444.31 525.82 441.73 C 526.05 442.63 526.52 444.42 526.75 445.31 C 525.16 453.67 521.93 461.66 518.04 469.20 C 517.10 470.92 516.24 472.74 514.81 474.11 C 511.69 476.76 508.02 478.76 503.86 478.98 C 504.70 474.14 508.61 470.87 511.08 466.87 C 510.55 466.54 509.49 465.89 508.96 465.56 C 511.75 460.33 514.40 454.95 515.86 449.17 C 517.65 451.24 519.80 452.97 522.21 454.28 C 522.63 452.56 522.54 450.82 521.79 449.22 Z" />
</g>
<g id="#ac5eeeff">
<path fill="#ac5eee" opacity="1.00" d=" M 484.80 467.27 C 488.41 465.92 490.72 462.75 493.13 459.91 C 493.82 460.73 494.53 461.55 495.24 462.38 C 493.54 464.95 492.00 467.68 489.73 469.81 C 489.78 469.29 489.88 468.24 489.93 467.72 C 487.80 469.99 485.58 472.18 483.13 474.10 C 482.26 471.10 481.34 468.11 480.12 465.24 C 481.35 464.36 482.42 463.05 483.97 462.73 C 485.20 463.85 484.50 465.79 484.80 467.27 Z" />
</g>
<g id="#6277d7ff">
<path fill="#6277d7" opacity="1.00" d=" M 508.96 465.56 C 509.49 465.89 510.55 466.54 511.08 466.87 C 508.61 470.87 504.70 474.14 503.86 478.98 C 508.02 478.76 511.69 476.76 514.81 474.11 C 509.98 483.04 502.70 490.47 494.96 496.95 C 493.45 498.27 491.74 499.35 489.94 500.22 C 490.26 498.12 490.61 496.02 490.97 493.92 C 488.92 493.43 486.87 492.94 484.83 492.48 C 494.76 485.46 503.02 476.15 508.96 465.56 Z" />
</g>
<g id="#9271e7ff">
<path fill="#9271e7" opacity="1.00" d=" M 471.08 474.89 C 472.49 474.08 473.97 473.42 475.52 472.96 C 475.55 474.15 475.59 475.37 475.62 476.58 C 477.13 477.43 478.64 478.28 480.16 479.14 C 475.59 482.89 470.54 486.07 465.05 488.28 C 464.10 484.49 463.03 480.72 461.45 477.14 C 461.76 476.87 462.36 476.33 462.66 476.06 C 465.91 477.23 469.35 477.31 472.74 476.82 C 472.18 476.17 471.63 475.53 471.08 474.89 Z" />
</g>
<g id="#5682d2ff">
<path fill="#5682d2" opacity="1.00" d=" M 453.52 506.09 C 464.73 503.70 475.54 499.25 484.83 492.48 C 486.87 492.94 488.92 493.43 490.97 493.92 C 490.61 496.02 490.26 498.12 489.94 500.22 L 489.85 500.77 C 479.35 508.04 467.29 513.55 454.61 515.41 C 456.79 514.20 458.98 513.03 461.24 511.97 C 459.84 508.71 457.06 506.55 453.52 506.09 Z" />
</g>
<g id="#4f8cd1ff">
<path fill="#4f8cd1" opacity="1.00" d=" M 420.78 505.92 C 431.55 508.14 442.72 508.15 453.52 506.09 C 457.06 506.55 459.84 508.71 461.24 511.97 C 458.98 513.03 456.79 514.20 454.61 515.41 C 444.03 518.03 432.73 517.81 421.98 515.97 C 421.83 515.41 421.51 514.31 421.35 513.76 C 422.13 513.01 422.94 512.29 423.74 511.55 C 422.44 510.97 421.15 510.40 419.87 509.84 C 420.16 508.53 420.47 507.22 420.78 505.92 Z" />
</g>
<g id="#28abc9ff">
<path fill="#28abc9" opacity="1.00" d=" M 263.68 533.46 C 270.95 532.25 278.96 532.76 285.47 536.45 C 285.85 540.63 285.55 544.84 285.62 549.04 C 281.05 546.54 276.46 543.27 271.01 543.36 C 267.95 543.16 264.52 543.84 262.62 546.48 C 262.22 548.12 262.38 549.84 262.34 551.53 C 268.86 557.36 279.02 556.36 285.21 562.75 C 289.31 566.62 289.22 572.79 288.23 577.91 C 286.55 584.01 281.28 588.97 275.11 590.31 C 267.45 590.89 259.45 591.19 252.14 588.41 C 251.03 587.95 249.21 587.49 249.38 585.94 C 249.21 582.24 249.36 578.53 249.35 574.83 C 255.70 578.09 262.71 581.29 270.03 580.19 C 272.35 579.51 275.15 577.89 274.76 575.06 C 275.38 571.11 270.89 569.59 267.97 568.54 C 262.30 566.29 255.65 565.22 251.46 560.39 C 248.14 556.56 247.90 551.15 248.69 546.38 C 250.28 539.46 256.74 534.28 263.68 533.46 Z" />
<path fill="#28abc9" opacity="1.00" d=" M 533.48 538.37 C 538.55 533.92 545.47 533.06 551.94 532.79 C 557.84 533.32 564.04 533.72 569.31 536.67 C 571.58 539.94 569.44 544.37 569.62 548.09 C 564.11 545.47 558.29 542.72 552.01 543.48 C 546.17 543.49 540.98 547.87 539.76 553.53 C 538.49 560.44 538.03 568.20 541.63 574.51 C 544.15 578.82 549.40 579.98 554.00 580.33 C 559.47 580.09 564.83 578.35 569.46 575.44 C 570.53 578.19 570.41 581.18 570.19 584.07 C 570.03 585.34 569.86 587.01 568.47 587.55 C 564.26 589.46 559.63 590.48 555.01 590.58 C 549.48 590.66 543.62 591.01 538.59 588.28 C 530.46 585.06 525.73 576.52 525.22 568.08 C 524.11 557.81 524.99 545.50 533.48 538.37 Z" />
</g>
<g id="#28aac8ff">
<path fill="#28aac8" opacity="1.00" d=" M 312.44 538.42 C 317.75 533.57 325.21 533.21 331.99 532.72 C 337.71 533.03 343.29 534.48 348.61 536.57 C 349.60 540.35 349.42 544.30 348.84 548.14 C 342.24 544.95 334.84 541.85 327.43 544.11 C 321.34 545.58 318.05 552.19 318.24 558.06 C 318.32 563.94 317.30 570.67 321.36 575.56 C 324.05 579.19 328.78 579.87 332.97 580.27 C 338.72 580.51 343.73 577.46 349.05 575.86 C 348.93 579.55 350.33 583.87 348.17 587.14 C 342.08 590.42 334.82 590.81 328.01 590.58 C 319.54 590.40 310.52 586.31 306.89 578.24 C 304.19 573.25 304.28 567.49 303.74 562.00 C 303.87 553.56 305.47 544.04 312.44 538.42 Z" />
<path fill="#28aac8" opacity="1.00" d=" M 590.19 536.07 C 601.75 535.59 613.34 535.78 624.90 535.98 C 624.89 538.29 624.89 540.61 624.90 542.94 C 617.52 543.82 609.98 542.13 602.71 543.88 C 602.41 543.94 601.82 544.06 601.52 544.12 C 601.64 548.47 601.68 552.83 601.61 557.19 C 608.36 558.52 615.26 557.39 622.08 557.98 C 622.06 560.62 622.04 563.26 622.02 565.91 C 615.25 566.62 608.38 565.39 601.67 566.68 C 600.99 570.09 601.42 573.57 601.22 577.01 C 601.01 579.53 599.05 581.52 598.78 584.02 C 598.94 585.38 599.35 586.70 599.78 588.00 C 596.61 587.81 593.43 587.84 590.26 587.78 C 590.05 570.54 590.24 553.31 590.19 536.07 Z" />
</g>
<g id="#2aabc8ff">
<path fill="#2aabc8" opacity="1.00" d=" M 367.43 534.51 C 372.00 533.63 376.68 534.34 381.30 534.47 C 381.09 552.83 381.25 571.18 381.22 589.54 C 376.64 589.67 372.06 589.64 367.48 589.60 C 367.46 571.24 367.59 552.87 367.43 534.51 Z" />
</g>
<g id="#28abcaff">
<path fill="#28abca" opacity="1.00" d=" M 401.26 534.25 C 410.84 534.26 420.41 534.29 429.99 534.27 C 433.17 534.30 436.43 533.42 439.51 534.58 C 439.38 537.86 439.40 541.14 439.50 544.43 C 431.49 544.66 423.47 544.66 415.46 544.41 C 413.84 548.16 414.96 552.37 414.60 556.34 C 421.67 557.03 428.90 555.96 435.93 556.90 C 436.19 560.12 437.44 564.57 435.16 567.15 C 428.35 567.39 421.52 567.14 414.71 567.25 C 414.63 570.97 414.68 574.71 414.51 578.44 C 415.61 578.99 416.77 579.28 418.00 579.32 C 425.16 579.41 432.33 579.07 439.48 579.50 C 439.49 582.82 439.41 586.14 439.30 589.46 C 436.53 587.56 433.12 587.99 429.97 587.98 C 421.96 588.12 413.96 587.88 405.96 587.91 C 404.21 587.79 402.59 588.48 401.06 589.22 C 401.54 570.91 401.15 552.57 401.26 534.25 Z" />
</g>
<g id="#29abc9ff">
<path fill="#29abc9" opacity="1.00" d=" M 459.04 534.33 C 463.59 534.02 470.13 532.25 472.93 537.04 C 480.06 546.91 487.34 556.69 494.63 566.45 C 494.80 566.70 495.15 567.21 495.32 567.46 C 495.88 565.03 496.26 562.55 496.20 560.06 C 496.10 552.03 496.32 544.00 496.09 535.97 C 499.29 535.91 502.50 535.96 505.71 536.09 C 505.98 553.36 505.96 570.63 505.81 587.90 C 502.27 588.06 498.62 588.04 495.30 586.66 C 494.43 586.20 493.90 585.31 493.29 584.61 C 487.22 576.42 480.93 568.41 474.81 560.27 C 474.03 559.08 472.85 558.28 471.69 557.54 C 471.17 568.21 471.58 578.91 471.51 589.60 C 467.36 589.63 463.22 589.61 459.08 589.68 C 458.70 571.24 458.76 552.77 459.04 534.33 Z" />
</g>
<g id="#84cee0ff">
<path fill="#84cee0" opacity="1.00" d=" M 494.59 534.60 C 498.62 532.60 503.45 533.86 507.79 533.97 C 507.70 552.59 507.76 571.22 507.73 589.84 C 504.10 590.22 500.24 590.91 496.77 589.40 C 500.24 589.13 503.74 589.09 507.23 589.09 C 507.25 570.97 507.35 552.85 507.16 534.73 C 503.46 534.62 499.76 534.68 496.06 534.64 L 494.59 534.60 Z" />
</g>
<g id="#95dae5ff">
<path fill="#95dae5" opacity="1.00" d=" M 588.12 535.01 C 588.11 533.04 590.75 533.78 591.99 533.55 C 603.65 533.76 615.33 533.28 626.99 533.82 C 627.26 537.70 627.35 541.62 626.73 545.48 C 618.73 545.33 610.72 545.23 602.72 545.52 C 602.81 548.94 601.92 552.62 603.14 555.88 C 609.83 557.07 616.81 556.16 623.61 556.31 C 623.72 559.94 623.75 563.58 623.35 567.20 C 623.19 563.76 623.14 560.31 623.12 556.86 C 615.95 556.76 608.75 556.39 601.61 557.19 C 601.68 552.83 601.64 548.47 601.52 544.12 C 601.82 544.06 602.41 543.94 602.71 543.88 C 610.48 544.35 618.27 544.15 626.05 544.14 C 626.28 540.97 626.34 537.80 626.25 534.64 C 613.83 534.65 601.39 534.36 588.98 534.79 C 589.03 552.90 588.95 571.01 588.98 589.12 C 593.08 589.30 597.18 589.26 601.28 589.12 C 602.33 589.09 603.39 589.08 604.45 589.09 C 607.50 589.20 610.55 589.13 613.59 588.91 C 613.80 588.91 614.21 588.90 614.42 588.90 C 618.36 589.27 622.32 589.35 626.28 589.19 C 626.32 586.02 626.29 582.86 626.16 579.70 C 618.20 579.64 610.25 579.64 602.29 579.70 L 602.29 578.82 C 609.86 578.43 617.47 578.64 625.05 578.68 C 627.12 578.27 627.09 580.55 627.20 581.92 C 627.42 584.78 627.12 587.64 626.79 590.49 C 613.98 590.32 601.17 590.40 588.36 590.50 C 587.72 585.02 587.82 579.49 587.98 573.99 C 588.10 561.00 587.81 548.00 588.12 535.01 Z" />
</g>
<g id="#58adbeff">
<path fill="#58adbe" opacity="1.00" d=" M 494.59 534.60 L 496.06 534.64 L 496.09 535.97 C 496.32 544.00 496.10 552.03 496.20 560.06 C 496.26 562.55 495.88 565.03 495.32 567.46 C 495.15 567.21 494.80 566.70 494.63 566.45 C 494.81 555.84 494.99 545.21 494.59 534.60 Z" />
</g>
<g id="#2e9ab7ff">
<path fill="#2e9ab7" opacity="1.00" d=" M 496.06 534.64 C 499.76 534.68 503.46 534.62 507.16 534.73 C 507.35 552.85 507.25 570.97 507.23 589.09 C 503.74 589.09 500.24 589.13 496.77 589.40 C 496.40 588.72 495.66 587.35 495.30 586.66 C 498.62 588.04 502.27 588.06 505.81 587.90 C 505.96 570.63 505.98 553.36 505.71 536.09 C 502.50 535.96 499.29 535.91 496.09 535.97 L 496.06 534.64 Z" />
</g>
<g id="#2a97afff">
<path fill="#2a97af" opacity="1.00" d=" M 588.98 534.79 C 601.39 534.36 613.83 534.65 626.25 534.64 C 626.34 537.80 626.28 540.97 626.05 544.14 C 618.27 544.15 610.48 544.35 602.71 543.88 C 609.98 542.13 617.52 543.82 624.90 542.94 C 624.89 540.61 624.89 538.29 624.90 535.98 C 613.34 535.78 601.75 535.59 590.19 536.07 C 590.24 553.31 590.05 570.54 590.26 587.78 C 593.43 587.84 596.61 587.81 599.78 588.00 C 600.16 588.28 600.91 588.84 601.28 589.12 C 597.18 589.26 593.08 589.30 588.98 589.12 C 588.95 571.01 589.03 552.90 588.98 534.79 Z" />
</g>
<g id="#319db3ff">
<path fill="#319db3" opacity="1.00" d=" M 601.61 557.19 C 608.75 556.39 615.95 556.76 623.12 556.86 C 623.14 560.31 623.19 563.76 623.35 567.20 C 616.13 566.91 608.80 567.87 601.67 566.68 C 608.38 565.39 615.25 566.62 622.02 565.91 C 622.04 563.26 622.06 560.62 622.08 557.98 C 615.26 557.39 608.36 558.52 601.61 557.19 Z" />
</g>
<g id="#41b6d1ff">
<path fill="#41b6d1" opacity="1.00" d=" M 601.22 577.01 C 601.42 573.57 600.99 570.09 601.67 566.68 C 602.97 570.60 602.09 574.78 602.29 578.82 L 602.29 579.70 C 603.04 580.77 603.81 581.86 604.65 582.87 C 606.78 581.75 609.06 580.77 611.53 580.99 C 612.38 583.81 614.28 586.07 616.38 588.07 C 615.89 588.28 614.91 588.69 614.42 588.90 C 614.21 588.90 613.80 588.91 613.59 588.91 C 610.58 587.74 607.26 586.98 604.45 589.09 C 603.39 589.08 602.33 589.09 601.28 589.12 C 600.91 588.84 600.16 588.28 599.78 588.00 C 599.35 586.70 598.94 585.38 598.78 584.02 C 599.05 581.52 601.01 579.53 601.22 577.01 Z" />
</g>
<g id="#37a1b5ff">
<path fill="#37a1b5" opacity="1.00" d=" M 602.29 579.70 C 610.25 579.64 618.20 579.64 626.16 579.70 C 626.29 582.86 626.32 586.02 626.28 589.19 C 622.32 589.35 618.36 589.27 614.42 588.90 C 614.91 588.69 615.89 588.28 616.38 588.07 C 619.20 587.67 622.05 587.76 624.89 587.76 C 624.89 585.82 624.89 583.89 624.82 581.97 L 624.76 581.02 C 621.33 580.68 617.89 580.87 614.47 580.99 C 613.73 580.99 612.26 580.99 611.53 580.99 C 609.06 580.77 606.78 581.75 604.65 582.87 C 603.81 581.86 603.04 580.77 602.29 579.70 Z" />
</g>
<g id="#2aabc9ff">
<path fill="#2aabc9" opacity="1.00" d=" M 611.53 580.99 C 612.26 580.99 613.73 580.99 614.47 580.99 C 615.69 581.96 616.88 583.07 618.34 583.72 C 620.59 583.59 622.70 582.66 624.82 581.97 C 624.89 583.89 624.89 585.82 624.89 587.76 C 622.05 587.76 619.20 587.67 616.38 588.07 C 614.28 586.07 612.38 583.81 611.53 580.99 Z" />
</g>
<g id="#45b6cfff">
<path fill="#45b6cf" opacity="1.00" d=" M 614.47 580.99 C 617.89 580.87 621.33 580.68 624.76 581.02 L 624.82 581.97 C 622.70 582.66 620.59 583.59 618.34 583.72 C 616.88 583.07 615.69 581.96 614.47 580.99 Z" />
</g>
<g id="#259aa8ff">
<path fill="#259aa8" opacity="1.00" d=" M 401.06 589.22 C 402.59 588.48 404.21 587.79 405.96 587.91 C 413.96 587.88 421.96 588.12 429.97 587.98 C 433.12 587.99 436.53 587.56 439.30 589.46 C 426.56 589.52 413.77 589.98 401.06 589.22 Z" />
</g>
<g id="#399caeff">
<path fill="#399cae" opacity="1.00" d=" M 604.45 589.09 C 607.26 586.98 610.58 587.74 613.59 588.91 C 610.55 589.13 607.50 589.20 604.45 589.09 Z" />
</g>
</svg>
