<svg width="34" height="36" viewBox="0 0 34 36" fill="none" xmlns="http://www.w3.org/2000/svg">
<path d="M32.9107 10.9337C31.2975 9.39482 29.066 7.04481 27.2479 5.37835L27.1407 5.30053C26.9616 5.15219 26.7597 5.03584 26.5435 4.9563C22.158 4.11221 1.76288 0.172859 1.36518 0.222636C1.25305 0.23861 1.14587 0.280551 1.05164 0.345324L0.951198 0.428752C0.825153 0.560386 0.729565 0.719768 0.67159 0.894968L0.644444 0.965075V1.42078C2.94103 8.02842 12.0079 29.6678 13.7928 34.7443C13.9007 35.0886 14.105 35.7441 14.4871 35.7777H14.5726C14.7762 35.7777 15.6483 34.5859 15.6483 34.5859C15.6483 34.5859 31.2222 15.0784 32.798 13.0005C33.0021 12.7446 33.1821 12.4693 33.3355 12.1781C33.3747 11.9504 33.3562 11.7162 33.2818 11.4981C33.2073 11.28 33.0795 11.0856 32.9107 10.9337ZM19.6469 13.2059L26.291 7.51383L30.1899 11.2246L19.6469 13.2059ZM17.068 12.8336L5.61902 3.14542L24.1342 6.67254L17.068 12.8336ZM18.1009 15.3729L29.8133 13.4225L16.4172 30.0885L18.1009 15.3729ZM4.06489 4.11221L16.1057 14.6648L14.3629 30.0997L4.06489 4.11221Z" fill="#D1D1D1"/>
</svg>
